{
.appVersion = "1342";
DisplayStrings = (
"áàâäãå/abreveacute/abrevedotbelow/abrevegrave/abrevehookabove/abrevetilde/acircumflexacute/acircumflexdotbelow/acircumflexgrave/acircumflexhookabove/acircumflextilde/adotbelow/ahookabove"
);
copyright = "Copyright 2010 The Alex Brush Project Authors (https://github.com/googlefonts/allura)";
customParameters = (
{
name = trademark;
value = "AlluraPro-Regular is a trademark of Robert E. Leuschke.";
},
{
name = licenseURL;
value = "https://scripts.sil.org/OFL";
},
{
name = license;
value = "This Font Software is licensed under the SIL Open Font License, Version 1.1. This license is available with a FAQ at: https://scripts.sil.org/OFL";
},
{
name = panose;
value = (
2,
0,
0,
0,
0,
0,
0,
0,
0,
0
);
},
{
name = unicodeRanges;
value = (
0,
1,
2,
3,
5,
7,
29,
31,
33,
35,
38,
45,
60,
62
);
},
{
name = fsType;
value = (
);
},
{
name = "Use Typo Metrics";
value = 1;
},
{
name = glyphOrder;
value = (
.notdef,
.null,
CR,
space,
exclam,
quotedbl,
numbersign,
dollar,
percent,
ampersand,
quotesingle,
parenleft,
parenright,
asterisk,
plus,
comma,
hyphen,
period,
slash,
zero,
one,
two,
three,
four,
five,
six,
seven,
eight,
nine,
colon,
semicolon,
less,
equal,
greater,
question,
at,
A,
B,
C,
D,
E,
F,
G,
H,
I,
J,
K,
L,
M,
N,
O,
P,
Q,
R,
S,
T,
U,
V,
W,
X,
Y,
Z,
bracketleft,
backslash,
bracketright,
asciicircum,
underscore,
grave,
a,
b,
c,
d,
e,
f,
g,
h,
i,
j,
k,
l,
m,
n,
o,
p,
q,
r,
s,
t,
u,
v,
w,
x,
y,
z,
braceleft,
bar,
braceright,
asciitilde,
nbspace,
exclamdown,
cent,
sterling,
currency,
yen,
brokenbar,
section,
dieresis,
copyright,
ordfeminine,
guillemotleft,
logicalnot,
uni00AD,
registered,
macron,
degree,
plusminus,
twosuperior,
threesuperior,
acute,
mu,
paragraph,
periodcentered,
cedilla,
onesuperior,
ordmasculine,
guillemotright,
onequarter,
onehalf,
threequarters,
questiondown,
Agrave,
Aacute,
Acircumflex,
Atilde,
Adieresis,
Aring,
AE,
Ccedilla,
Egrave,
Eacute,
Ecircumflex,
Edieresis,
Igrave,
Iacute,
Icircumflex,
Idieresis,
Eth,

glyphs = (
{
glyphname = exclam;
layers = (
{
hints = (
{
horizontal = 1;
place = "{0, 49}";
type = Stem;
},
{
place = "{75, 221}";
type = Stem;
}
);
layerId = "F07FC137-599D-4028-8184-32064863B81C";
paths = (
{
closed = 1;
nodes = (
"119 127 OFFCURVE",
"118 124 OFFCURVE",
"118 122 CURVE SMOOTH",
"118 117 OFFCURVE",
"122 115 OFFCURVE",
"127 115 CURVE SMOOTH",
"135 115 OFFCURVE",
"145 120 OFFCURVE",
"147 125 CURVE SMOOTH",
"177 218 OFFCURVE",
"228 304 OFFCURVE",
"277 387 CURVE SMOOTH",
"290 410 OFFCURVE",
"296 429 OFFCURVE",
"296 440 CURVE SMOOTH",
"296 452 OFFCURVE",
"276 468 OFFCURVE",
"264 468 CURVE SMOOTH",
"250 468 OFFCURVE",
"166 260 OFFCURVE",
"120 130 CURVE SMOOTH"
);
},
{
closed = 1;
nodes = (
"124 34 OFFCURVE",
"124 37 OFFCURVE",
"124 40 CURVE SMOOTH",
"124 45 OFFCURVE",
"123 49 OFFCURVE",
"119 49 CURVE SMOOTH",
"116 49 OFFCURVE",
"110 47 OFFCURVE",
"101 40 CURVE SMOOTH",
"97 37 OFFCURVE",
"75 17 OFFCURVE",
"75 13 CURVE SMOOTH",
"75 0 OFFCURVE",
"91 0 OFFCURVE",
"102 0 CURVE SMOOTH",
"109 0 OFFCURVE",
"124 24 OFFCURVE",
"124 31 CURVE SMOOTH"
);
}
);
width = 130;
}
);
note = exclam;
unicode = 0021;
},
{
glyphname = quotedbl;
layers = (
{
hints = (
{
horizontal = 1;
place = "{243, 135}";
type = Stem;
},
{
place = "{65, 41}";
type = Stem;
},
{
place = "{156, 40}";
type = Stem;
}
);
layerId = "F07FC137-599D-4028-8184-32064863B81C";
paths = (
{
closed = 1;
nodes = (
"100 334 OFFCURVE",
"106 349 OFFCURVE",
"106 361 CURVE SMOOTH",
"106 370 OFFCURVE",
"102 378 OFFCURVE",
"89 378 CURVE SMOOTH",
"68 378 OFFCURVE",
"64 371 OFFCURVE",
"64 359 CURVE SMOOTH",
"64 345 OFFCURVE",
"65 341 OFFCURVE",
"65 313 CURVE SMOOTH",
"65 294 OFFCURVE",
"62 264 OFFCURVE",
"62 252 CURVE SMOOTH",
"62 246 OFFCURVE",
"65 242 OFFCURVE",
"68 242 CURVE SMOOTH",
"76 242 OFFCURVE",
"95 315 OFFCURVE",
"98 327 CURVE SMOOTH"
);
},
{
closed = 1;
nodes = (
"190 334 OFFCURVE",
"196 350 OFFCURVE",
"196 362 CURVE SMOOTH",
"196 371 OFFCURVE",
"192 378 OFFCURVE",
"180 378 CURVE SMOOTH",
"158 378 OFFCURVE",
"154 371 OFFCURVE",
"154 359 CURVE SMOOTH",
"154 352 OFFCURVE",
"156 342 OFFCURVE",
"156 332 CURVE",
"155 326 OFFCURVE",
"152 269 OFFCURVE",
"152 252 CURVE SMOOTH",
"152 246 OFFCURVE",
"155 242 OFFCURVE",
"158 242 CURVE SMOOTH",
"167 242 OFFCURVE",
"185 314 OFFCURVE",
"188 327 CURVE SMOOTH"
);
}
);
width = 205;
}
);
note = quotedbl;
unicode = 0022;
},
{
glyphname = numbersign;
layers = (
{
hints = (
{
horizontal = 1;
place = "{110, 27}";
type = Stem;
},
{
horizontal = 1;
place = "{295, 27}";
type = Stem;
},
{
place = "{12, 587}";
type = Stem;
}
);
layerId = "F07FC137-599D-4028-8184-32064863B81C";
paths = (
{
closed = 1;
nodes = (
"584 300 LINE",
"595 303 OFFCURVE",
"599 306 OFFCURVE",
"599 309 CURVE SMOOTH",
"599 314 OFFCURVE",
"582 319 OFFCURVE",
"556 320 CURVE SMOOTH",
"439 322 LINE",
"467 408 OFFCURVE",
"491 482 OFFCURVE",
"492 488 CURVE",
"491 488 LINE",
"491 490 OFFCURVE",
"491 492 OFFCURVE",
"491 493 CURVE SMOOTH",
"491 502 OFFCURVE",
"489 506 OFFCURVE",
"487 506 CURVE SMOOTH",
"474 506 OFFCURVE",
"474 504 OFFCURVE",
"410 322 CURVE",
"375 322 OFFCURVE",
"338 322 OFFCURVE",
"301 322 CURVE SMOOTH",
"282 322 OFFCURVE",
"264 322 OFFCURVE",
"246 322 CURVE",
"275 410 OFFCURVE",
"299 485 OFFCURVE",
"300 491 CURVE",
"299 492 LINE",
"299 494 OFFCURVE",
"299 495 OFFCURVE",
"299 497 CURVE SMOOTH",
"299 505 OFFCURVE",
"297 509 OFFCURVE",
"294 509 CURVE SMOOTH",
"289 509 OFFCURVE",
"279 495 OFFCURVE",
"271 472 CURVE SMOOTH",
"217 322 LINE",
"86 322 OFFCURVE",
"66 320 OFFCURVE",
"66 303 CURVE SMOOTH",
"66 297 OFFCURVE",
"73 291 OFFCURVE",
"92 291 CURVE SMOOTH",
"94 291 OFFCURVE",
"96 291 OFFCURVE",
"98 291 CURVE SMOOTH",
"109 292 OFFCURVE",
"151 292 OFFCURVE",
"207 293 CURVE",
"188 241 OFFCURVE",
"169 185 OFFCURVE",
"153 137 CURVE",
"27 137 OFFCURVE",
"12 134 OFFCURVE",
"12 118 CURVE SMOOTH",
"12 112 OFFCURVE",
"19 106 OFFCURVE",
"38 106 CURVE SMOOTH",
"40 106 OFFCURVE",
"42 106 OFFCURVE",
"44 106 CURVE SMOOTH",
"54 107 OFFCURVE",
"92 107 OFFCURVE",
"144 108 CURVE",
"128 61 OFFCURVE",
"118 27 OFFCURVE",
"118 18 CURVE SMOOTH",
"118 9 OFFCURVE",
"125 3 OFFCURVE",
"130 3 CURVE SMOOTH",
"136 3 OFFCURVE",
"143 10 OFFCURVE",
"149 29 CURVE SMOOTH",
"175 108 LINE",
"337 110 LINE",
"321 61 OFFCURVE",
"310 24 OFFCURVE",
"310 14 CURVE SMOOTH",
"310 5 OFFCURVE",
"317 -1 OFFCURVE",
"322 -1 CURVE SMOOTH",
"328 -1 OFFCURVE",
"335 7 OFFCURVE",
"341 26 CURVE SMOOTH",
"368 110 LINE",
"454 111 OFFCURVE",
"524 112 OFFCURVE",
"530 114 CURVE",
"530 115 LINE",
"541 118 OFFCURVE",
"545 121 OFFCURVE",
"545 124 CURVE SMOOTH",
"545 129 OFFCURVE",
"528 134 OFFCURVE",
"502 135 CURVE SMOOTH",
"377 137 LINE",
"430 295 LINE",
"512 296 OFFCURVE",
"578 297 OFFCURVE",
"584 299 CURVE"
);
},
{
closed = 1;
nodes = (
"401 293 LINE",
"382 242 OFFCURVE",
"362 186 OFFCURVE",
"346 137 CURVE",
"311 137 OFFCURVE",
"274 137 OFFCURVE",
"238 137 CURVE SMOOTH",
"220 137 OFFCURVE",
"202 137 OFFCURVE",
"184 137 CURVE",
"236 293 LINE"
);
}
);
width = 620;
}
);
note = numbersign;
unicode = 0023;
},
{
glyphname = dollar;
layers = (
{
hints = (
{
horizontal = 1;
place = "{232, 20}";
type = Stem;
},
{
place = "{119, 43}";
type = Stem;
}
);
layerId = "F07FC137-599D-4028-8184-32064863B81C";
paths = (
{
closed = 1;
nodes = (
"327 432 OFFCURVE",
"327 434 OFFCURVE",
"327 435 CURVE SMOOTH",
"327 439 OFFCURVE",
"321 441 OFFCURVE",
"314 441 CURVE SMOOTH",
"297 441 OFFCURVE",
"294 438 OFFCURVE",
"277 411 CURVE",
"274 411 LINE SMOOTH",
"266 412 OFFCURVE",
"257 413 OFFCURVE",
"248 413 CURVE SMOOTH",
"172 413 OFFCURVE",
"75 369 OFFCURVE",
"75 285 CURVE SMOOTH",
"75 239 OFFCURVE",
"107 198 OFFCURVE",
"138 168 CURVE",
"120 136 OFFCURVE",
"104 105 OFFCURVE",
"91 79 CURVE",
"75 82 OFFCURVE",
"59 89 OFFCURVE",
"53 89 CURVE SMOOTH",
"50 89 OFFCURVE",
"49 87 OFFCURVE",
"49 84 CURVE SMOOTH",
"49 73 OFFCURVE",
"63 65 OFFCURVE",
"80 57 CURVE",
"65 26 OFFCURVE",
"55 4 OFFCURVE",
"55 -3 CURVE SMOOTH",
"55 -8 OFFCURVE",
"58 -10 OFFCURVE",
"62 -10 CURVE SMOOTH",
"84 -10 OFFCURVE",
"91 22 OFFCURVE",
"104 49 CURVE",
"121 43 OFFCURVE",
"126 43 OFFCURVE",
"139 43 CURVE SMOOTH",
"171 43 OFFCURVE",
"216 51 OFFCURVE",
"216 81 CURVE SMOOTH",
"216 105 OFFCURVE",
"189 134 OFFCURVE",
"162 165 CURVE",
"208 249 OFFCURVE",
"260 332 OFFCURVE",
"295 386 CURVE",
"321 381 OFFCURVE",
"332 371 OFFCURVE",
"332 356 CURVE SMOOTH",
"332 317 OFFCURVE",
"258 261 OFFCURVE",
"258 251 CURVE SMOOTH",
"258 250 OFFCURVE",
"259 249 OFFCURVE",
"261 249 CURVE SMOOTH",
"299 249 OFFCURVE",
"354 312 OFFCURVE",
"354 352 CURVE SMOOTH",
"354 379 OFFCURVE",
"331 395 OFFCURVE",
"307 404 CURVE",
"314 415 OFFCURVE",
"321 424 OFFCURVE",
"326 431 CURVE SMOOTH"
);
},
{
closed = 1;
nodes = (
"173 132 OFFCURVE",
"187 118 OFFCURVE",
"187 108 CURVE SMOOTH",
"186 83 OFFCURVE",
"159 76 OFFCURVE",
"128 76 CURVE SMOOTH",
"124 76 OFFCURVE",
"120 76 OFFCURVE",
"116 76 CURVE",
"128 101 OFFCURVE",
"141 126 OFFCURVE",
"154 151 CURVE"
);
},
{
closed = 1;
nodes = (
"119 211 OFFCURVE",
"98 239 OFFCURVE",
"98 264 CURVE SMOOTH",
"98 333 OFFCURVE",
"195 383 OFFCURVE",
"263 388 CURVE",
"232 338 OFFCURVE",
"187 258 OFFCURVE",
"146 183 CURVE"
);
}
);
width = 349;
}
);
note = dollar;
unicode = 0024;
},
{
glyphname = percent;
layers = (
{
hints = (
{
horizontal = 1;
place = "{-1, 17}";
type = Stem;
},
{
horizontal = 1;
place = "{141, 14}";
type = Stem;
},
{
horizontal = 1;
place = "{280, 16}";
type = Stem;
},
{
horizontal = 1;
place = "{400, 15}";
type = Stem;
},
{
horizontal = 1;
place = "{422, 14}";
type = Stem;
},
{
place = "{53, 27}";
type = Stem;
},
{
place = "{182, 28}";
type = Stem;
},
{
place = "{302, 28}";
type = Stem;
}
);
layerId = "F07FC137-599D-4028-8184-32064863B81C";
paths = (
{
closed = 1;
nodes = (
"286 53 OFFCURVE",
"263 16 OFFCURVE",
"234 16 CURVE SMOOTH",
"215 16 OFFCURVE",
"209 30 OFFCURVE",
"209 45 CURVE SMOOTH",
"209 66 OFFCURVE",
"229 141 OFFCURVE",
"279 141 CURVE SMOOTH",
"297 141 OFFCURVE",
"302 128 OFFCURVE",
"302 113 CURVE SMOOTH",
"302 100 OFFCURVE",
"298 86 OFFCURVE",
"295 77 CURVE SMOOTH"
);
},
{
closed = 1;
nodes = (
"330 105 OFFCURVE",
"330 108 OFFCURVE",
"330 111 CURVE SMOOTH",
"330 144 OFFCURVE",
"307 155 OFFCURVE",
"283 155 CURVE SMOOTH",
"237 155 OFFCURVE",
"181 113 OFFCURVE",
"181 49 CURVE SMOOTH",
"181 20 OFFCURVE",
"196 -1 OFFCURVE",
"233 -1 CURVE SMOOTH",
"276 -1 OFFCURVE",
"324 50 OFFCURVE",
"330 102 CURVE SMOOTH"
);
},
{
closed = 1;
nodes = (
"179 433 OFFCURVE",
"166 436 OFFCURVE",
"154 436 CURVE SMOOTH",
"107 435 OFFCURVE",
"52 394 OFFCURVE",
"52 327 CURVE SMOOTH",
"52 300 OFFCURVE",
"67 280 OFFCURVE",
"103 280 CURVE SMOOTH",
"146 280 OFFCURVE",
"201 336 OFFCURVE",
"201 391 CURVE SMOOTH",
"201 397 OFFCURVE",
"201 402 OFFCURVE",
"200 406 CURVE",
"212 402 OFFCURVE",
"227 400 OFFCURVE",
"242 400 CURVE SMOOTH",
"261 400 OFFCURVE",
"281 403 OFFCURVE",
"298 409 CURVE",
"238 316 OFFCURVE",
"48 21 OFFCURVE",
"48 -4 CURVE SMOOTH",
"48 -8 OFFCURVE",
"51 -10 OFFCURVE",
"56 -10 CURVE SMOOTH",
"63 -10 OFFCURVE",
"75 -4 OFFCURVE",
"80 6 CURVE SMOOTH",
"152 153 OFFCURVE",
"311 373 OFFCURVE",
"360 431 CURVE SMOOTH",
"361 432 OFFCURVE",
"361 433 OFFCURVE",
"361 434 CURVE SMOOTH",
"361 439 OFFCURVE",
"353 441 OFFCURVE",
"343 441 CURVE SMOOTH",
"312 441 OFFCURVE",
"288 415 OFFCURVE",
"240 415 CURVE SMOOTH",
"221 415 OFFCURVE",
"203 418 OFFCURVE",
"189 424 CURVE"
);
},
{
closed = 1;
nodes = (
"158 335 OFFCURVE",
"134 296 OFFCURVE",
"104 296 CURVE SMOOTH",
"85 296 OFFCURVE",
"80 309 OFFCURVE",
"80 325 CURVE SMOOTH",
"80 344 OFFCURVE",
"99 422 OFFCURVE",
"149 422 CURVE SMOOTH",
"167 422 OFFCURVE",
"173 408 OFFCURVE",
"173 393 CURVE SMOOTH",
"173 380 OFFCURVE",
"169 366 OFFCURVE",
"166 357 CURVE SMOOTH"
);
}
);
width = 371;
}
);
note = percent;
unicode = 0025;
},
{
glyphname = ampersand;
layers = (
{
hints = (
{
horizontal = 1;
place = "{-79, 18}";
type = Stem;
},
{
horizontal = 1;
place = "{187, 16}";
type = Stem;
},
{
horizontal = 1;
place = "{315, 150}";
type = Stem;
},
{
place = "{98, 45}";
type = Stem;
},
{
place = "{259, 62}";
type = Stem;
},
{
place = "{339, 16}";
type = Stem;
},
{
place = "{472, 13}";
type = Stem;
},
{
place = "{553, 38}";
type = Stem;
}
);
layerId = "F07FC137-599D-4028-8184-32064863B81C";
paths = (
{
closed = 1;
nodes = (
"465 429 OFFCURVE",
"467 432 OFFCURVE",
"467 435 CURVE SMOOTH",
"467 441 OFFCURVE",
"459 444 OFFCURVE",
"451 444 CURVE SMOOTH",
"437 444 OFFCURVE",
"426 435 OFFCURVE",
"415 422 CURVE",
"391 451 OFFCURVE",
"352 464 OFFCURVE",
"326 464 CURVE SMOOTH",
"256 464 OFFCURVE",
"200 436 OFFCURVE",
"200 379 CURVE SMOOTH",
"200 323 OFFCURVE",
"248 260 OFFCURVE",
"287 228 CURVE",
"258 224 OFFCURVE",
"205 230 OFFCURVE",
"151 210 CURVE SMOOTH",
"88 186 OFFCURVE",
"56 135 OFFCURVE",
"56 87 CURVE SMOOTH",
"56 29 OFFCURVE",
"104 -26 OFFCURVE",
"205 -26 CURVE SMOOTH",
"308 -26 OFFCURVE",
"476 25 OFFCURVE",
"500 158 CURVE SMOOTH",
"501 162 OFFCURVE",
"501 165 OFFCURVE",
"501 169 CURVE SMOOTH",
"501 198 OFFCURVE",
"482 227 OFFCURVE",
"471 240 CURVE",
"513 264 OFFCURVE",
"546 290 OFFCURVE",
"546 319 CURVE SMOOTH",
"546 326 OFFCURVE",
"543 340 OFFCURVE",
"536 340 CURVE SMOOTH",
"535 340 OFFCURVE",
"534 339 OFFCURVE",
"534 338 CURVE SMOOTH",
"534 334 OFFCURVE",
"537 329 OFFCURVE",
"537 326 CURVE SMOOTH",
"537 268 OFFCURVE",
"321 219 OFFCURVE",
"282 147 CURVE SMOOTH",
"275 134 OFFCURVE",
"272 118 OFFCURVE",
"272 103 CURVE SMOOTH",
"272 74 OFFCURVE",
"283 52 OFFCURVE",
"300 52 CURVE SMOOTH",
"303 52 OFFCURVE",
"304 53 OFFCURVE",
"304 55 CURVE SMOOTH",
"304 61 OFFCURVE",
"287 71 OFFCURVE",
"287 84 CURVE SMOOTH",
"287 117 OFFCURVE",
"342 168 OFFCURVE",
"365 182 CURVE SMOOTH",
"394 199 OFFCURVE",
"429 217 OFFCURVE",
"460 235 CURVE",
"463 229 OFFCURVE",
"465 217 OFFCURVE",
"465 202 CURVE SMOOTH",
"465 53 OFFCURVE",
"312 -10 OFFCURVE",
"214 -10 CURVE SMOOTH",
"138 -10 OFFCURVE",
"96 31 OFFCURVE",
"96 77 CURVE SMOOTH",
"96 132 OFFCURVE",
"161 197 OFFCURVE",
"297 214 CURVE SMOOTH",
"306 215 OFFCURVE",
"312 217 OFFCURVE",
"312 222 CURVE SMOOTH",
"312 229 OFFCURVE",
"257 305 OFFCURVE",
"257 373 CURVE SMOOTH",
"257 410 OFFCURVE",
"274 446 OFFCURVE",
"322 446 CURVE SMOOTH",
"354 446 OFFCURVE",
"388 427 OFFCURVE",
"405 408 CURVE",
"403 404 LINE SMOOTH",
"395 390 OFFCURVE",
"393 371 OFFCURVE",
"393 357 CURVE SMOOTH",
"393 332 OFFCURVE",
"400 329 OFFCURVE",
"405 329 CURVE SMOOTH",
"408 329 OFFCURVE",
"410 331 OFFCURVE",
"410 333 CURVE SMOOTH",
"410 338 OFFCURVE",
"404 345 OFFCURVE",
"404 352 CURVE SMOOTH",
"404 386 OFFCURVE",
"449 410 OFFCURVE",
"462 426 CURVE SMOOTH"
);
}
);
width = 550;
}
);
note = ampersand;
unicode = 0026;
},
{
glyphname = quotesingle;
layers = (
{
hints = (
{
horizontal = 1;
place = "{204, 20}";
type = Stem;
}
);
layerId = "F07FC137-599D-4028-8184-32064863B81C";
paths = (
{
closed = 1;
nodes = (
"203 373 OFFCURVE",
"195 390 OFFCURVE",
"182 390 CURVE SMOOTH",
"180 390 OFFCURVE",
"160 390 OFFCURVE",
"160 379 CURVE SMOOTH",
"160 367 OFFCURVE",
"167 365 OFFCURVE",
"167 354 CURVE SMOOTH",
"167 315 OFFCURVE",
"109 263 OFFCURVE",
"109 257 CURVE SMOOTH",
"109 255 OFFCURVE",
"109 250 OFFCURVE",
"113 250 CURVE SMOOTH",
"116 250 OFFCURVE",
"138 269 OFFCURVE",
"169 306 CURVE SMOOTH",
"187 328 OFFCURVE",
"203 353 OFFCURVE",
"203 364 CURVE SMOOTH"
);
}
);
width = 116;
}
);
note = quotesingle;
unicode = 0027;
},
{
glyphname = parenleft;
layers = (
{
hints = (
{
horizontal = 1;
place = "{-129, 21}";
target = up;
type = BottomGhost;
},
{
horizontal = 1;
place = "{459, -20}";
target = down;
type = TopGhost;
},
{
place = "{25, 45}";
type = Stem;
}
);
layerId = "F07FC137-599D-4028-8184-32064863B81C";
paths = (
{
closed = 1;
nodes = (
"200 424 OFFCURVE",
"25 252 OFFCURVE",
"25 35 CURVE SMOOTH",
"25 -4 OFFCURVE",
"40 -129 OFFCURVE",
"73 -129 CURVE SMOOTH",
"84 -129 OFFCURVE",
"98 -119 OFFCURVE",
"98 -109 CURVE SMOOTH",
"98 -107 OFFCURVE",
"98 -105 OFFCURVE",
"97 -103 CURVE SMOOTH",
"78 -65 OFFCURVE",
"69 -16 OFFCURVE",
"69 34 CURVE SMOOTH",
"69 240 OFFCURVE",
"205 390 OFFCURVE",
"362 441 CURVE SMOOTH",
"371 444 OFFCURVE",
"376 450 OFFCURVE",
"376 455 CURVE SMOOTH",
"376 458 OFFCURVE",
"374 460 OFFCURVE",
"369 460 CURVE SMOOTH",
"368 460 OFFCURVE",
"366 459 OFFCURVE",
"364 459 CURVE"
);
}
);
width = 304;
}
);
note = parenleft;
unicode = 0028;
},
{
glyphname = parenright;
layers = (
{
hints = (
{
horizontal = 1;
place = "{-122, 21}";
target = up;
type = BottomGhost;
},
{
horizontal = 1;
place = "{466, -20}";
target = down;
type = TopGhost;
},
{
place = "{278, 45}";
type = Stem;
}
);
layerId = "F07FC137-599D-4028-8184-32064863B81C";
paths = (
{
closed = 1;
nodes = (
"146 -88 OFFCURVE",
"322 82 OFFCURVE",
"322 302 CURVE SMOOTH",
"322 341 OFFCURVE",
"306 466 OFFCURVE",
"274 466 CURVE SMOOTH",
"262 466 OFFCURVE",
"248 456 OFFCURVE",
"248 445 CURVE SMOOTH",
"248 444 OFFCURVE",
"249 442 OFFCURVE",
"250 440 CURVE SMOOTH",
"269 402 OFFCURVE",
"278 353 OFFCURVE",
"278 302 CURVE SMOOTH",
"278 98 OFFCURVE",
"141 -54 OFFCURVE",
"-15 -105 CURVE SMOOTH",
"-24 -108 OFFCURVE",
"-29 -113 OFFCURVE",
"-29 -118 CURVE SMOOTH",
"-29 -121 OFFCURVE",
"-27 -123 OFFCURVE",
"-22 -123 CURVE SMOOTH",
"-21 -123 OFFCURVE",
"-19 -123 OFFCURVE",
"-17 -122 CURVE"
);
}
);
width = 414;
}
);
note = parenright;
unicode = 0029;
},
{
glyphname = asterisk;
layers = (
{
hints = (
{
horizontal = 1;
place = "{267, 31}";
type = Stem;
},
{
place = "{86, 334}";
type = Stem;
}
);
layerId = "F07FC137-599D-4028-8184-32064863B81C";
paths = (
{
closed = 1;
nodes = (
"133 175 OFFCURVE",
"133 174 OFFCURVE",
"133 172 CURVE SMOOTH",
"133 165 OFFCURVE",
"138 156 OFFCURVE",
"147 156 CURVE SMOOTH",
"167 156 OFFCURVE",
"156 156 OFFCURVE",
"232 252 CURVE",
"271 187 OFFCURVE",
"280 149 OFFCURVE",
"297 149 CURVE SMOOTH",
"302 149 OFFCURVE",
"305 154 OFFCURVE",
"305 162 CURVE SMOOTH",
"305 174 OFFCURVE",
"287 192 OFFCURVE",
"261 268 CURVE",
"409 270 OFFCURVE",
"420 273 OFFCURVE",
"420 288 CURVE SMOOTH",
"420 293 OFFCURVE",
"410 297 OFFCURVE",
"383 298 CURVE SMOOTH",
"376 298 OFFCURVE",
"349 297 OFFCURVE",
"317 297 CURVE SMOOTH",
"301 297 OFFCURVE",
"284 298 OFFCURVE",
"268 298 CURVE",
"317 359 OFFCURVE",
"348 394 OFFCURVE",
"348 414 CURVE SMOOTH",
"348 420 OFFCURVE",
"344 423 OFFCURVE",
"341 423 CURVE SMOOTH",
"329 423 OFFCURVE",
"314 400 OFFCURVE",
"240 314 CURVE",
"207 403 OFFCURVE",
"197 413 OFFCURVE",
"185 413 CURVE SMOOTH",
"176 413 OFFCURVE",
"169 405 OFFCURVE",
"169 393 CURVE SMOOTH",
"169 384 OFFCURVE",
"192 334 OFFCURVE",
"215 298 CURVE",
"107 298 OFFCURVE",
"86 297 OFFCURVE",
"86 275 CURVE",
"87 269 OFFCURVE",
"94 265 OFFCURVE",
"112 265 CURVE SMOOTH",
"123 266 OFFCURVE",
"163 266 OFFCURVE",
"208 267 CURVE",
"165 213 OFFCURVE",
"136 185 OFFCURVE",
"134 177 CURVE"
);
}
);
width = 515;
}
);
note = asterisk;
unicode = 002A;
},
{
glyphname = plus;
layers = (
{
hints = (
{
horizontal = 1;
place = "{115, 19}";
type = Stem;
}
);
layerId = "F07FC137-599D-4028-8184-32064863B81C";
paths = (
{
closed = 1;
nodes = (
"296 266 OFFCURVE",
"274 218 OFFCURVE",
"250 165 CURVE",
"99 165 LINE SMOOTH",
"89 165 OFFCURVE",
"74 153 OFFCURVE",
"74 144 CURVE SMOOTH",
"74 139 OFFCURVE",
"79 136 OFFCURVE",
"92 136 CURVE SMOOTH",
"105 136 OFFCURVE",
"169 138 OFFCURVE",
"238 139 CURVE",
"177 7 LINE SMOOTH",
"174 1 OFFCURVE",
"173 -3 OFFCURVE",
"173 -6 CURVE SMOOTH",
"173 -12 OFFCURVE",
"177 -15 OFFCURVE",
"182 -15 CURVE SMOOTH",
"191 -15 OFFCURVE",
"204 -7 OFFCURVE",
"207 1 CURVE SMOOTH",
"267 139 LINE",
"390 141 OFFCURVE",
"440 138 OFFCURVE",
"440 156 CURVE SMOOTH",
"440 161 OFFCURVE",
"433 166 OFFCURVE",
"417 166 CURVE SMOOTH",
"278 166 LINE",
"324 270 LINE SMOOTH",
"327 277 OFFCURVE",
"329 283 OFFCURVE",
"329 287 CURVE SMOOTH",
"329 293 OFFCURVE",
"326 296 OFFCURVE",
"322 296 CURVE SMOOTH",
"317 296 OFFCURVE",
"310 290 OFFCURVE",
"304 280 CURVE SMOOTH"
);
}
);
width = 492;
}
);
note = plus;
unicode = 002B;
},
{
glyphname = comma;
layers = (
{
hints = (
{
horizontal = 1;
place = "{-97, 140}";
type = Stem;
},
{
place = "{27, 94}";
type = Stem;
}
);
layerId = "F07FC137-599D-4028-8184-32064863B81C";
paths = (
{
closed = 1;
nodes = (
"121 30 OFFCURVE",
"111 43 OFFCURVE",
"94 43 CURVE SMOOTH",
"86 43 OFFCURVE",
"77 41 OFFCURVE",
"77 28 CURVE SMOOTH",
"77 19 OFFCURVE",
"83 17 OFFCURVE",
"83 6 CURVE SMOOTH",
"83 -36 OFFCURVE",
"27 -85 OFFCURVE",
"27 -90 CURVE SMOOTH",
"27 -92 OFFCURVE",
"27 -97 OFFCURVE",
"31 -97 CURVE SMOOTH",
"34 -97 OFFCURVE",
"55 -80 OFFCURVE",
"86 -41 CURVE SMOOTH",
"103 -19 OFFCURVE",
"121 6 OFFCURVE",
"121 17 CURVE SMOOTH"
);
}
);
width = 143;
}
);
note = comma;
unicode = 002C;
},
{
glyphname = hyphen;
layers = (
{
hints = (
{
horizontal = 1;
place = "{136, 30}";
type = Stem;
},
{
place = "{115, 188}";
type = Stem;
}
);
layerId = "F07FC137-599D-4028-8184-32064863B81C";
paths = (
{
closed = 1;
nodes = (
"267 144 OFFCURVE",
"303 146 OFFCURVE",
"303 156 CURVE SMOOTH",
"303 161 OFFCURVE",
"285 166 OFFCURVE",
"259 166 CURVE SMOOTH",
"186 166 OFFCURVE",
"115 174 OFFCURVE",
"115 144 CURVE SMOOTH",
"115 138 OFFCURVE",
"120 136 OFFCURVE",
"133 136 CURVE SMOOTH",
"160 136 OFFCURVE",
"223 141 OFFCURVE",
"260 143 CURVE SMOOTH"
);
}
);
width = 302;
}
);
note = hyphen;
unicode = 002D;
},
{
glyphname = period;
layers = (
{
hints = (
{
horizontal = 1;
place = "{0, 49}";
type = Stem;
},
{
place = "{75, 49}";
type = Stem;
}
);
layerId = "F07FC137-599D-4028-8184-32064863B81C";
paths = (
{
closed = 1;
nodes = (
"130 35 OFFCURVE",
"130 38 OFFCURVE",
"130 42 CURVE SMOOTH",
"130 48 OFFCURVE",
"129 54 OFFCURVE",
"124 54 CURVE SMOOTH",
"120 54 OFFCURVE",
"112 50 OFFCURVE",
"101 42 CURVE SMOOTH",
"96 39 OFFCURVE",
"68 14 OFFCURVE",
"68 9 CURVE SMOOTH",
"68 -8 OFFCURVE",
"88 -8 OFFCURVE",
"102 -8 CURVE SMOOTH",
"111 -8 OFFCURVE",
"130 22 OFFCURVE",
"130 31 CURVE SMOOTH"
);
}
);
width = 145;
}
);
note = period;
unicode = 002E;
},
{
glyphname = slash;
layers = (
{
hints = (
{
horizontal = 1;
place = "{-10, 451}";
type = Stem;
},
{
place = "{16, 347}";
type = Stem;
}
);
layerId = "F07FC137-599D-4028-8184-32064863B81C";
paths = (
{
closed = 1;
nodes = (
"362 433 OFFCURVE",
"362 434 OFFCURVE",
"362 436 CURVE SMOOTH",
"362 440 OFFCURVE",
"357 441 OFFCURVE",
"351 441 CURVE SMOOTH",
"344 441 OFFCURVE",
"334 439 OFFCURVE",
"329 434 CURVE SMOOTH",
"292 398 OFFCURVE",
"15 22 OFFCURVE",
"15 -4 CURVE SMOOTH",
"15 -8 OFFCURVE",
"18 -10 OFFCURVE",
"22 -10 CURVE SMOOTH",
"29 -10 OFFCURVE",
"41 -4 OFFCURVE",
"47 6 CURVE SMOOTH",
"131 153 OFFCURVE",
"306 372 OFFCURVE",
"360 431 CURVE SMOOTH"
);
}
);
width = 374;
}
);
note = slash;
unicode = 002F;
},
{
glyphname = zero;
layers = (
{
hints = (
{
horizontal = 1;
place = "{623, 18}";
type = Stem;
}
);
layerId = "F07FC137-599D-4028-8184-32064863B81C";
paths = (
{
closed = 1;
nodes = (
"432 200 OFFCURVE",
"439 234 OFFCURVE",
"439 267 CURVE SMOOTH",
"439 367 OFFCURVE",
"365 444 OFFCURVE",
"267 444 CURVE SMOOTH",
"255 444 OFFCURVE",
"245 438 OFFCURVE",
"245 433 CURVE SMOOTH",
"245 430 OFFCURVE",
"336 421 OFFCURVE",
"366 392 CURVE SMOOTH",
"390 368 OFFCURVE",
"403 335 OFFCURVE",
"403 293 CURVE SMOOTH",
"403 157 OFFCURVE",
"285 3 OFFCURVE",
"168 3 CURVE SMOOTH",
"99 3 OFFCURVE",
"72 59 OFFCURVE",
"72 124 CURVE SMOOTH",
"72 263 OFFCURVE",
"190 388 OFFCURVE",
"294 388 CURVE SMOOTH",
"307 388 OFFCURVE",
"326 384 OFFCURVE",
"335 370 CURVE SMOOTH",
"336 368 OFFCURVE",
"337 368 OFFCURVE",
"337 368 CURVE",
"340 368 OFFCURVE",
"341 373 OFFCURVE",
"341 379 CURVE SMOOTH",
"341 404 OFFCURVE",
"316 419 OFFCURVE",
"288 419 CURVE SMOOTH",
"142 419 OFFCURVE",
"35 262 OFFCURVE",
"35 141 CURVE SMOOTH",
"35 53 OFFCURVE",
"82 -18 OFFCURVE",
"177 -18 CURVE SMOOTH",
"284 -18 OFFCURVE",
"375 63 OFFCURVE",
"418 166 CURVE SMOOTH"
);
}
);
width = 440;
}
);
note = zero;
unicode = 0030;
},
{
glyphname = one;
layers = (
{
hints = (
{
horizontal = 1;
place = "{48, 28}";
type = Stem;
}
);
layerId = "F07FC137-599D-4028-8184-32064863B81C";
paths = (
{
closed = 1;
nodes = (
"217 23 OFFCURVE",
"195 23 OFFCURVE",
"173 23 CURVE SMOOTH",
"162 23 OFFCURVE",
"151 23 OFFCURVE",
"140 23 CURVE",
"164 112 OFFCURVE",
"247 288 OFFCURVE",
"313 418 CURVE",
"313 418 OFFCURVE",
"313 419 OFFCURVE",
"313 420 CURVE SMOOTH",
"313 426 OFFCURVE",
"294 437 OFFCURVE",
"279 437 CURVE SMOOTH",
"263 437 OFFCURVE",
"204 363 OFFCURVE",
"184 341 CURVE SMOOTH",
"157 311 OFFCURVE",
"91 237 OFFCURVE",
"90 230 CURVE SMOOTH",
"90 228 OFFCURVE",
"92 227 OFFCURVE",
"94 227 CURVE SMOOTH",
"113 227 OFFCURVE",
"208 333 OFFCURVE",
"233 357 CURVE",
"188 253 OFFCURVE",
"123 84 OFFCURVE",
"110 22 CURVE",
"57 16 OFFCURVE",
"16 18 OFFCURVE",
"16 -12 CURVE SMOOTH",
"16 -15 OFFCURVE",
"17 -17 OFFCURVE",
"21 -17 CURVE SMOOTH",
"48 -17 OFFCURVE",
"73 -10 OFFCURVE",
"101 -5 CURVE",
"103 -8 OFFCURVE",
"106 -9 OFFCURVE",
"110 -9 CURVE SMOOTH",
"116 -9 OFFCURVE",
"125 -5 OFFCURVE",
"128 -2 CURVE",
"128 -1 LINE",
"142 0 OFFCURVE",
"156 1 OFFCURVE",
"169 1 CURVE SMOOTH",
"187 1 OFFCURVE",
"205 0 OFFCURVE",
"221 0 CURVE SMOOTH",
"231 0 OFFCURVE",
"256 16 OFFCURVE",
"236 20 CURVE SMOOTH"
);
}
);
width = 265;
}
);
note = one;
unicode = 0031;
},
{
glyphname = two;
layers = (
{
hints = (
{
horizontal = 1;
place = "{-39, 38}";
type = Stem;
},
{
horizontal = 1;
place = "{497, 47}";
type = Stem;
},
{
place = "{572, 32}";
type = Stem;
}
);
layerId = "F07FC137-599D-4028-8184-32064863B81C";
paths = (
{
closed = 1;
nodes = (
"126 64 OFFCURVE",
"123 64 OFFCURVE",
"120 64 CURVE SMOOTH",
"80 64 OFFCURVE",
"47 49 OFFCURVE",
"47 0 CURVE SMOOTH",
"47 -4 OFFCURVE",
"49 -6 OFFCURVE",
"52 -6 CURVE SMOOTH",
"67 -6 OFFCURVE",
"109 33 OFFCURVE",
"113 38 CURVE",
"190 6 OFFCURVE",
"328 -13 OFFCURVE",
"336 -13 CURVE SMOOTH",
"373 -13 OFFCURVE",
"449 11 OFFCURVE",
"449 51 CURVE SMOOTH",
"449 55 OFFCURVE",
"447 57 OFFCURVE",
"444 57 CURVE SMOOTH",
"440 57 OFFCURVE",
"436 54 OFFCURVE",
"434 48 CURVE SMOOTH",
"428 28 OFFCURVE",
"386 20 OFFCURVE",
"345 20 CURVE SMOOTH",
"301 20 OFFCURVE",
"241 47 OFFCURVE",
"154 61 CURVE",
"268 121 OFFCURVE",
"479 244 OFFCURVE",
"479 348 CURVE SMOOTH",
"479 403 OFFCURVE",
"420 436 OFFCURVE",
"339 436 CURVE SMOOTH",
"319 436 OFFCURVE",
"297 433 OFFCURVE",
"274 429 CURVE SMOOTH",
"240 423 OFFCURVE",
"137 384 OFFCURVE",
"137 335 CURVE SMOOTH",
"137 321 OFFCURVE",
"150 299 OFFCURVE",
"159 299 CURVE SMOOTH",
"162 299 OFFCURVE",
"164 302 OFFCURVE",
"164 306 CURVE SMOOTH",
"164 312 OFFCURVE",
"159 319 OFFCURVE",
"159 325 CURVE SMOOTH",
"159 363 OFFCURVE",
"250 395 OFFCURVE",
"273 401 CURVE SMOOTH",
"293 406 OFFCURVE",
"312 409 OFFCURVE",
"330 409 CURVE SMOOTH",
"386 409 OFFCURVE",
"424 383 OFFCURVE",
"424 340 CURVE SMOOTH",
"424 244 OFFCURVE",
"221 117 OFFCURVE",
"129 64 CURVE"
);
}
);
width = 467;
}
);
note = two;
unicode = 0032;
},
{
glyphname = three;
layers = (
{
hints = (
{
horizontal = 1;
place = "{18, 27}";
type = Stem;
},
{
horizontal = 1;
place = "{259, 21}";
type = Stem;
},
{
horizontal = 1;
place = "{342, 29}";
type = Stem;
},
{
horizontal = 1;
place = "{538, 40}";
type = Stem;
},
{
place = "{-63, 59}";
type = Stem;
},
{
place = "{428, 52}";
type = Stem;
}
);
layerId = "F07FC137-599D-4028-8184-32064863B81C";
paths = (
{
closed = 1;
nodes = (
"201 226 OFFCURVE",
"202 226 OFFCURVE",
"204 226 CURVE SMOOTH",
"223 226 OFFCURVE",
"247 234 OFFCURVE",
"274 235 CURVE",
"320 223 OFFCURVE",
"342 197 OFFCURVE",
"342 167 CURVE SMOOTH",
"342 72 OFFCURVE",
"236 -7 OFFCURVE",
"150 -7 CURVE SMOOTH",
"117 -7 OFFCURVE",
"67 9 OFFCURVE",
"64 55 CURVE SMOOTH",
"64 65 OFFCURVE",
"68 74 OFFCURVE",
"68 83 CURVE SMOOTH",
"68 90 OFFCURVE",
"62 95 OFFCURVE",
"54 95 CURVE SMOOTH",
"40 95 OFFCURVE",
"32 73 OFFCURVE",
"32 55 CURVE SMOOTH",
"32 -13 OFFCURVE",
"103 -22 OFFCURVE",
"149 -22 CURVE SMOOTH",
"252 -22 OFFCURVE",
"389 50 OFFCURVE",
"389 164 CURVE SMOOTH",
"389 210 OFFCURVE",
"357 239 OFFCURVE",
"316 241 CURVE",
"378 261 OFFCURVE",
"408 307 OFFCURVE",
"408 348 CURVE SMOOTH",
"408 406 OFFCURVE",
"353 432 OFFCURVE",
"294 432 CURVE SMOOTH",
"211 432 OFFCURVE",
"145 396 OFFCURVE",
"145 330 CURVE SMOOTH",
"145 325 OFFCURVE",
"147 323 OFFCURVE",
"150 323 CURVE SMOOTH",
"155 323 OFFCURVE",
"162 328 OFFCURVE",
"162 334 CURVE SMOOTH",
"162 385 OFFCURVE",
"239 407 OFFCURVE",
"280 407 CURVE SMOOTH",
"331 407 OFFCURVE",
"363 375 OFFCURVE",
"363 342 CURVE SMOOTH",
"363 296 OFFCURVE",
"304 254 OFFCURVE",
"240 254 CURVE SMOOTH",
"225 254 OFFCURVE",
"210 258 OFFCURVE",
"198 258 CURVE SMOOTH",
"186 258 OFFCURVE",
"180 251 OFFCURVE",
"180 243 CURVE SMOOTH",
"180 235 OFFCURVE",
"186 227 OFFCURVE",
"199 226 CURVE SMOOTH"
);
}
);
width = 433;
}
);
note = three;
unicode = 0033;
},
{
glyphname = four;
layers = (
{
hints = (
{
horizontal = 1;
place = "{211, 27}";
type = Stem;
},
{
horizontal = 1;
place = "{255, 40}";
type = Stem;
},
{
place = "{637, 41}";
type = Stem;
}
);
layerId = "F07FC137-599D-4028-8184-32064863B81C";
paths = (
{
closed = 1;
nodes = (
"204 -20 LINE SMOOTH",
"208 2 OFFCURVE",
"238 144 OFFCURVE",
"261 144 CURVE SMOOTH",
"304 144 OFFCURVE",
"408 174 OFFCURVE",
"408 231 CURVE SMOOTH",
"408 235 OFFCURVE",
"406 237 OFFCURVE",
"404 237 CURVE SMOOTH",
"400 237 OFFCURVE",
"395 233 OFFCURVE",
"393 226 CURVE SMOOTH",
"385 198 OFFCURVE",
"317 181 OFFCURVE",
"269 178 CURVE",
"307 263 OFFCURVE",
"353 347 OFFCURVE",
"388 418 CURVE",
"389 419 OFFCURVE",
"389 420 OFFCURVE",
"389 422 CURVE SMOOTH",
"389 432 OFFCURVE",
"368 447 OFFCURVE",
"358 447 CURVE SMOOTH",
"353 447 OFFCURVE",
"271 347 OFFCURVE",
"180 281 CURVE SMOOTH",
"74 204 OFFCURVE",
"8 171 OFFCURVE",
"8 131 CURVE SMOOTH",
"8 128 OFFCURVE",
"9 127 OFFCURVE",
"11 127 CURVE SMOOTH",
"24 127 OFFCURVE",
"43 158 OFFCURVE",
"85 158 CURVE SMOOTH",
"91 158 OFFCURVE",
"97 158 OFFCURVE",
"103 157 CURVE SMOOTH",
"224 145 LINE",
"198 73 OFFCURVE",
"177 6 OFFCURVE",
"177 -20 CURVE SMOOTH",
"177 -27 OFFCURVE",
"181 -29 OFFCURVE",
"186 -29 CURVE SMOOTH",
"193 -29 OFFCURVE",
"201 -25 OFFCURVE",
"204 -22 CURVE"
);
},
{
closed = 1;
nodes = (
"202 182 OFFCURVE",
"154 192 OFFCURVE",
"110 192 CURVE SMOOTH",
"103 192 OFFCURVE",
"96 191 OFFCURVE",
"89 191 CURVE",
"146 228 OFFCURVE",
"275 324 OFFCURVE",
"308 357 CURVE",
"298 333 OFFCURVE",
"266 257 OFFCURVE",
"237 179 CURVE"
);
}
);
width = 375;
}
);
note = four;
unicode = 0034;
},
{
glyphname = five;
layers = (
{
hints = (
{
horizontal = 1;
place = "{-7, 32}";
type = Stem;
},
{
horizontal = 1;
place = "{373, 29}";
type = Stem;
},
{
horizontal = 1;
place = "{493, 28}";
type = Stem;
},
{
horizontal = 1;
place = "{562, 20}";
type = Stem;
},
{
place = "{-66, 47}";
type = Stem;
},
{
place = "{467, 72}";
type = Stem;
},
{
place = "{657, 27}";
type = Stem;
}
);
layerId = "F07FC137-599D-4028-8184-32064863B81C";
paths = (
{
closed = 1;
nodes = (
"198 319 OFFCURVE",
"239 379 OFFCURVE",
"249 385 CURVE SMOOTH",
"278 402 OFFCURVE",
"395 403 OFFCURVE",
"458 403 CURVE SMOOTH",
"472 403 OFFCURVE",
"479 409 OFFCURVE",
"479 414 CURVE SMOOTH",
"479 430 OFFCURVE",
"398 429 OFFCURVE",
"353 429 CURVE SMOOTH",
"277 429 OFFCURVE",
"204 429 OFFCURVE",
"204 408 CURVE SMOOTH",
"204 400 OFFCURVE",
"211 390 OFFCURVE",
"215 382 CURVE",
"200 363 OFFCURVE",
"114 247 OFFCURVE",
"114 216 CURVE SMOOTH",
"114 211 OFFCURVE",
"117 209 OFFCURVE",
"121 209 CURVE SMOOTH",
"145 209 OFFCURVE",
"188 272 OFFCURVE",
"267 272 CURVE SMOOTH",
"314 272 OFFCURVE",
"359 252 OFFCURVE",
"359 197 CURVE SMOOTH",
"359 83 OFFCURVE",
"234 -5 OFFCURVE",
"132 -5 CURVE SMOOTH",
"94 -5 OFFCURVE",
"38 14 OFFCURVE",
"35 67 CURVE SMOOTH",
"35 77 OFFCURVE",
"40 89 OFFCURVE",
"40 99 CURVE SMOOTH",
"40 107 OFFCURVE",
"32 113 OFFCURVE",
"24 113 CURVE SMOOTH",
"6 113 OFFCURVE",
"-2 87 OFFCURVE",
"-2 67 CURVE SMOOTH",
"-2 -12 OFFCURVE",
"79 -23 OFFCURVE",
"134 -23 CURVE SMOOTH",
"254 -23 OFFCURVE",
"413 61 OFFCURVE",
"413 194 CURVE SMOOTH",
"413 271 OFFCURVE",
"336 290 OFFCURVE",
"276 290 CURVE SMOOTH",
"243 290 OFFCURVE",
"198 286 OFFCURVE",
"174 270 CURVE"
);
}
);
width = 438;
}
);
note = five;
unicode = 0035;
},
{
glyphname = six;
layers = (
{
hints = (
{
horizontal = 1;
place = "{-329, 46}";
type = Stem;
},
{
horizontal = 1;
place = "{1, 58}";
type = Stem;
},
{
place = "{50, 33}";
type = Stem;
},
{
place = "{424, 51}";
type = Stem;
}
);
layerId = "F07FC137-599D-4028-8184-32064863B81C";
paths = (
{
closed = 1;
nodes = (
"307 82 OFFCURVE",
"261 6 OFFCURVE",
"188 6 CURVE SMOOTH",
"121 6 OFFCURVE",
"99 50 OFFCURVE",
"99 103 CURVE SMOOTH",
"99 262 OFFCURVE",
"241 411 OFFCURVE",
"320 411 CURVE SMOOTH",
"351 411 OFFCURVE",
"390 397 OFFCURVE",
"390 344 CURVE SMOOTH",
"390 338 OFFCURVE",
"389 332 OFFCURVE",
"389 325 CURVE SMOOTH",
"389 323 OFFCURVE",
"392 321 OFFCURVE",
"396 321 CURVE SMOOTH",
"409 321 OFFCURVE",
"408 343 OFFCURVE",
"408 353 CURVE SMOOTH",
"408 415 OFFCURVE",
"364 434 OFFCURVE",
"324 434 CURVE SMOOTH",
"230 434 OFFCURVE",
"48 281 OFFCURVE",
"48 110 CURVE SMOOTH",
"48 41 OFFCURVE",
"82 -15 OFFCURVE",
"172 -15 CURVE SMOOTH",
"262 -15 OFFCURVE",
"358 70 OFFCURVE",
"358 164 CURVE SMOOTH",
"358 228 OFFCURVE",
"306 250 OFFCURVE",
"257 250 CURVE SMOOTH",
"222 250 OFFCURVE",
"166 224 OFFCURVE",
"166 204 CURVE SMOOTH",
"166 201 OFFCURVE",
"168 200 OFFCURVE",
"171 200 CURVE SMOOTH",
"174 200 OFFCURVE",
"177 201 OFFCURVE",
"179 203 CURVE SMOOTH",
"197 218 OFFCURVE",
"219 234 OFFCURVE",
"245 234 CURVE SMOOTH",
"278 234 OFFCURVE",
"316 215 OFFCURVE",
"316 162 CURVE SMOOTH",
"316 157 OFFCURVE",
"316 151 OFFCURVE",
"315 145 CURVE SMOOTH"
);
}
);
width = 413;
}
);
note = six;
unicode = 0036;
},
{
glyphname = seven;
layers = (
{
hints = (
{
horizontal = 1;
place = "{535, 44}";
type = Stem;
},
{
place = "{106, 32}";
type = Stem;
}
);
layerId = "F07FC137-599D-4028-8184-32064863B81C";
paths = (
{
closed = 1;
nodes = (
"330 327 OFFCURVE",
"87 33 OFFCURVE",
"87 0 CURVE SMOOTH",
"87 -6 OFFCURVE",
"93 -8 OFFCURVE",
"102 -8 CURVE SMOOTH",
"115 -8 OFFCURVE",
"133 -3 OFFCURVE",
"139 2 CURVE",
"222 144 OFFCURVE",
"308 260 OFFCURVE",
"423 385 CURVE SMOOTH",
"437 400 OFFCURVE",
"457 404 OFFCURVE",
"456 424 CURVE SMOOTH",
"456 434 OFFCURVE",
"452 438 OFFCURVE",
"446 438 CURVE SMOOTH",
"435 438 OFFCURVE",
"418 424 OFFCURVE",
"411 413 CURVE",
"392 417 OFFCURVE",
"250 428 OFFCURVE",
"229 429 CURVE SMOOTH",
"225 429 OFFCURVE",
"220 429 OFFCURVE",
"216 429 CURVE SMOOTH",
"145 429 OFFCURVE",
"103 411 OFFCURVE",
"87 326 CURVE",
"87 321 OFFCURVE",
"89 317 OFFCURVE",
"93 317 CURVE SMOOTH",
"96 317 OFFCURVE",
"99 319 OFFCURVE",
"101 327 CURVE SMOOTH",
"112 368 OFFCURVE",
"144 395 OFFCURVE",
"230 395 CURVE SMOOTH",
"284 395 OFFCURVE",
"338 392 OFFCURVE",
"385 384 CURVE"
);
}
);
width = 359;
}
);
note = seven;
unicode = 0037;
},
{
glyphname = eight;
layers = (
{
hints = (
{
horizontal = 1;
place = "{-23, 22}";
type = Stem;
},
{
horizontal = 1;
place = "{529, 32}";
type = Stem;
},
{
place = "{403, 48}";
type = Stem;
}
);
layerId = "F07FC137-599D-4028-8184-32064863B81C";
paths = (
{
closed = 1;
nodes = (
"205 281 OFFCURVE",
"167 295 OFFCURVE",
"164 340 CURVE SMOOTH",
"162 402 OFFCURVE",
"229 420 OFFCURVE",
"277 420 CURVE SMOOTH",
"323 420 OFFCURVE",
"364 399 OFFCURVE",
"364 357 CURVE SMOOTH",
"364 304 OFFCURVE",
"302 266 OFFCURVE",
"261 250 CURVE"
);
},
{
closed = 1;
nodes = (
"291 185 OFFCURVE",
"319 162 OFFCURVE",
"321 120 CURVE SMOOTH",
"324 59 OFFCURVE",
"253 2 OFFCURVE",
"156 13 CURVE SMOOTH",
"112 19 OFFCURVE",
"74 36 OFFCURVE",
"69 78 CURVE SMOOTH",
"60 140 OFFCURVE",
"151 195 OFFCURVE",
"220 220 CURVE"
);
},
{
closed = 1;
nodes = (
"332 263 OFFCURVE",
"407 297 OFFCURVE",
"404 366 CURVE SMOOTH",
"402 403 OFFCURVE",
"367 430 OFFCURVE",
"310 438 CURVE SMOOTH",
"224 449 OFFCURVE",
"122 415 OFFCURVE",
"126 323 CURVE SMOOTH",
"128 272 OFFCURVE",
"162 246 OFFCURVE",
"199 229 CURVE",
"126 205 OFFCURVE",
"24 147 OFFCURVE",
"32 59 CURVE SMOOTH",
"36 8 OFFCURVE",
"87 -8 OFFCURVE",
"130 -13 CURVE SMOOTH",
"214 -23 OFFCURVE",
"369 29 OFFCURVE",
"364 140 CURVE SMOOTH",
"362 187 OFFCURVE",
"320 217 OFFCURVE",
"279 242 CURVE"
);
}
);
width = 418;
}
);
note = eight;
unicode = 0038;
},
{
glyphname = nine;
layers = (
{
hints = (
{
horizontal = 1;
place = "{520, 44}";
type = Stem;
},
{
place = "{106, 44}";
type = Stem;
}
);
layerId = "F07FC137-599D-4028-8184-32064863B81C";
paths = (
{
closed = 1;
nodes = (
"134 341 OFFCURVE",
"180 417 OFFCURVE",
"253 417 CURVE SMOOTH",
"320 417 OFFCURVE",
"342 373 OFFCURVE",
"342 319 CURVE SMOOTH",
"342 163 OFFCURVE",
"203 11 OFFCURVE",
"121 11 CURVE SMOOTH",
"90 11 OFFCURVE",
"50 24 OFFCURVE",
"50 77 CURVE SMOOTH",
"50 84 OFFCURVE",
"52 90 OFFCURVE",
"52 97 CURVE SMOOTH",
"52 100 OFFCURVE",
"48 102 OFFCURVE",
"44 102 CURVE SMOOTH",
"31 102 OFFCURVE",
"33 79 OFFCURVE",
"33 70 CURVE SMOOTH",
"33 7 OFFCURVE",
"77 -12 OFFCURVE",
"117 -12 CURVE SMOOTH",
"210 -12 OFFCURVE",
"393 139 OFFCURVE",
"393 313 CURVE SMOOTH",
"393 381 OFFCURVE",
"359 438 OFFCURVE",
"269 438 CURVE SMOOTH",
"177 438 OFFCURVE",
"83 352 OFFCURVE",
"83 259 CURVE SMOOTH",
"83 195 OFFCURVE",
"135 173 OFFCURVE",
"184 173 CURVE SMOOTH",
"220 173 OFFCURVE",
"275 199 OFFCURVE",
"275 218 CURVE SMOOTH",
"275 221 OFFCURVE",
"273 223 OFFCURVE",
"270 223 CURVE SMOOTH",
"267 223 OFFCURVE",
"264 222 OFFCURVE",
"262 220 CURVE SMOOTH",
"242 204 OFFCURVE",
"222 189 OFFCURVE",
"196 189 CURVE SMOOTH",
"162 189 OFFCURVE",
"125 208 OFFCURVE",
"125 260 CURVE SMOOTH",
"125 265 OFFCURVE",
"125 271 OFFCURVE",
"126 277 CURVE SMOOTH"
);
}
);
width = 398;
}
);
note = nine;
unicode = 0039;
},
{
glyphname = colon;
layers = (
{
hints = (
{
horizontal = 1;
place = "{0, 49}";
type = Stem;
},
{
horizontal = 1;
place = "{127, 49}";
type = Stem;
},
{
place = "{75, 49}";
type = Stem;
}
);
layerId = "F07FC137-599D-4028-8184-32064863B81C";
paths = (
{
closed = 1;
nodes = (
"124 19 OFFCURVE",
"124 23 OFFCURVE",
"124 27 CURVE SMOOTH",
"124 33 OFFCURVE",
"123 39 OFFCURVE",
"118 39 CURVE SMOOTH",
"114 39 OFFCURVE",
"107 35 OFFCURVE",
"96 27 CURVE SMOOTH",
"91 23 OFFCURVE",
"63 -2 OFFCURVE",
"63 -7 CURVE SMOOTH",
"63 -23 OFFCURVE",
"83 -23 OFFCURVE",
"97 -23 CURVE SMOOTH",
"106 -23 OFFCURVE",
"124 7 OFFCURVE",
"124 15 CURVE SMOOTH"
);
},
{
closed = 1;
nodes = (
"176 177 OFFCURVE",
"176 180 OFFCURVE",
"176 184 CURVE SMOOTH",
"176 191 OFFCURVE",
"175 196 OFFCURVE",
"170 196 CURVE SMOOTH",
"166 196 OFFCURVE",
"158 193 OFFCURVE",
"147 184 CURVE SMOOTH",
"142 180 OFFCURVE",
"114 155 OFFCURVE",
"114 152 CURVE SMOOTH",
"114 135 OFFCURVE",
"134 135 OFFCURVE",
"148 135 CURVE SMOOTH",
"157 135 OFFCURVE",
"176 164 OFFCURVE",
"176 173 CURVE SMOOTH"
);
}
);
width = 129;
}
);
note = colon;
unicode = 003A;
},
{
glyphname = semicolon;
layers = (
{
hints = (
{
horizontal = 1;
place = "{-86, 20}";
type = Stem;
}
);
layerId = "F07FC137-599D-4028-8184-32064863B81C";
paths = (
{
closed = 1;
nodes = (
"134 21 OFFCURVE",
"120 43 OFFCURVE",
"94 43 CURVE SMOOTH",
"82 43 OFFCURVE",
"65 40 OFFCURVE",
"65 18 CURVE SMOOTH",
"65 5 OFFCURVE",
"75 1 OFFCURVE",
"75 -16 CURVE SMOOTH",
"75 -80 OFFCURVE",
"-13 -156 OFFCURVE",
"-13 -165 CURVE SMOOTH",
"-13 -169 OFFCURVE",
"-13 -176 OFFCURVE",
"-8 -176 CURVE SMOOTH",
"-4 -176 OFFCURVE",
"33 -149 OFFCURVE",
"79 -88 CURVE SMOOTH",
"107 -55 OFFCURVE",
"134 -15 OFFCURVE",
"134 2 CURVE SMOOTH"
);
},
{
closed = 1;
nodes = (
"203 225 OFFCURVE",
"203 230 OFFCURVE",
"203 234 CURVE SMOOTH",
"203 243 OFFCURVE",
"202 251 OFFCURVE",
"195 251 CURVE SMOOTH",
"190 251 OFFCURVE",
"181 246 OFFCURVE",
"167 235 CURVE SMOOTH",
"160 230 OFFCURVE",
"125 199 OFFCURVE",
"125 194 CURVE SMOOTH",
"125 174 OFFCURVE",
"150 174 OFFCURVE",
"168 174 CURVE SMOOTH",
"179 174 OFFCURVE",
"203 210 OFFCURVE",
"203 220 CURVE SMOOTH"
);
}
);
width = 133;
}
);
note = semicolon;
unicode = 003B;
},
{
glyphname = less;
layers = (
{
hints = (
{
horizontal = 1;
place = "{23, 364}";
type = Stem;
},
{
place = "{63, 127}";
type = Stem;
}
);
layerId = "F07FC137-599D-4028-8184-32064863B81C";
paths = (
{
closed = 1;
nodes = (
"70 180 OFFCURVE",
"62 174 OFFCURVE",
"62 167 CURVE SMOOTH",
"62 159 OFFCURVE",
"181 23 OFFCURVE",
"182 23 CURVE SMOOTH",
"187 23 OFFCURVE",
"190 27 OFFCURVE",
"190 36 CURVE SMOOTH",
"190 53 OFFCURVE",
"166 99 OFFCURVE",
"120 185 CURVE",
"239 298 OFFCURVE",
"301 363 OFFCURVE",
"301 381 CURVE SMOOTH",
"301 385 OFFCURVE",
"299 387 OFFCURVE",
"296 387 CURVE SMOOTH",
"294 387 OFFCURVE",
"291 386 OFFCURVE",
"289 384 CURVE SMOOTH",
"217 324 OFFCURVE",
"150 256 OFFCURVE",
"82 192 CURVE SMOOTH"
);
}
);
width = 303;
}
);
note = less;
unicode = 003C;
},
{
glyphname = equal;
layers = (
{
hints = (
{
horizontal = 1;
place = "{77, 30}";
type = Stem;
},
{
horizontal = 1;
place = "{192, 30}";
type = Stem;
},
{
place = "{108, 323}";
type = Stem;
}
);
layerId = "F07FC137-599D-4028-8184-32064863B81C";
paths = (
{
closed = 1;
nodes = (
"374 86 OFFCURVE",
"409 87 OFFCURVE",
"409 97 CURVE SMOOTH",
"409 103 OFFCURVE",
"392 107 OFFCURVE",
"366 107 CURVE SMOOTH",
"133 107 LINE SMOOTH",
"123 107 OFFCURVE",
"108 94 OFFCURVE",
"108 85 CURVE SMOOTH",
"108 79 OFFCURVE",
"112 77 OFFCURVE",
"126 77 CURVE SMOOTH",
"153 77 OFFCURVE",
"329 83 OFFCURVE",
"367 85 CURVE SMOOTH"
);
},
{
closed = 1;
nodes = (
"395 200 OFFCURVE",
"431 202 OFFCURVE",
"431 212 CURVE SMOOTH",
"431 217 OFFCURVE",
"414 222 OFFCURVE",
"388 222 CURVE SMOOTH",
"355 222 OFFCURVE",
"172 221 OFFCURVE",
"155 221 CURVE SMOOTH",
"144 221 OFFCURVE",
"129 208 OFFCURVE",
"129 200 CURVE SMOOTH",
"129 194 OFFCURVE",
"134 192 OFFCURVE",
"148 192 CURVE SMOOTH",
"175 192 OFFCURVE",
"351 197 OFFCURVE",
"388 199 CURVE SMOOTH"
);
}
);
width = 431;
}
);
note = equal;
unicode = 003D;
},
{
glyphname = greater;
layers = (
{
hints = (
{
horizontal = 1;
place = "{226, -20}";
target = down;
type = TopGhost;
},
{
place = "{66, 239}";
type = Stem;
}
);
layerId = "F07FC137-599D-4028-8184-32064863B81C";
paths = (
{
closed = 1;
nodes = (
"297 231 OFFCURVE",
"305 236 OFFCURVE",
"305 243 CURVE SMOOTH",
"305 253 OFFCURVE",
"186 388 OFFCURVE",
"185 388 CURVE SMOOTH",
"181 388 OFFCURVE",
"178 384 OFFCURVE",
"178 376 CURVE SMOOTH",
"178 360 OFFCURVE",
"202 311 OFFCURVE",
"247 226 CURVE",
"128 113 OFFCURVE",
"65 48 OFFCURVE",
"65 30 CURVE SMOOTH",
"65 26 OFFCURVE",
"68 24 OFFCURVE",
"71 24 CURVE SMOOTH",
"73 24 OFFCURVE",
"76 25 OFFCURVE",
"78 27 CURVE SMOOTH",
"150 87 OFFCURVE",
"217 155 OFFCURVE",
"285 220 CURVE SMOOTH"
);
}
);
width = 318;
}
);
note = greater;
unicode = 003E;
},
{
glyphname = question;
layers = (
{
hints = (
{
horizontal = 1;
place = "{496, 49}";
type = Stem;
},
{
place = "{91, 32}";
type = Stem;
},
{
place = "{159, 55}";
type = Stem;
},
{
place = "{471, 42}";
type = Stem;
}
);
layerId = "F07FC137-599D-4028-8184-32064863B81C";
paths = (
{
closed = 1;
nodes = (
"114 413 OFFCURVE",
"98 425 OFFCURVE",
"98 354 CURVE SMOOTH",
"98 343 OFFCURVE",
"100 339 OFFCURVE",
"103 339 CURVE SMOOTH",
"130 339 OFFCURVE",
"171 453 OFFCURVE",
"258 453 CURVE SMOOTH",
"293 453 OFFCURVE",
"314 423 OFFCURVE",
"314 386 CURVE SMOOTH",
"314 304 OFFCURVE",
"277 270 OFFCURVE",
"220 221 CURVE SMOOTH",
"184 190 OFFCURVE",
"141 153 OFFCURVE",
"141 122 CURVE SMOOTH",
"141 117 OFFCURVE",
"144 114 OFFCURVE",
"148 114 CURVE SMOOTH",
"152 114 OFFCURVE",
"157 117 OFFCURVE",
"158 122 CURVE SMOOTH",
"173 196 OFFCURVE",
"366 243 OFFCURVE",
"366 374 CURVE SMOOTH",
"366 444 OFFCURVE",
"317 467 OFFCURVE",
"268 467 CURVE SMOOTH",
"237 467 OFFCURVE",
"204 458 OFFCURVE",
"180 446 CURVE SMOOTH"
);
},
{
closed = 1;
nodes = (
"124 34 OFFCURVE",
"124 37 OFFCURVE",
"124 40 CURVE SMOOTH",
"124 45 OFFCURVE",
"123 49 OFFCURVE",
"119 49 CURVE SMOOTH",
"116 49 OFFCURVE",
"110 47 OFFCURVE",
"101 40 CURVE SMOOTH",
"97 37 OFFCURVE",
"75 17 OFFCURVE",
"75 13 CURVE SMOOTH",
"75 0 OFFCURVE",
"91 0 OFFCURVE",
"102 0 CURVE SMOOTH",
"109 0 OFFCURVE",
"124 24 OFFCURVE",
"124 31 CURVE SMOOTH"
);
}
);
width = 378;
}
);
note = question;
unicode = 003F;
},
{
glyphname = at;
layers = (
{
hints = (
{
horizontal = 1;
place = "{-30, 14}";
type = Stem;
},
{
horizontal = 1;
place = "{112, 15}";
type = Stem;
},
{
horizontal = 1;
place = "{345, 23}";
type = Stem;
},
{
horizontal = 1;
place = "{463, 26}";
type = Stem;
},
{
place = "{10, 41}";
type = Stem;
},
{
place = "{131, 37}";
type = Stem;
},
{
place = "{568, 21}";
type = Stem;
}
);
layerId = "F07FC137-599D-4028-8184-32064863B81C";
paths = (
{
closed = 1;
nodes = (
"387 133 OFFCURVE",
"382 144 OFFCURVE",
"382 159 CURVE SMOOTH",
"382 181 OFFCURVE",
"397 241 OFFCURVE",
"434 293 CURVE SMOOTH",
"435 294 OFFCURVE",
"435 295 OFFCURVE",
"435 297 CURVE SMOOTH",
"435 308 OFFCURVE",
"407 313 OFFCURVE",
"400 313 CURVE SMOOTH",
"393 313 OFFCURVE",
"330 242 OFFCURVE",
"318 229 CURVE SMOOTH",
"278 186 OFFCURVE",
"220 127 OFFCURVE",
"184 127 CURVE SMOOTH",
"171 127 OFFCURVE",
"167 140 OFFCURVE",
"167 151 CURVE SMOOTH",
"167 191 OFFCURVE",
"220 253 OFFCURVE",
"240 272 CURVE SMOOTH",
"283 311 OFFCURVE",
"341 345 OFFCURVE",
"385 345 CURVE SMOOTH",
"400 345 OFFCURVE",
"417 343 OFFCURVE",
"426 329 CURVE SMOOTH",
"427 328 OFFCURVE",
"428 327 OFFCURVE",
"429 327 CURVE SMOOTH",
"431 327 OFFCURVE",
"432 329 OFFCURVE",
"432 333 CURVE SMOOTH",
"432 356 OFFCURVE",
"398 368 OFFCURVE",
"370 368 CURVE SMOOTH",
"357 368 OFFCURVE",
"344 366 OFFCURVE",
"334 363 CURVE SMOOTH",
"279 348 OFFCURVE",
"131 252 OFFCURVE",
"131 175 CURVE SMOOTH",
"131 140 OFFCURVE",
"167 112 OFFCURVE",
"196 112 CURVE SMOOTH",
"263 112 OFFCURVE",
"342 230 OFFCURVE",
"357 237 CURVE",
"348 214 OFFCURVE",
"341 178 OFFCURVE",
"341 153 CURVE SMOOTH",
"341 112 OFFCURVE",
"367 102 OFFCURVE",
"389 102 CURVE SMOOTH",
"475 102 OFFCURVE",
"570 240 OFFCURVE",
"570 340 CURVE SMOOTH",
"570 430 OFFCURVE",
"497 489 OFFCURVE",
"377 489 CURVE SMOOTH",
"192 489 OFFCURVE",
"10 328 OFFCURVE",
"10 154 CURVE SMOOTH",
"10 56 OFFCURVE",
"85 -30 OFFCURVE",
"244 -30 CURVE SMOOTH",
"400 -30 OFFCURVE",
"589 77 OFFCURVE",
"589 195 CURVE SMOOTH",
"589 217 OFFCURVE",
"577 256 OFFCURVE",
"561 256 CURVE SMOOTH",
"558 256 OFFCURVE",
"555 254 OFFCURVE",
"555 251 CURVE SMOOTH",
"555 248 OFFCURVE",
"568 236 OFFCURVE",
"568 219 CURVE SMOOTH",
"568 137 OFFCURVE",
"409 -16 OFFCURVE",
"243 -16 CURVE SMOOTH",
"105 -14 OFFCURVE",
"51 59 OFFCURVE",
"51 147 CURVE SMOOTH",
"51 316 OFFCURVE",
"216 463 OFFCURVE",
"375 463 CURVE SMOOTH",
"475 463 OFFCURVE",
"540 412 OFFCURVE",
"540 337 CURVE SMOOTH",
"540 280 OFFCURVE",
"515 220 OFFCURVE",
"479 176 CURVE SMOOTH",
"468 162 OFFCURVE",
"431 124 OFFCURVE",
"406 124 CURVE SMOOTH",
"401 124 OFFCURVE",
"397 125 OFFCURVE",
"394 128 CURVE SMOOTH"
);
}
);
width = 602;
}
);
note = at;
unicode = 0040;
},
{
glyphname = A;
layers = (
{
hints = (
{
horizontal = 1;
place = "{-57, 21}";
type = Stem;
},
{
horizontal = 1;
place = "{179, 24}";
type = Stem;
},
{
horizontal = 1;
place = "{435, 13}";
type = Stem;
},
{
place = "{1, 20}";
type = Stem;
},
{
place = "{35, 31}";
type = Stem;
},
{
place = "{376, 44}";
type = Stem;
}
);
layerId = "F07FC137-599D-4028-8184-32064863B81C";
paths = (
{
closed = 1;
nodes = (
"417 444 OFFCURVE",
"383 449 OFFCURVE",
"372 449 CURVE SMOOTH",
"304 449 OFFCURVE",
"127 273 OFFCURVE",
"85 208 CURVE",
"58 203 OFFCURVE",
"36 206 OFFCURVE",
"36 189 CURVE SMOOTH",
"36 182 OFFCURVE",
"41 177 OFFCURVE",
"52 177 CURVE SMOOTH",
"67 177 LINE",
"42 137 OFFCURVE",
"3 67 OFFCURVE",
"3 16 CURVE SMOOTH",
"3 11 OFFCURVE",
"5 -19 OFFCURVE",
"21 -19 CURVE SMOOTH",
"24 -19 OFFCURVE",
"24 -14 OFFCURVE",
"25 -12 CURVE",
"25 27 OFFCURVE",
"73 161 OFFCURVE",
"104 180 CURVE",
"118 180 OFFCURVE",
"149 180 OFFCURVE",
"176 180 CURVE SMOOTH",
"229 180 OFFCURVE",
"296 181 OFFCURVE",
"332 186 CURVE",
"319 121 OFFCURVE",
"305 57 OFFCURVE",
"295 11 CURVE",
"295 11 OFFCURVE",
"295 10 OFFCURVE",
"295 10 CURVE",
"295 4 OFFCURVE",
"302 -5 OFFCURVE",
"311 -5 CURVE SMOOTH",
"314 -5 OFFCURVE",
"316 -4 OFFCURVE",
"317 0 CURVE SMOOTH",
"342 107 OFFCURVE",
"420 371 OFFCURVE",
"420 423 CURVE SMOOTH",
"420 425 OFFCURVE",
"420 427 OFFCURVE",
"420 428 CURVE SMOOTH"
);
},
{
closed = 1;
nodes = (
"266 204 OFFCURVE",
"146 206 OFFCURVE",
"113 206 CURVE",
"177 299 OFFCURVE",
"283 391 OFFCURVE",
"375 426 CURVE",
"375 400 OFFCURVE",
"356 306 OFFCURVE",
"336 204 CURVE"
);
}
);
width = 376;
}
);
note = A;
unicode = 0041;
},
{
glyphname = B;
layers = (
{
hints = (
{
horizontal = 1;
place = "{-19, 23}";
type = Stem;
},
{
horizontal = 1;
place = "{203, 20}";
type = Stem;
},
{
horizontal = 1;
place = "{409, 33}";
type = Stem;
},
{
place = "{395, 25}";
type = Stem;
}
);
layerId = "F07FC137-599D-4028-8184-32064863B81C";
paths = (
{
closed = 1;
nodes = (
"369 187 OFFCURVE",
"283 223 OFFCURVE",
"216 224 CURVE",
"278 232 OFFCURVE",
"421 269 OFFCURVE",
"421 346 CURVE SMOOTH",
"421 425 OFFCURVE",
"273 444 OFFCURVE",
"179 444 CURVE SMOOTH",
"146 444 OFFCURVE",
"82 442 OFFCURVE",
"82 415 CURVE SMOOTH",
"82 410 OFFCURVE",
"90 406 OFFCURVE",
"114 406 CURVE SMOOTH",
"131 406 OFFCURVE",
"157 409 OFFCURVE",
"180 409 CURVE",
"155 377 OFFCURVE",
"14 53 OFFCURVE",
"14 5 CURVE",
"3 7 LINE SMOOTH",
"2 7 OFFCURVE",
"1 7 OFFCURVE",
"0 7 CURVE SMOOTH",
"-5 7 OFFCURVE",
"-7 4 OFFCURVE",
"-7 0 CURVE SMOOTH",
"-7 -23 OFFCURVE",
"47 -20 OFFCURVE",
"70 -20 CURVE SMOOTH",
"149 -20 OFFCURVE",
"369 16 OFFCURVE",
"369 123 CURVE SMOOTH"
);
},
{
closed = 1;
nodes = (
"328 125 OFFCURVE",
"328 122 OFFCURVE",
"328 120 CURVE SMOOTH",
"328 46 OFFCURVE",
"165 5 OFFCURVE",
"45 5 CURVE",
"59 83 OFFCURVE",
"97 164 OFFCURVE",
"116 204 CURVE",
"121 204 OFFCURVE",
"127 204 OFFCURVE",
"134 204 CURVE SMOOTH",
"198 204 OFFCURVE",
"315 193 OFFCURVE",
"328 127 CURVE"
);
},
{
closed = 1;
nodes = (
"384 385 OFFCURVE",
"396 369 OFFCURVE",
"396 351 CURVE SMOOTH",
"396 257 OFFCURVE",
"159 234 OFFCURVE",
"127 234 CURVE",
"149 277 OFFCURVE",
"218 382 OFFCURVE",
"217 392 CURVE SMOOTH",
"216 398 OFFCURVE",
"210 404 OFFCURVE",
"205 409 CURVE",
"210 409 OFFCURVE",
"217 410 OFFCURVE",
"226 410 CURVE SMOOTH",
"260 410 OFFCURVE",
"314 406 OFFCURVE",
"355 394 CURVE SMOOTH"
);
}
);
width = 377;
}
);
note = B;
unicode = 0042;
},
{
glyphname = C;
layers = (
{
hints = (
{
horizontal = 1;
place = "{-21, 15}";
type = Stem;
},
{
horizontal = 1;
place = "{434, 16}";
type = Stem;
},
{
place = "{20, 43}";
type = Stem;
},
{
place = "{397, 31}";
type = Stem;
}
);
layerId = "F07FC137-599D-4028-8184-32064863B81C";
paths = (
{
closed = 1;
nodes = (
"448 138 OFFCURVE",
"442 150 OFFCURVE",
"433 138 CURVE SMOOTH",
"363 43 OFFCURVE",
"246 -5 OFFCURVE",
"176 -5 CURVE SMOOTH",
"108 -5 OFFCURVE",
"64 36 OFFCURVE",
"64 107 CURVE SMOOTH",
"64 232 OFFCURVE",
"218 435 OFFCURVE",
"337 435 CURVE SMOOTH",
"365 435 OFFCURVE",
"398 418 OFFCURVE",
"398 387 CURVE SMOOTH",
"398 370 OFFCURVE",
"390 352 OFFCURVE",
"377 340 CURVE",
"358 327 LINE SMOOTH",
"357 326 OFFCURVE",
"357 325 OFFCURVE",
"357 324 CURVE SMOOTH",
"357 321 OFFCURVE",
"360 319 OFFCURVE",
"366 319 CURVE SMOOTH",
"377 319 OFFCURVE",
"428 338 OFFCURVE",
"428 389 CURVE SMOOTH",
"428 442 OFFCURVE",
"376 451 OFFCURVE",
"342 451 CURVE SMOOTH",
"191 451 OFFCURVE",
"21 255 OFFCURVE",
"21 118 CURVE SMOOTH",
"21 23 OFFCURVE",
"98 -20 OFFCURVE",
"170 -20 CURVE SMOOTH",
"274 -20 OFFCURVE",
"384 42 OFFCURVE",
"442 129 CURVE SMOOTH"
);
}
);
width = 383;
}
);
note = C;
unicode = 0043;
},
{
glyphname = D;
layers = (
{
hints = (
{
horizontal = 1;
place = "{-9, 17}";
type = Stem;
},
{
horizontal = 1;
place = "{422, 24}";
type = Stem;
},
{
place = "{438, 39}";
type = Stem;
}
);
layerId = "F07FC137-599D-4028-8184-32064863B81C";
paths = (
{
closed = 1;
nodes = (
"477 360 OFFCURVE",
"397 447 OFFCURVE",
"224 447 CURVE SMOOTH",
"152 447 OFFCURVE",
"75 438 OFFCURVE",
"75 415 CURVE SMOOTH",
"75 406 OFFCURVE",
"88 396 OFFCURVE",
"99 396 CURVE SMOOTH",
"100 396 OFFCURVE",
"102 397 OFFCURVE",
"103 397 CURVE",
"154 412 OFFCURVE",
"209 422 OFFCURVE",
"260 422 CURVE SMOOTH",
"393 422 OFFCURVE",
"439 353 OFFCURVE",
"439 277 CURVE SMOOTH",
"439 125 OFFCURVE",
"278 8 OFFCURVE",
"148 8 CURVE SMOOTH",
"115 8 OFFCURVE",
"85 15 OFFCURVE",
"60 31 CURVE",
"90 159 OFFCURVE",
"153 252 OFFCURVE",
"213 371 CURVE",
"213 372 OFFCURVE",
"213 373 OFFCURVE",
"213 373 CURVE",
"213 382 OFFCURVE",
"193 391 OFFCURVE",
"180 391 CURVE SMOOTH",
"162 391 OFFCURVE",
"70 178 OFFCURVE",
"34 53 CURVE",
"28 57 OFFCURVE",
"23 68 OFFCURVE",
"18 68 CURVE SMOOTH",
"14 68 OFFCURVE",
"12 63 OFFCURVE",
"12 56 CURVE SMOOTH",
"12 46 OFFCURVE",
"18 34 OFFCURVE",
"27 27 CURVE",
"25 17 OFFCURVE",
"24 10 OFFCURVE",
"24 5 CURVE SMOOTH",
"25 0 OFFCURVE",
"29 -1 OFFCURVE",
"35 -1 CURVE SMOOTH",
"43 -1 OFFCURVE",
"52 2 OFFCURVE",
"55 5 CURVE",
"56 8 LINE",
"82 -4 OFFCURVE",
"117 -9 OFFCURVE",
"150 -9 CURVE SMOOTH",
"300 -9 OFFCURVE",
"477 97 OFFCURVE",
"477 264 CURVE SMOOTH"
);
}
);
width = 454;
}
);
note = D;
unicode = 0044;
},
{
glyphname = E;
layers = (
{
hints = (
{
horizontal = 1;
place = "{-20, 27}";
type = Stem;
},
{
horizontal = 1;
place = "{176, 29}";
type = Stem;
},
{
horizontal = 1;
place = "{422, 13}";
type = Stem;
},
{
place = "{28, 43}";
type = Stem;
},
{
place = "{337, 13}";
type = Stem;
}
);
layerId = "F07FC137-599D-4028-8184-32064863B81C";
paths = (
{
closed = 1;
nodes = (
"419 421 OFFCURVE",
"420 424 OFFCURVE",
"420 427 CURVE SMOOTH",
"420 434 OFFCURVE",
"412 438 OFFCURVE",
"402 438 CURVE SMOOTH",
"398 438 OFFCURVE",
"395 438 OFFCURVE",
"391 436 CURVE",
"364 439 OFFCURVE",
"334 440 OFFCURVE",
"305 440 CURVE SMOOTH",
"227 440 OFFCURVE",
"141 437 OFFCURVE",
"141 407 CURVE SMOOTH",
"141 398 OFFCURVE",
"147 396 OFFCURVE",
"154 396 CURVE SMOOTH",
"158 396 OFFCURVE",
"163 396 OFFCURVE",
"168 396 CURVE SMOOTH",
"172 396 OFFCURVE",
"175 396 OFFCURVE",
"177 393 CURVE",
"151 361 OFFCURVE",
"88 262 OFFCURVE",
"61 206 CURVE",
"44 206 LINE SMOOTH",
"27 206 OFFCURVE",
"19 197 OFFCURVE",
"19 189 CURVE SMOOTH",
"19 182 OFFCURVE",
"24 177 OFFCURVE",
"35 177 CURVE SMOOTH",
"49 177 LINE",
"37 145 OFFCURVE",
"28 110 OFFCURVE",
"28 79 CURVE SMOOTH",
"28 24 OFFCURVE",
"55 -19 OFFCURVE",
"138 -19 CURVE SMOOTH",
"276 -19 OFFCURVE",
"382 52 OFFCURVE",
"429 109 CURVE SMOOTH",
"430 110 OFFCURVE",
"431 113 OFFCURVE",
"431 115 CURVE SMOOTH",
"431 119 OFFCURVE",
"428 124 OFFCURVE",
"425 124 CURVE SMOOTH",
"424 124 OFFCURVE",
"423 123 OFFCURVE",
"422 122 CURVE SMOOTH",
"363 53 OFFCURVE",
"251 7 OFFCURVE",
"160 7 CURVE SMOOTH",
"92 7 OFFCURVE",
"72 51 OFFCURVE",
"72 99 CURVE SMOOTH",
"72 126 OFFCURVE",
"79 156 OFFCURVE",
"87 179 CURVE",
"173 181 OFFCURVE",
"272 187 OFFCURVE",
"272 197 CURVE SMOOTH",
"272 207 OFFCURVE",
"146 206 OFFCURVE",
"99 206 CURVE",
"122 254 OFFCURVE",
"192 384 OFFCURVE",
"211 395 CURVE SMOOTH",
"237 410 OFFCURVE",
"311 420 OFFCURVE",
"372 423 CURVE",
"344 395 OFFCURVE",
"337 370 OFFCURVE",
"337 341 CURVE SMOOTH",
"337 315 OFFCURVE",
"346 310 OFFCURVE",
"352 310 CURVE SMOOTH",
"355 310 OFFCURVE",
"357 312 OFFCURVE",
"357 315 CURVE SMOOTH",
"357 321 OFFCURVE",
"351 328 OFFCURVE",
"351 335 CURVE SMOOTH",
"351 370 OFFCURVE",
"397 401 OFFCURVE",
"415 417 CURVE SMOOTH"
);
}
);
width = 420;
}
);
note = E;
unicode = 0045;
},
{
glyphname = F;
layers = (
{
hints = (
{
horizontal = 1;
place = "{176, 29}";
type = Stem;
},
{
horizontal = 1;
place = "{387, 34}";
type = Stem;
},
{
horizontal = 1;
place = "{423, 17}";
type = Stem;
},
{
place = "{345, 13}";
type = Stem;
}
);
layerId = "F07FC137-599D-4028-8184-32064863B81C";
paths = (
{
closed = 1;
nodes = (
"306 196 OFFCURVE",
"306 196 OFFCURVE",
"306 197 CURVE SMOOTH",
"306 207 OFFCURVE",
"175 206 OFFCURVE",
"127 206 CURVE",
"153 260 OFFCURVE",
"183 312 OFFCURVE",
"213 371 CURVE",
"213 372 OFFCURVE",
"213 373 OFFCURVE",
"213 373 CURVE",
"213 382 OFFCURVE",
"193 391 OFFCURVE",
"180 391 CURVE SMOOTH",
"165 391 OFFCURVE",
"131 314 OFFCURVE",
"89 206 CURVE",
"78 206 LINE SMOOTH",
"61 206 OFFCURVE",
"53 197 OFFCURVE",
"53 189 CURVE SMOOTH",
"53 182 OFFCURVE",
"59 177 OFFCURVE",
"69 177 CURVE SMOOTH",
"77 177 LINE",
"47 99 OFFCURVE",
"24 27 OFFCURVE",
"24 5 CURVE",
"25 0 OFFCURVE",
"29 -1 OFFCURVE",
"35 -1 CURVE SMOOTH",
"43 -1 OFFCURVE",
"53 2 OFFCURVE",
"56 5 CURVE",
"68 70 OFFCURVE",
"88 125 OFFCURVE",
"113 178 CURVE",
"187 181 OFFCURVE",
"303 186 OFFCURVE",
"306 195 CURVE"
);
},
{
closed = 1;
nodes = (
"427 421 OFFCURVE",
"428 424 OFFCURVE",
"428 427 CURVE SMOOTH",
"428 434 OFFCURVE",
"420 438 OFFCURVE",
"410 438 CURVE SMOOTH",
"406 438 OFFCURVE",
"400 437 OFFCURVE",
"395 434 CURVE",
"379 442 OFFCURVE",
"331 440 OFFCURVE",
"296 440 CURVE SMOOTH",
"215 440 OFFCURVE",
"96 434 OFFCURVE",
"96 399 CURVE",
"97 390 OFFCURVE",
"103 387 OFFCURVE",
"110 387 CURVE SMOOTH",
"119 387 OFFCURVE",
"129 391 OFFCURVE",
"136 393 CURVE SMOOTH",
"230 414 OFFCURVE",
"308 423 OFFCURVE",
"379 423 CURVE SMOOTH",
"380 423 LINE",
"352 395 OFFCURVE",
"345 370 OFFCURVE",
"345 341 CURVE SMOOTH",
"345 315 OFFCURVE",
"354 310 OFFCURVE",
"360 310 CURVE SMOOTH",
"363 310 OFFCURVE",
"365 312 OFFCURVE",
"365 315 CURVE SMOOTH",
"365 321 OFFCURVE",
"359 328 OFFCURVE",
"359 335 CURVE SMOOTH",
"359 371 OFFCURVE",
"406 400 OFFCURVE",
"423 417 CURVE SMOOTH"
);
}
);
width = 305;
}
);
note = F;
unicode = 0046;
},
{
glyphname = G;
layers = (
{
hints = (
{
horizontal = 1;
place = "{-32, 18}";
type = Stem;
},
{
horizontal = 1;
place = "{190, 18}";
type = Stem;
},
{
horizontal = 1;
place = "{417, 22}";
type = Stem;
},
{
place = "{41, 31}";
type = Stem;
}
);
layerId = "F07FC137-599D-4028-8184-32064863B81C";
paths = (
{
closed = 1;
nodes = (
"514 207 OFFCURVE",
"486 209 OFFCURVE",
"456 209 CURVE SMOOTH",
"357 209 OFFCURVE",
"271 207 OFFCURVE",
"271 163 CURVE SMOOTH",
"271 158 OFFCURVE",
"273 156 OFFCURVE",
"277 156 CURVE SMOOTH",
"278 156 OFFCURVE",
"279 156 OFFCURVE",
"280 156 CURVE SMOOTH",
"334 166 OFFCURVE",
"391 182 OFFCURVE",
"446 186 CURVE",
"444 182 OFFCURVE",
"443 177 OFFCURVE",
"442 171 CURVE SMOOTH",
"428 60 OFFCURVE",
"297 -14 OFFCURVE",
"193 -14 CURVE SMOOTH",
"105 -14 OFFCURVE",
"73 32 OFFCURVE",
"73 92 CURVE SMOOTH",
"73 234 OFFCURVE",
"235 418 OFFCURVE",
"377 418 CURVE SMOOTH",
"410 418 OFFCURVE",
"440 408 OFFCURVE",
"450 379 CURVE SMOOTH",
"452 372 OFFCURVE",
"455 369 OFFCURVE",
"459 369 CURVE SMOOTH",
"463 369 OFFCURVE",
"470 376 OFFCURVE",
"470 386 CURVE SMOOTH",
"470 425 OFFCURVE",
"413 440 OFFCURVE",
"363 440 CURVE SMOOTH",
"206 440 OFFCURVE",
"41 274 OFFCURVE",
"41 115 CURVE SMOOTH",
"41 22 OFFCURVE",
"107 -31 OFFCURVE",
"199 -31 CURVE SMOOTH",
"247 -31 OFFCURVE",
"297 -19 OFFCURVE",
"337 0 CURVE SMOOTH",
"401 29 OFFCURVE",
"480 103 OFFCURVE",
"480 182 CURVE SMOOTH",
"480 184 OFFCURVE",
"480 187 OFFCURVE",
"479 189 CURVE",
"509 191 OFFCURVE",
"550 187 OFFCURVE",
"550 197 CURVE SMOOTH",
"550 200 OFFCURVE",
"546 203 OFFCURVE",
"539 204 CURVE SMOOTH"
);
}
);
width = 497;
}
);
note = G;
unicode = 0047;
},
{
glyphname = H;
layers = (
{
hints = (
{
horizontal = 1;
place = "{194, 16}";
type = Stem;
},
{
place = "{23, 476}";
type = Stem;
}
);
layerId = "F07FC137-599D-4028-8184-32064863B81C";
paths = (
{
closed = 1;
nodes = (
"498 419 OFFCURVE",
"499 420 OFFCURVE",
"499 421 CURVE SMOOTH",
"499 430 OFFCURVE",
"477 440 OFFCURVE",
"464 440 CURVE SMOOTH",
"448 440 OFFCURVE",
"402 331 OFFCURVE",
"354 204 CURVE",
"341 212 OFFCURVE",
"287 211 OFFCURVE",
"255 211 CURVE SMOOTH",
"206 211 OFFCURVE",
"155 208 OFFCURVE",
"121 206 CURVE SMOOTH",
"120 206 LINE",
"152 276 OFFCURVE",
"191 342 OFFCURVE",
"229 418 CURVE",
"229 419 OFFCURVE",
"230 420 OFFCURVE",
"230 421 CURVE SMOOTH",
"230 430 OFFCURVE",
"208 440 OFFCURVE",
"195 440 CURVE SMOOTH",
"179 440 OFFCURVE",
"132 328 OFFCURVE",
"84 203 CURVE",
"56 199 OFFCURVE",
"35 185 OFFCURVE",
"35 169 CURVE SMOOTH",
"35 165 OFFCURVE",
"37 163 OFFCURVE",
"42 163 CURVE SMOOTH",
"51 163 OFFCURVE",
"62 166 OFFCURVE",
"71 168 CURVE",
"44 92 OFFCURVE",
"24 27 OFFCURVE",
"24 7 CURVE",
"25 2 OFFCURVE",
"30 0 OFFCURVE",
"36 0 CURVE SMOOTH",
"43 0 OFFCURVE",
"52 3 OFFCURVE",
"55 7 CURVE",
"66 69 OFFCURVE",
"84 122 OFFCURVE",
"106 174 CURVE",
"181 188 OFFCURVE",
"264 194 OFFCURVE",
"335 194 CURVE SMOOTH",
"342 194 OFFCURVE",
"347 195 OFFCURVE",
"350 196 CURVE",
"318 109 OFFCURVE",
"293 31 OFFCURVE",
"293 7 CURVE",
"294 2 OFFCURVE",
"299 0 OFFCURVE",
"305 0 CURVE SMOOTH",
"312 0 OFFCURVE",
"321 3 OFFCURVE",
"325 7 CURVE",
"354 167 OFFCURVE",
"428 276 OFFCURVE",
"498 418 CURVE"
);
}
);
width = 423;
}
);
note = H;
unicode = 0048;
},
{
glyphname = I;
layers = (
{
hints = (
{
horizontal = 1;
place = "{13, 14}";
type = Stem;
},
{
horizontal = 1;
place = "{424, 14}";
type = Stem;
},
{
place = "{3, 378}";
type = Stem;
}
);
layerId = "F07FC137-599D-4028-8184-32064863B81C";
paths = (
{
closed = 1;
nodes = (
"347 439 OFFCURVE",
"316 439 OFFCURVE",
"285 439 CURVE",
"279 443 OFFCURVE",
"271 446 OFFCURVE",
"265 446 CURVE SMOOTH",
"259 446 OFFCURVE",
"257 442 OFFCURVE",
"255 437 CURVE",
"201 437 OFFCURVE",
"153 432 OFFCURVE",
"153 403 CURVE SMOOTH",
"153 400 OFFCURVE",
"154 398 OFFCURVE",
"158 398 CURVE SMOOTH",
"184 398 OFFCURVE",
"216 410 OFFCURVE",
"243 415 CURVE",
"201 330 OFFCURVE",
"112 102 OFFCURVE",
"97 26 CURVE",
"70 24 LINE SMOOTH",
"32 21 OFFCURVE",
"3 15 OFFCURVE",
"3 -7 CURVE SMOOTH",
"3 -10 OFFCURVE",
"4 -12 OFFCURVE",
"8 -12 CURVE SMOOTH",
"35 -12 OFFCURVE",
"69 0 OFFCURVE",
"96 4 CURVE",
"98 1 OFFCURVE",
"101 0 OFFCURVE",
"105 0 CURVE SMOOTH",
"111 0 OFFCURVE",
"120 4 OFFCURVE",
"123 7 CURVE",
"123 8 LINE",
"162 13 OFFCURVE",
"232 12 OFFCURVE",
"232 19 CURVE SMOOTH",
"232 27 OFFCURVE",
"179 27 OFFCURVE",
"152 27 CURVE SMOOTH",
"144 27 OFFCURVE",
"135 27 OFFCURVE",
"127 27 CURVE",
"153 148 OFFCURVE",
"230 284 OFFCURVE",
"297 418 CURVE",
"319 440 OFFCURVE",
"382 410 OFFCURVE",
"382 429 CURVE SMOOTH",
"382 431 OFFCURVE",
"378 434 OFFCURVE",
"373 435 CURVE SMOOTH"
);
}
);
width = 250;
}
);
note = I;
unicode = 0049;
},
{
glyphname = J;
layers = (
{
hints = (
{
horizontal = 1;
place = "{-10, 15}";
type = Stem;
},
{
horizontal = 1;
place = "{408, 38}";
type = Stem;
},
{
place = "{9, 27}";
type = Stem;
},
{
place = "{162, 22}";
type = Stem;
}
);
layerId = "F07FC137-599D-4028-8184-32064863B81C";
paths = (
{
closed = 1;
nodes = (
"483 430 OFFCURVE",
"410 438 OFFCURVE",
"412 438 CURVE",
"405 444 OFFCURVE",
"382 447 OFFCURVE",
"373 447 CURVE SMOOTH",
"362 447 OFFCURVE",
"364 441 OFFCURVE",
"359 433 CURVE",
"318 429 OFFCURVE",
"163 428 OFFCURVE",
"163 370 CURVE SMOOTH",
"163 334 OFFCURVE",
"201 319 OFFCURVE",
"231 319 CURVE SMOOTH",
"238 319 OFFCURVE",
"268 321 OFFCURVE",
"268 330 CURVE SMOOTH",
"268 337 OFFCURVE",
"184 338 OFFCURVE",
"184 363 CURVE SMOOTH",
"184 394 OFFCURVE",
"330 407 OFFCURVE",
"356 409 CURVE",
"353 390 OFFCURVE",
"320 307 OFFCURVE",
"280 196 CURVE SMOOTH",
"260 143 OFFCURVE",
"190 -16 OFFCURVE",
"127 -28 CURVE SMOOTH",
"87 -35 OFFCURVE",
"68 -13 OFFCURVE",
"63 18 CURVE SMOOTH",
"56 56 OFFCURVE",
"70 109 OFFCURVE",
"91 135 CURVE",
"92 137 OFFCURVE",
"93 139 OFFCURVE",
"92 141 CURVE",
"92 145 OFFCURVE",
"88 147 OFFCURVE",
"84 147 CURVE",
"53 141 OFFCURVE",
"31 68 OFFCURVE",
"31 44 CURVE",
"30 36 OFFCURVE",
"31 30 OFFCURVE",
"32 23 CURVE SMOOTH",
"40 -20 OFFCURVE",
"73 -53 OFFCURVE",
"128 -43 CURVE SMOOTH",
"204 -30 OFFCURVE",
"279 115 OFFCURVE",
"307 178 CURVE SMOOTH",
"355 285 OFFCURVE",
"389 354 OFFCURVE",
"415 412 CURVE",
"431 412 OFFCURVE",
"443 410 OFFCURVE",
"470 410 CURVE SMOOTH",
"478 410 OFFCURVE",
"485 411 OFFCURVE",
"485 414 CURVE SMOOTH"
);
}
);
width = 307;
}
);
note = J;
unicode = 004A;
},
{
glyphname = K;
layers = (
{
hints = (
{
horizontal = 1;
place = "{-21, 20}";
type = Stem;
},
{
horizontal = 1;
place = "{194, 20}";
type = Stem;
},
{
place = "{15, 26}";
type = Stem;
},
{
place = "{394, 25}";
type = Stem;
}
);
layerId = "F07FC137-599D-4028-8184-32064863B81C";
paths = (
{
closed = 1;
nodes = (
"510 435 OFFCURVE",
"505 437 OFFCURVE",
"500 437 CURVE SMOOTH",
"493 437 OFFCURVE",
"487 434 OFFCURVE",
"482 430 CURVE SMOOTH",
"366 349 OFFCURVE",
"224 240 OFFCURVE",
"94 172 CURVE",
"130 255 OFFCURVE",
"178 337 OFFCURVE",
"222 425 CURVE",
"222 426 OFFCURVE",
"223 427 OFFCURVE",
"223 428 CURVE SMOOTH",
"223 436 OFFCURVE",
"202 443 OFFCURVE",
"188 443 CURVE SMOOTH",
"183 443 OFFCURVE",
"178 442 OFFCURVE",
"176 440 CURVE SMOOTH",
"148 404 OFFCURVE",
"15 60 OFFCURVE",
"15 7 CURVE",
"16 2 OFFCURVE",
"20 0 OFFCURVE",
"25 0 CURVE SMOOTH",
"31 0 OFFCURVE",
"38 3 OFFCURVE",
"42 7 CURVE",
"49 50 OFFCURVE",
"61 89 OFFCURVE",
"75 126 CURVE",
"99 150 OFFCURVE",
"146 180 OFFCURVE",
"168 188 CURVE",
"182 165 OFFCURVE",
"207 119 OFFCURVE",
"233 85 CURVE SMOOTH",
"257 52 OFFCURVE",
"311 -20 OFFCURVE",
"359 -20 CURVE SMOOTH",
"394 -20 OFFCURVE",
"421 11 OFFCURVE",
"421 44 CURVE SMOOTH",
"421 47 OFFCURVE",
"420 51 OFFCURVE",
"420 54 CURVE",
"418 64 OFFCURVE",
"406 96 OFFCURVE",
"393 96 CURVE SMOOTH",
"390 96 OFFCURVE",
"389 93 OFFCURVE",
"389 90 CURVE SMOOTH",
"389 85 OFFCURVE",
"395 71 OFFCURVE",
"395 49 CURVE SMOOTH",
"395 26 OFFCURVE",
"385 0 OFFCURVE",
"363 0 CURVE SMOOTH",
"318 0 OFFCURVE",
"222 175 OFFCURVE",
"210 215 CURVE",
"251 245 OFFCURVE",
"511 403 OFFCURVE",
"511 430 CURVE"
);
}
);
width = 423;
}
);
note = K;
unicode = 004B;
},
{
glyphname = L;
layers = (
{
hints = (
{
horizontal = 1;
place = "{-8, 16}";
type = Stem;
},
{
place = "{29, 48}";
type = Stem;
},
{
place = "{170, 66}";
type = Stem;
}
);
layerId = "F07FC137-599D-4028-8184-32064863B81C";
paths = (
{
closed = 1;
nodes = (
"288 32 OFFCURVE",
"246 8 OFFCURVE",
"170 8 CURVE SMOOTH",
"101 8 OFFCURVE",
"77 41 OFFCURVE",
"77 88 CURVE SMOOTH",
"77 196 OFFCURVE",
"203 379 OFFCURVE",
"230 417 CURVE SMOOTH",
"235 424 OFFCURVE",
"237 427 OFFCURVE",
"237 430 CURVE SMOOTH",
"237 434 OFFCURVE",
"231 435 OFFCURVE",
"217 437 CURVE",
"188 435 OFFCURVE",
"175 429 OFFCURVE",
"175 416 CURVE SMOOTH",
"175 411 OFFCURVE",
"178 403 OFFCURVE",
"183 395 CURVE",
"112 306 OFFCURVE",
"31 149 OFFCURVE",
"31 77 CURVE SMOOTH",
"31 28 OFFCURVE",
"58 -8 OFFCURVE",
"140 -8 CURVE SMOOTH",
"266 -8 OFFCURVE",
"347 4 OFFCURVE",
"347 54 CURVE SMOOTH",
"347 59 OFFCURVE",
"345 63 OFFCURVE",
"341 63 CURVE SMOOTH",
"338 63 OFFCURVE",
"334 62 OFFCURVE",
"330 59 CURVE SMOOTH"
);
}
);
width = 356;
}
);
note = L;
unicode = 004C;
},
{
glyphname = M;
layers = (
{
hints = (
{
horizontal = 1;
place = "{-9, 19}";
type = Stem;
},
{
horizontal = 1;
place = "{47, 26}";
type = Stem;
},
{
place = "{165, 41}";
type = Stem;
},
{
place = "{433, 42}";
type = Stem;
}
);
layerId = "F07FC137-599D-4028-8184-32064863B81C";
paths = (
{
closed = 1;
nodes = (
"647 123 OFFCURVE",
"647 124 OFFCURVE",
"647 125 CURVE SMOOTH",
"647 128 OFFCURVE",
"644 131 OFFCURVE",
"641 131 CURVE SMOOTH",
"639 131 OFFCURVE",
"637 130 OFFCURVE",
"636 128 CURVE SMOOTH",
"588 61 OFFCURVE",
"513 10 OFFCURVE",
"496 10 CURVE SMOOTH",
"480 10 OFFCURVE",
"475 26 OFFCURVE",
"475 47 CURVE SMOOTH",
"475 83 OFFCURVE",
"491 135 OFFCURVE",
"493 144 CURVE SMOOTH",
"508 203 OFFCURVE",
"528 275 OFFCURVE",
"540 301 CURVE",
"588 367 OFFCURVE",
"621 434 OFFCURVE",
"621 439 CURVE SMOOTH",
"621 444 OFFCURVE",
"619 447 OFFCURVE",
"614 447 CURVE SMOOTH",
"587 447 OFFCURVE",
"547 383 OFFCURVE",
"526 326 CURVE",
"447 218 OFFCURVE",
"324 73 OFFCURVE",
"270 73 CURVE SMOOTH",
"233 73 OFFCURVE",
"205 140 OFFCURVE",
"205 291 CURVE SMOOTH",
"205 348 OFFCURVE",
"217 404 OFFCURVE",
"217 440 CURVE SMOOTH",
"217 443 OFFCURVE",
"213 445 OFFCURVE",
"206 445 CURVE SMOOTH",
"179 445 OFFCURVE",
"167 427 OFFCURVE",
"163 358 CURVE",
"114 265 OFFCURVE",
"14 32 OFFCURVE",
"13 6 CURVE",
"14 0 OFFCURVE",
"20 -2 OFFCURVE",
"28 -2 CURVE SMOOTH",
"39 -2 OFFCURVE",
"51 2 OFFCURVE",
"54 5 CURVE",
"77 89 OFFCURVE",
"116 218 OFFCURVE",
"161 318 CURVE",
"161 308 OFFCURVE",
"161 299 OFFCURVE",
"161 289 CURVE SMOOTH",
"161 115 OFFCURVE",
"205 46 OFFCURVE",
"257 46 CURVE SMOOTH",
"321 46 OFFCURVE",
"409 149 OFFCURVE",
"491 247 CURVE",
"456 164 OFFCURVE",
"433 90 OFFCURVE",
"433 46 CURVE SMOOTH",
"433 5 OFFCURVE",
"459 -9 OFFCURVE",
"483 -9 CURVE SMOOTH",
"543 -9 OFFCURVE",
"622 77 OFFCURVE",
"646 122 CURVE"
);
}
);
width = 594;
}
);
note = M;
unicode = 004D;
},
{
glyphname = N;
layers = (
{
hints = (
{
horizontal = 1;
place = "{-14, 29}";
type = Stem;
},
{
horizontal = 1;
place = "{436, 21}";
type = Stem;
},
{
place = "{176, 29}";
type = Stem;
},
{
place = "{448, 42}";
type = Stem;
}
);
layerId = "F07FC137-599D-4028-8184-32064863B81C";
paths = (
{
closed = 1;
nodes = (
"445 399 OFFCURVE",
"448 368 OFFCURVE",
"448 335 CURVE SMOOTH",
"448 188 OFFCURVE",
"398 15 OFFCURVE",
"314 15 CURVE SMOOTH",
"199 15 OFFCURVE",
"207 357 OFFCURVE",
"206 404 CURVE SMOOTH",
"206 410 LINE SMOOTH",
"206 411 OFFCURVE",
"206 412 OFFCURVE",
"205 413 CURVE",
"208 418 LINE",
"208 419 OFFCURVE",
"209 420 OFFCURVE",
"209 421 CURVE SMOOTH",
"209 432 OFFCURVE",
"188 446 OFFCURVE",
"176 446 CURVE SMOOTH",
"157 446 OFFCURVE",
"6 71 OFFCURVE",
"6 7 CURVE",
"7 2 OFFCURVE",
"10 0 OFFCURVE",
"14 0 CURVE SMOOTH",
"19 0 OFFCURVE",
"25 3 OFFCURVE",
"28 7 CURVE",
"46 116 OFFCURVE",
"115 238 OFFCURVE",
"179 361 CURVE",
"177 333 OFFCURVE",
"175 306 OFFCURVE",
"175 279 CURVE SMOOTH",
"175 163 OFFCURVE",
"197 -13 OFFCURVE",
"301 -13 CURVE SMOOTH",
"403 -13 OFFCURVE",
"491 201 OFFCURVE",
"491 340 CURVE SMOOTH",
"491 407 OFFCURVE",
"470 458 OFFCURVE",
"420 458 CURVE SMOOTH",
"407 458 OFFCURVE",
"377 449 OFFCURVE",
"377 436 CURVE SMOOTH",
"377 432 OFFCURVE",
"378 431 OFFCURVE",
"381 431 CURVE SMOOTH",
"388 431 OFFCURVE",
"400 437 OFFCURVE",
"409 437 CURVE SMOOTH",
"421 437 OFFCURVE",
"431 430 OFFCURVE",
"437 417 CURVE SMOOTH"
);
}
);
width = 463;
}
);
note = N;
unicode = 004E;
},
{
glyphname = O;
layers = (
{
hints = (
{
horizontal = 1;
place = "{-20, 22}";
type = Stem;
},
{
horizontal = 1;
place = "{199, 11}";
type = Stem;
},
{
horizontal = 1;
place = "{346, 26}";
type = Stem;
},
{
horizontal = 1;
place = "{425, 19}";
type = Stem;
},
{
place = "{49, 30}";
type = Stem;
},
{
place = "{469, 27}";
type = Stem;
}
);
layerId = "F07FC137-599D-4028-8184-32064863B81C";
paths = (
{
closed = 1;
nodes = (
"489 199 OFFCURVE",
"497 234 OFFCURVE",
"497 266 CURVE SMOOTH",
"497 377 OFFCURVE",
"413 444 OFFCURVE",
"301 444 CURVE SMOOTH",
"199 444 OFFCURVE",
"49 387 OFFCURVE",
"49 263 CURVE SMOOTH",
"49 234 OFFCURVE",
"59 213 OFFCURVE",
"79 204 CURVE",
"69 177 OFFCURVE",
"64 150 OFFCURVE",
"64 124 CURVE SMOOTH",
"64 46 OFFCURVE",
"110 -20 OFFCURVE",
"213 -20 CURVE SMOOTH",
"330 -20 OFFCURVE",
"428 61 OFFCURVE",
"474 165 CURVE SMOOTH"
);
},
{
closed = 1;
nodes = (
"81 233 OFFCURVE",
"79 246 OFFCURVE",
"79 258 CURVE SMOOTH",
"79 360 OFFCURVE",
"205 426 OFFCURVE",
"313 426 CURVE SMOOTH",
"402 426 OFFCURVE",
"469 382 OFFCURVE",
"469 294 CURVE SMOOTH",
"469 157 OFFCURVE",
"332 3 OFFCURVE",
"197 3 CURVE SMOOTH",
"118 3 OFFCURVE",
"88 52 OFFCURVE",
"88 110 CURVE SMOOTH",
"88 139 OFFCURVE",
"96 171 OFFCURVE",
"109 199 CURVE",
"122 202 LINE SMOOTH",
"127 203 OFFCURVE",
"130 205 OFFCURVE",
"130 207 CURVE SMOOTH",
"130 212 OFFCURVE",
"120 209 OFFCURVE",
"115 212 CURVE",
"154 285 OFFCURVE",
"243 346 OFFCURVE",
"318 346 CURVE SMOOTH",
"334 346 OFFCURVE",
"362 329 OFFCURVE",
"364 329 CURVE SMOOTH",
"366 329 OFFCURVE",
"367 333 OFFCURVE",
"367 338 CURVE SMOOTH",
"367 361 OFFCURVE",
"338 373 OFFCURVE",
"312 373 CURVE SMOOTH",
"209 373 OFFCURVE",
"123 296 OFFCURVE",
"88 225 CURVE"
);
}
);
width = 491;
}
);
note = O;
unicode = 004F;
},
{
glyphname = P;
layers = (
{
hints = (
{
horizontal = 1;
place = "{167, 16}";
type = Stem;
},
{
horizontal = 1;
place = "{425, 21}";
type = Stem;
},
{
place = "{403, 31}";
type = Stem;
}
);
layerId = "F07FC137-599D-4028-8184-32064863B81C";
paths = (
{
closed = 1;
nodes = (
"213 372 OFFCURVE",
"213 373 OFFCURVE",
"213 373 CURVE",
"213 382 OFFCURVE",
"193 391 OFFCURVE",
"180 391 CURVE SMOOTH",
"175 391 OFFCURVE",
"172 390 OFFCURVE",
"170 388 CURVE SMOOTH",
"145 357 OFFCURVE",
"24 53 OFFCURVE",
"24 5 CURVE",
"25 0 OFFCURVE",
"29 -1 OFFCURVE",
"35 -1 CURVE SMOOTH",
"43 -1 OFFCURVE",
"52 2 OFFCURVE",
"55 5 CURVE",
"81 147 OFFCURVE",
"149 244 OFFCURVE",
"213 371 CURVE"
);
},
{
closed = 1;
nodes = (
"403 231 OFFCURVE",
"434 278 OFFCURVE",
"434 323 CURVE SMOOTH",
"434 397 OFFCURVE",
"353 446 OFFCURVE",
"223 446 CURVE SMOOTH",
"117 446 OFFCURVE",
"23 410 OFFCURVE",
"23 370 CURVE SMOOTH",
"23 364 OFFCURVE",
"24 361 OFFCURVE",
"27 361 CURVE SMOOTH",
"30 361 OFFCURVE",
"32 363 OFFCURVE",
"34 364 CURVE SMOOTH",
"79 386 OFFCURVE",
"163 426 OFFCURVE",
"255 426 CURVE SMOOTH",
"362 426 OFFCURVE",
"404 384 OFFCURVE",
"404 345 CURVE SMOOTH",
"404 273 OFFCURVE",
"286 182 OFFCURVE",
"181 182 CURVE SMOOTH",
"164 182 OFFCURVE",
"150 186 OFFCURVE",
"140 186 CURVE SMOOTH",
"136 186 OFFCURVE",
"133 183 OFFCURVE",
"133 180 CURVE SMOOTH",
"133 169 OFFCURVE",
"161 166 OFFCURVE",
"181 166 CURVE SMOOTH",
"235 166 OFFCURVE",
"307 186 OFFCURVE",
"344 203 CURVE SMOOTH"
);
}
);
width = 363;
}
);
note = P;
unicode = 0050;
},
{
glyphname = Q;
layers = (
{
hints = (
{
horizontal = 1;
place = "{-153, 25}";
type = Stem;
},
{
horizontal = 1;
place = "{-20, 22}";
type = Stem;
},
{
horizontal = 1;
place = "{346, 26}";
type = Stem;
},
{
horizontal = 1;
place = "{411, 15}";
type = Stem;
},
{
place = "{91, 20}";
type = Stem;
},
{
place = "{468, 30}";
type = Stem;
},
{
place = "{608, 21}";
type = Stem;
}
);
layerId = "F07FC137-599D-4028-8184-32064863B81C";
paths = (
{
closed = 1;
nodes = (
"122 365 OFFCURVE",
"202 424 OFFCURVE",
"334 424 CURVE SMOOTH",
"406 424 OFFCURVE",
"469 381 OFFCURVE",
"469 296 CURVE SMOOTH",
"469 184 OFFCURVE",
"371 49 OFFCURVE",
"257 13 CURVE",
"174 82 OFFCURVE",
"130 144 OFFCURVE",
"115 207 CURVE",
"161 281 OFFCURVE",
"250 357 OFFCURVE",
"319 357 CURVE SMOOTH",
"333 357 OFFCURVE",
"353 353 OFFCURVE",
"362 341 CURVE SMOOTH",
"363 339 OFFCURVE",
"364 339 OFFCURVE",
"365 339 CURVE SMOOTH",
"367 339 OFFCURVE",
"368 343 OFFCURVE",
"368 348 CURVE SMOOTH",
"368 371 OFFCURVE",
"341 385 OFFCURVE",
"313 385 CURVE SMOOTH",
"231 385 OFFCURVE",
"150 325 OFFCURVE",
"111 275 CURVE"
);
},
{
closed = 1;
nodes = (
"215 4 OFFCURVE",
"206 3 OFFCURVE",
"197 3 CURVE SMOOTH",
"172 3 OFFCURVE",
"84 30 OFFCURVE",
"84 115 CURVE SMOOTH",
"84 136 OFFCURVE",
"91 159 OFFCURVE",
"101 181 CURVE",
"117 128 OFFCURVE",
"159 59 OFFCURVE",
"224 5 CURVE"
);
},
{
closed = 1;
nodes = (
"614 -28 OFFCURVE",
"599 -14 OFFCURVE",
"588 -14 CURVE SMOOTH",
"585 -14 OFFCURVE",
"580 -16 OFFCURVE",
"580 -20 CURVE SMOOTH",
"580 -25 OFFCURVE",
"609 -43 OFFCURVE",
"609 -83 CURVE SMOOTH",
"609 -116 OFFCURVE",
"578 -127 OFFCURVE",
"546 -127 CURVE SMOOTH",
"477 -127 OFFCURVE",
"373 -75 OFFCURVE",
"286 -9 CURVE",
"404 26 OFFCURVE",
"501 161 OFFCURVE",
"501 277 CURVE SMOOTH",
"501 390 OFFCURVE",
"408 442 OFFCURVE",
"310 442 CURVE SMOOTH",
"178 442 OFFCURVE",
"91 364 OFFCURVE",
"91 255 CURVE SMOOTH",
"91 252 OFFCURVE",
"91 248 OFFCURVE",
"91 245 CURVE",
"73 215 OFFCURVE",
"61 177 OFFCURVE",
"61 139 CURVE SMOOTH",
"61 28 OFFCURVE",
"144 -21 OFFCURVE",
"214 -21 CURVE SMOOTH",
"226 -21 OFFCURVE",
"238 -20 OFFCURVE",
"249 -18 CURVE",
"336 -91 OFFCURVE",
"448 -153 OFFCURVE",
"531 -153 CURVE SMOOTH",
"585 -153 OFFCURVE",
"629 -124 OFFCURVE",
"629 -72 CURVE SMOOTH",
"629 -58 OFFCURVE",
"625 -45 OFFCURVE",
"618 -34 CURVE SMOOTH"
);
}
);
width = 484;
}
);
note = Q;
unicode = 0051;
},
{
glyphname = R;
layers = (
{
hints = (
{
horizontal = 1;
place = "{-21, 20}";
type = Stem;
},
{
horizontal = 1;
place = "{172, 14}";
type = Stem;
},
{
horizontal = 1;
place = "{424, 22}";
type = Stem;
},
{
place = "{403, 32}";
type = Stem;
}
);
layerId = "F07FC137-599D-4028-8184-32064863B81C";
paths = (
{
closed = 1;
nodes = (
"213 372 OFFCURVE",
"213 373 OFFCURVE",
"213 373 CURVE",
"213 382 OFFCURVE",
"193 391 OFFCURVE",
"180 391 CURVE SMOOTH",
"175 391 OFFCURVE",
"172 390 OFFCURVE",
"170 388 CURVE SMOOTH",
"145 357 OFFCURVE",
"24 53 OFFCURVE",
"24 5 CURVE",
"25 0 OFFCURVE",
"29 -1 OFFCURVE",
"35 -1 CURVE SMOOTH",
"43 -1 OFFCURVE",
"52 2 OFFCURVE",
"55 5 CURVE",
"81 147 OFFCURVE",
"149 244 OFFCURVE",
"213 371 CURVE"
);
},
{
closed = 1;
nodes = (
"436 327 OFFCURVE",
"436 328 OFFCURVE",
"436 330 CURVE SMOOTH",
"436 399 OFFCURVE",
"338 447 OFFCURVE",
"221 447 CURVE SMOOTH",
"167 447 OFFCURVE",
"71 440 OFFCURVE",
"71 413 CURVE SMOOTH",
"71 406 OFFCURVE",
"75 403 OFFCURVE",
"79 403 CURVE",
"126 413 OFFCURVE",
"189 425 OFFCURVE",
"248 425 CURVE SMOOTH",
"354 425 OFFCURVE",
"404 383 OFFCURVE",
"404 338 CURVE SMOOTH",
"404 201 OFFCURVE",
"127 188 OFFCURVE",
"127 179 CURVE SMOOTH",
"127 174 OFFCURVE",
"140 172 OFFCURVE",
"154 172 CURVE SMOOTH",
"159 172 OFFCURVE",
"163 172 OFFCURVE",
"166 172 CURVE",
"194 129 OFFCURVE",
"291 -20 OFFCURVE",
"349 -20 CURVE SMOOTH",
"384 -20 OFFCURVE",
"411 11 OFFCURVE",
"411 44 CURVE SMOOTH",
"411 47 OFFCURVE",
"410 51 OFFCURVE",
"410 54 CURVE SMOOTH",
"409 64 OFFCURVE",
"396 96 OFFCURVE",
"383 96 CURVE SMOOTH",
"380 96 OFFCURVE",
"379 93 OFFCURVE",
"379 90 CURVE SMOOTH",
"379 86 OFFCURVE",
"386 71 OFFCURVE",
"386 48 CURVE SMOOTH",
"386 24 OFFCURVE",
"375 0 OFFCURVE",
"353 0 CURVE SMOOTH",
"314 0 OFFCURVE",
"241 119 OFFCURVE",
"214 175 CURVE",
"300 185 OFFCURVE",
"429 219 OFFCURVE",
"436 325 CURVE SMOOTH"
);
}
);
width = 396;
}
);
note = R;
unicode = 0052;
},
{
glyphname = S;
layers = (
{
hints = (
{
horizontal = 1;
place = "{-19, 29}";
type = Stem;
},
{
horizontal = 1;
place = "{420, 31}";
type = Stem;
},
{
place = "{23, 22}";
type = Stem;
},
{
place = "{152, 35}";
type = Stem;
},
{
place = "{398, 35}";
type = Stem;
},
{
place = "{466, 18}";
type = Stem;
}
);
layerId = "F07FC137-599D-4028-8184-32064863B81C";
paths = (
{
closed = 1;
nodes = (
"485 441 OFFCURVE",
"428 452 OFFCURVE",
"379 452 CURVE SMOOTH",
"352 452 OFFCURVE",
"327 449 OFFCURVE",
"314 446 CURVE SMOOTH",
"257 432 OFFCURVE",
"152 386 OFFCURVE",
"152 315 CURVE SMOOTH",
"152 186 OFFCURVE",
"398 240 OFFCURVE",
"398 139 CURVE SMOOTH",
"398 58 OFFCURVE",
"237 10 OFFCURVE",
"134 10 CURVE SMOOTH",
"81 10 OFFCURVE",
"45 40 OFFCURVE",
"45 75 CURVE SMOOTH",
"45 83 OFFCURVE",
"50 93 OFFCURVE",
"50 101 CURVE SMOOTH",
"50 105 OFFCURVE",
"48 108 OFFCURVE",
"45 108 CURVE SMOOTH",
"33 108 OFFCURVE",
"24 65 OFFCURVE",
"24 47 CURVE SMOOTH",
"24 2 OFFCURVE",
"70 -19 OFFCURVE",
"137 -19 CURVE SMOOTH",
"222 -19 OFFCURVE",
"331 10 OFFCURVE",
"402 88 CURVE SMOOTH",
"424 112 OFFCURVE",
"434 137 OFFCURVE",
"434 160 CURVE SMOOTH",
"434 285 OFFCURVE",
"188 240 OFFCURVE",
"188 330 CURVE SMOOTH",
"188 397 OFFCURVE",
"322 420 OFFCURVE",
"390 420 CURVE SMOOTH",
"429 420 OFFCURVE",
"466 414 OFFCURVE",
"466 387 CURVE SMOOTH",
"466 380 OFFCURVE",
"470 373 OFFCURVE",
"474 373 CURVE SMOOTH",
"480 373 OFFCURVE",
"485 390 OFFCURVE",
"485 400 CURVE SMOOTH"
);
}
);
width = 426;
}
);
note = S;
unicode = 0053;
},
{
glyphname = T;
layers = (
{
hints = (
{
horizontal = 1;
place = "{418, 20}";
type = Stem;
},
{
place = "{7, 435}";
type = Stem;
}
);
layerId = "F07FC137-599D-4028-8184-32064863B81C";
paths = (
{
closed = 1;
nodes = (
"396 435 OFFCURVE",
"319 439 OFFCURVE",
"240 439 CURVE SMOOTH",
"136 439 OFFCURVE",
"8 436 OFFCURVE",
"8 401 CURVE SMOOTH",
"8 389 OFFCURVE",
"17 386 OFFCURVE",
"26 386 CURVE SMOOTH",
"38 386 OFFCURVE",
"52 390 OFFCURVE",
"61 392 CURVE SMOOTH",
"111 402 OFFCURVE",
"162 408 OFFCURVE",
"214 412 CURVE",
"187 374 OFFCURVE",
"55 52 OFFCURVE",
"55 5 CURVE",
"56 0 OFFCURVE",
"61 -1 OFFCURVE",
"66 -1 CURVE SMOOTH",
"74 -1 OFFCURVE",
"83 2 OFFCURVE",
"86 5 CURVE",
"112 147 OFFCURVE",
"185 266 OFFCURVE",
"253 392 CURVE",
"253 393 OFFCURVE",
"254 394 OFFCURVE",
"254 395 CURVE SMOOTH",
"254 401 OFFCURVE",
"243 409 OFFCURVE",
"233 413 CURVE",
"290 416 OFFCURVE",
"442 415 OFFCURVE",
"442 424 CURVE SMOOTH",
"442 427 OFFCURVE",
"438 430 OFFCURVE",
"431 431 CURVE SMOOTH"
);
}
);
width = 201;
}
);
note = T;
unicode = 0054;
},
{
glyphname = U;
layers = (
{
hints = (
{
horizontal = 1;
place = "{-3, 22}";
type = Stem;
},
{
place = "{39, 30}";
type = Stem;
}
);
layerId = "F07FC137-599D-4028-8184-32064863B81C";
paths = (
{
closed = 1;
nodes = (
"493 424 OFFCURVE",
"494 425 OFFCURVE",
"494 425 CURVE",
"494 433 OFFCURVE",
"472 441 OFFCURVE",
"458 441 CURVE SMOOTH",
"437 441 OFFCURVE",
"370 209 OFFCURVE",
"218 76 CURVE SMOOTH",
"173 36 OFFCURVE",
"138 19 OFFCURVE",
"113 19 CURVE SMOOTH",
"85 19 OFFCURVE",
"70 42 OFFCURVE",
"70 81 CURVE SMOOTH",
"70 200 OFFCURVE",
"220 409 OFFCURVE",
"220 425 CURVE SMOOTH",
"220 432 OFFCURVE",
"214 437 OFFCURVE",
"196 437 CURVE SMOOTH",
"146 437 OFFCURVE",
"107 339 OFFCURVE",
"65 207 CURVE SMOOTH",
"56 179 OFFCURVE",
"39 126 OFFCURVE",
"39 80 CURVE SMOOTH",
"39 36 OFFCURVE",
"55 -2 OFFCURVE",
"110 -2 CURVE SMOOTH",
"189 -2 OFFCURVE",
"287 110 OFFCURVE",
"353 208 CURVE",
"313 98 OFFCURVE",
"277 -11 OFFCURVE",
"277 -34 CURVE",
"278 -39 OFFCURVE",
"283 -40 OFFCURVE",
"289 -40 CURVE SMOOTH",
"297 -40 OFFCURVE",
"306 -37 OFFCURVE",
"309 -34 CURVE",
"335 108 OFFCURVE",
"423 295 OFFCURVE",
"493 423 CURVE"
);
}
);
width = 423;
}
);
note = U;
unicode = 0055;
},
{
glyphname = V;
layers = (
{
hints = (
{
horizontal = 1;
place = "{-21, 467}";
type = Stem;
},
{
place = "{69, 35}";
type = Stem;
}
);
layerId = "F07FC137-599D-4028-8184-32064863B81C";
paths = (
{
closed = 1;
nodes = (
"444 435 OFFCURVE",
"447 439 OFFCURVE",
"447 442 CURVE SMOOTH",
"447 445 OFFCURVE",
"442 446 OFFCURVE",
"435 446 CURVE SMOOTH",
"395 446 OFFCURVE",
"126 119 OFFCURVE",
"87 67 CURVE",
"96 100 OFFCURVE",
"105 186 OFFCURVE",
"105 267 CURVE SMOOTH",
"105 352 OFFCURVE",
"95 434 OFFCURVE",
"66 434 CURVE SMOOTH",
"57 434 OFFCURVE",
"30 418 OFFCURVE",
"30 409 CURVE SMOOTH",
"30 408 OFFCURVE",
"31 407 OFFCURVE",
"31 407 CURVE",
"60 364 OFFCURVE",
"70 303 OFFCURVE",
"70 239 CURVE SMOOTH",
"70 153 OFFCURVE",
"52 61 OFFCURVE",
"35 -8 CURVE",
"34 -10 OFFCURVE",
"34 -12 OFFCURVE",
"34 -14 CURVE SMOOTH",
"34 -18 OFFCURVE",
"36 -21 OFFCURVE",
"42 -21 CURVE SMOOTH",
"56 -21 OFFCURVE",
"87 -1 OFFCURVE",
"92 11 CURVE SMOOTH",
"141 130 OFFCURVE",
"328 332 OFFCURVE",
"437 429 CURVE SMOOTH"
);
}
);
width = 236;
}
);
note = V;
unicode = 0056;
},
{
glyphname = W;
layers = (
{
hints = (
{
horizontal = 1;
place = "{-3, 22}";
type = Stem;
},
{
horizontal = 1;
place = "{455, 20}";
type = Stem;
},
{
place = "{15, 27}";
type = Stem;
},
{
place = "{617, 35}";
type = Stem;
}
);
layerId = "F07FC137-599D-4028-8184-32064863B81C";
paths = (
{
closed = 1;
nodes = (
"653 314 OFFCURVE",
"653 321 OFFCURVE",
"653 328 CURVE SMOOTH",
"653 405 OFFCURVE",
"635 479 OFFCURVE",
"577 479 CURVE SMOOTH",
"567 479 OFFCURVE",
"541 476 OFFCURVE",
"541 467 CURVE SMOOTH",
"541 465 OFFCURVE",
"543 464 OFFCURVE",
"549 464 CURVE SMOOTH",
"551 464 OFFCURVE",
"554 464 OFFCURVE",
"557 464 CURVE SMOOTH",
"600 464 OFFCURVE",
"618 372 OFFCURVE",
"618 309 CURVE SMOOTH",
"618 124 OFFCURVE",
"544 19 OFFCURVE",
"485 19 CURVE SMOOTH",
"408 19 OFFCURVE",
"403 248 OFFCURVE",
"401 295 CURVE SMOOTH",
"401 304 OFFCURVE",
"405 321 OFFCURVE",
"405 335 CURVE SMOOTH",
"405 351 OFFCURVE",
"398 355 OFFCURVE",
"382 355 CURVE SMOOTH",
"362 355 OFFCURVE",
"357 364 OFFCURVE",
"357 310 CURVE",
"291 193 OFFCURVE",
"156 19 OFFCURVE",
"78 19 CURVE SMOOTH",
"55 19 OFFCURVE",
"43 37 OFFCURVE",
"43 68 CURVE SMOOTH",
"43 159 OFFCURVE",
"149 320 OFFCURVE",
"200 398 CURVE SMOOTH",
"206 408 OFFCURVE",
"215 418 OFFCURVE",
"215 426 CURVE SMOOTH",
"215 433 OFFCURVE",
"208 437 OFFCURVE",
"188 437 CURVE SMOOTH",
"141 437 OFFCURVE",
"99 340 OFFCURVE",
"49 207 CURVE SMOOTH",
"37 176 OFFCURVE",
"15 115 OFFCURVE",
"15 66 CURVE SMOOTH",
"15 28 OFFCURVE",
"29 -2 OFFCURVE",
"74 -2 CURVE SMOOTH",
"163 -2 OFFCURVE",
"296 167 OFFCURVE",
"357 274 CURVE",
"361 169 OFFCURVE",
"384 -8 OFFCURVE",
"474 -8 CURVE SMOOTH",
"587 -8 OFFCURVE",
"649 208 OFFCURVE",
"653 307 CURVE SMOOTH"
);
}
);
width = 648;
}
);
note = W;
unicode = 0057;
},
{
glyphname = X;
layers = (
{
hints = (
{
horizontal = 1;
place = "{-4, 38}";
type = Stem;
},
{
horizontal = 1;
place = "{205, 20}";
type = Stem;
},
{
place = "{1, 34}";
type = Stem;
},
{
place = "{91, 49}";
type = Stem;
}
);
layerId = "F07FC137-599D-4028-8184-32064863B81C";
paths = (
{
closed = 1;
nodes = (
"442 123 OFFCURVE",
"442 124 OFFCURVE",
"442 125 CURVE SMOOTH",
"442 128 OFFCURVE",
"440 131 OFFCURVE",
"437 131 CURVE SMOOTH",
"433 131 OFFCURVE",
"381 71 OFFCURVE",
"363 55 CURVE SMOOTH",
"346 40 OFFCURVE",
"332 34 OFFCURVE",
"318 34 CURVE SMOOTH",
"254 34 OFFCURVE",
"204 195 OFFCURVE",
"190 241 CURVE",
"260 314 OFFCURVE",
"341 367 OFFCURVE",
"423 434 CURVE SMOOTH",
"426 437 OFFCURVE",
"429 440 OFFCURVE",
"429 443 CURVE SMOOTH",
"429 445 OFFCURVE",
"427 447 OFFCURVE",
"420 447 CURVE SMOOTH",
"381 447 OFFCURVE",
"214 287 OFFCURVE",
"185 259 CURVE",
"170 310 OFFCURVE",
"143 441 OFFCURVE",
"128 441 CURVE SMOOTH",
"107 441 OFFCURVE",
"92 434 OFFCURVE",
"92 419 CURVE SMOOTH",
"92 418 OFFCURVE",
"92 416 OFFCURVE",
"92 415 CURVE SMOOTH",
"94 395 OFFCURVE",
"142 253 OFFCURVE",
"151 226 CURVE",
"114 189 OFFCURVE",
"2 77 OFFCURVE",
"2 18 CURVE SMOOTH",
"2 2 OFFCURVE",
"8 -13 OFFCURVE",
"25 -13 CURVE SMOOTH",
"34 -13 OFFCURVE",
"36 -9 OFFCURVE",
"36 -4 CURVE SMOOTH",
"36 4 OFFCURVE",
"33 12 OFFCURVE",
"33 17 CURVE SMOOTH",
"33 73 OFFCURVE",
"122 169 OFFCURVE",
"157 207 CURVE",
"175 153 OFFCURVE",
"223 -4 OFFCURVE",
"296 -4 CURVE SMOOTH",
"344 -4 OFFCURVE",
"423 88 OFFCURVE",
"442 122 CURVE"
);
}
);
width = 390;
}
);
note = X;
unicode = 0058;
},
{
glyphname = Y;
layers = (
{
hints = (
{
horizontal = 1;
place = "{-30, 472}";
type = Stem;
},
{
place = "{142, 18}";
type = Stem;
}
);
layerId = "F07FC137-599D-4028-8184-32064863B81C";
paths = (
{
closed = 1;
nodes = (
"377 415 OFFCURVE",
"378 417 OFFCURVE",
"378 419 CURVE SMOOTH",
"378 430 OFFCURVE",
"363 443 OFFCURVE",
"351 443 CURVE SMOOTH",
"339 443 OFFCURVE",
"243 306 OFFCURVE",
"156 171 CURVE",
"141 277 OFFCURVE",
"85 437 OFFCURVE",
"40 437 CURVE",
"34 436 OFFCURVE",
"13 421 OFFCURVE",
"13 414 CURVE SMOOTH",
"13 413 OFFCURVE",
"13 412 OFFCURVE",
"14 412 CURVE",
"75 353 OFFCURVE",
"122 234 OFFCURVE",
"139 145 CURVE",
"88 66 OFFCURVE",
"47 -3 OFFCURVE",
"43 -23 CURVE",
"43 -28 OFFCURVE",
"47 -30 OFFCURVE",
"52 -30 CURVE SMOOTH",
"59 -30 OFFCURVE",
"67 -27 OFFCURVE",
"71 -24 CURVE",
"89 17 OFFCURVE",
"115 62 OFFCURVE",
"147 109 CURVE",
"148 108 OFFCURVE",
"149 107 OFFCURVE",
"151 107 CURVE SMOOTH",
"155 107 OFFCURVE",
"160 113 OFFCURVE",
"160 116 CURVE SMOOTH",
"160 128 LINE",
"225 223 OFFCURVE",
"307 324 OFFCURVE",
"376 413 CURVE"
);
}
);
width = 248;
}
);
note = Y;
unicode = 0059;
},
{
glyphname = Z;
layers = (
{
hints = (
{
horizontal = 1;
place = "{-12, 34}";
type = Stem;
},
{
horizontal = 1;
place = "{210, 20}";
type = Stem;
},
{
horizontal = 1;
place = "{394, 35}";
type = Stem;
},
{
place = "{13, 479}";
type = Stem;
}
);
layerId = "F07FC137-599D-4028-8184-32064863B81C";
paths = (
{
closed = 1;
nodes = (
"492 123 OFFCURVE",
"492 124 OFFCURVE",
"492 125 CURVE SMOOTH",
"492 128 OFFCURVE",
"489 131 OFFCURVE",
"486 131 CURVE SMOOTH",
"478 131 OFFCURVE",
"417 57 OFFCURVE",
"409 51 CURVE SMOOTH",
"381 29 OFFCURVE",
"349 22 OFFCURVE",
"316 22 CURVE SMOOTH",
"259 22 OFFCURVE",
"154 49 OFFCURVE",
"103 68 CURVE",
"234 203 LINE",
"329 213 OFFCURVE",
"368 217 OFFCURVE",
"368 227 CURVE SMOOTH",
"368 230 OFFCURVE",
"361 231 OFFCURVE",
"355 231 CURVE SMOOTH",
"335 231 OFFCURVE",
"313 226 OFFCURVE",
"292 226 CURVE SMOOTH",
"280 226 OFFCURVE",
"268 226 OFFCURVE",
"257 227 CURVE",
"311 281 OFFCURVE",
"367 337 OFFCURVE",
"420 385 CURVE",
"439 392 OFFCURVE",
"456 408 OFFCURVE",
"456 424 CURVE SMOOTH",
"456 434 OFFCURVE",
"452 438 OFFCURVE",
"446 438 CURVE SMOOTH",
"435 438 OFFCURVE",
"418 424 OFFCURVE",
"411 413 CURVE",
"392 417 OFFCURVE",
"250 428 OFFCURVE",
"229 429 CURVE SMOOTH",
"225 429 OFFCURVE",
"220 429 OFFCURVE",
"216 429 CURVE SMOOTH",
"145 429 OFFCURVE",
"103 411 OFFCURVE",
"87 326 CURVE",
"87 321 OFFCURVE",
"89 317 OFFCURVE",
"93 317 CURVE SMOOTH",
"96 317 OFFCURVE",
"99 319 OFFCURVE",
"101 327 CURVE SMOOTH",
"112 368 OFFCURVE",
"144 395 OFFCURVE",
"230 395 CURVE SMOOTH",
"286 395 OFFCURVE",
"342 392 OFFCURVE",
"390 383 CURVE",
"338 336 OFFCURVE",
"286 283 OFFCURVE",
"233 228 CURVE",
"210 230 LINE SMOOTH",
"202 230 OFFCURVE",
"182 235 OFFCURVE",
"165 235 CURVE SMOOTH",
"149 235 OFFCURVE",
"135 231 OFFCURVE",
"135 217 CURVE SMOOTH",
"135 206 OFFCURVE",
"147 198 OFFCURVE",
"157 198 CURVE SMOOTH",
"165 198 OFFCURVE",
"184 200 OFFCURVE",
"207 201 CURVE",
"83 72 LINE",
"49 72 OFFCURVE",
"14 43 OFFCURVE",
"13 3 CURVE SMOOTH",
"13 -2 OFFCURVE",
"15 -4 OFFCURVE",
"18 -4 CURVE SMOOTH",
"23 -4 OFFCURVE",
"38 0 OFFCURVE",
"53 15 CURVE",
"53 16 LINE",
"65 25 OFFCURVE",
"76 35 OFFCURVE",
"81 41 CURVE",
"158 9 OFFCURVE",
"301 -12 OFFCURVE",
"310 -12 CURVE SMOOTH",
"370 -12 OFFCURVE",
"453 54 OFFCURVE",
"491 122 CURVE"
);
}
);
width = 439;
}
);
note = Z;
unicode = 005A;
},
{
glyphname = bracketleft;
layers = (
{
hints = (
{
horizontal = 1;
place = "{-11, 23}";
type = Stem;
},
{
horizontal = 1;
place = "{417, 23}";
type = Stem;
},
{
place = "{57, 367}";
type = Stem;
}
);
layerId = "F07FC137-599D-4028-8184-32064863B81C";
paths = (
{
closed = 1;
nodes = (
"435 443 OFFCURVE",
"450 455 OFFCURVE",
"450 461 CURVE SMOOTH",
"450 463 OFFCURVE",
"448 466 OFFCURVE",
"440 466 CURVE SMOOTH",
"324 466 LINE SMOOTH",
"306 466 OFFCURVE",
"303 463 OFFCURVE",
"292 450 CURVE",
"241 376 OFFCURVE",
"-15 -46 OFFCURVE",
"-15 -91 CURVE SMOOTH",
"-15 -99 OFFCURVE",
"-10 -104 OFFCURVE",
"7 -104 CURVE SMOOTH",
"33 -104 OFFCURVE",
"141 -109 OFFCURVE",
"141 -80 CURVE SMOOTH",
"141 -78 OFFCURVE",
"138 -75 OFFCURVE",
"131 -75 CURVE SMOOTH",
"26 -75 LINE",
"102 99 OFFCURVE",
"262 346 OFFCURVE",
"328 437 CURVE",
"357 437 OFFCURVE",
"385 438 OFFCURVE",
"426 442 CURVE SMOOTH"
);
}
);
width = 358;
}
);
note = bracketleft;
unicode = 005B;
},
{
glyphname = backslash;
layers = (
{
hints = (
{
horizontal = 1;
place = "{-10, 451}";
type = Stem;
},
{
place = "{214, 29}";
type = Stem;
}
);
layerId = "F07FC137-599D-4028-8184-32064863B81C";
paths = (
{
closed = 1;
nodes = (
"69 372 OFFCURVE",
"176 153 OFFCURVE",
"214 6 CURVE SMOOTH",
"216 -4 OFFCURVE",
"227 -10 OFFCURVE",
"234 -10 CURVE SMOOTH",
"240 -10 OFFCURVE",
"243 -7 OFFCURVE",
"243 -1 CURVE SMOOTH",
"241 44 OFFCURVE",
"92 400 OFFCURVE",
"67 434 CURVE SMOOTH",
"63 439 OFFCURVE",
"55 442 OFFCURVE",
"48 442 CURVE SMOOTH",
"40 442 OFFCURVE",
"33 439 OFFCURVE",
"33 434 CURVE SMOOTH",
"33 433 OFFCURVE",
"33 432 OFFCURVE",
"34 431 CURVE"
);
}
);
width = 256;
}
);
note = backslash;
unicode = 005C;
},
{
glyphname = bracketright;
layers = (
{
hints = (
{
horizontal = 1;
place = "{-11, 23}";
type = Stem;
},
{
horizontal = 1;
place = "{417, 23}";
type = Stem;
},
{
place = "{51, 367}";
type = Stem;
}
);
layerId = "F07FC137-599D-4028-8184-32064863B81C";
paths = (
{
closed = 1;
nodes = (
"-10 -79 OFFCURVE",
"-25 -91 OFFCURVE",
"-25 -97 CURVE SMOOTH",
"-25 -99 OFFCURVE",
"-23 -102 OFFCURVE",
"-15 -102 CURVE SMOOTH",
"101 -102 LINE SMOOTH",
"119 -102 OFFCURVE",
"122 -99 OFFCURVE",
"133 -86 CURVE",
"184 -12 OFFCURVE",
"440 410 OFFCURVE",
"440 455 CURVE SMOOTH",
"440 463 OFFCURVE",
"435 468 OFFCURVE",
"418 468 CURVE SMOOTH",
"392 468 OFFCURVE",
"284 473 OFFCURVE",
"284 444 CURVE SMOOTH",
"284 442 OFFCURVE",
"287 439 OFFCURVE",
"294 439 CURVE SMOOTH",
"399 439 LINE",
"323 265 OFFCURVE",
"163 18 OFFCURVE",
"97 -73 CURVE",
"68 -73 OFFCURVE",
"40 -74 OFFCURVE",
"-1 -78 CURVE SMOOTH"
);
}
);
width = 358;
}
);
note = bracketright;
unicode = 005D;
},
{
glyphname = asciicircum;
layers = (
{
hints = (
{
horizontal = 1;
place = "{417, 107}";
type = Stem;
},
{
place = "{135, 234}";
type = Stem;
}
);
layerId = "F07FC137-599D-4028-8184-32064863B81C";
paths = (
{
closed = 1;
nodes = (
"345 462 OFFCURVE",
"314 517 OFFCURVE",
"288 524 CURVE",
"264 523 OFFCURVE",
"176 465 OFFCURVE",
"154 452 CURVE SMOOTH",
"145 447 OFFCURVE",
"134 433 OFFCURVE",
"134 426 CURVE SMOOTH",
"134 424 OFFCURVE",
"136 422 OFFCURVE",
"139 422 CURVE SMOOTH",
"142 422 OFFCURVE",
"148 424 OFFCURVE",
"156 428 CURVE SMOOTH",
"197 449 OFFCURVE",
"232 465 OFFCURVE",
"273 484 CURVE",
"297 465 OFFCURVE",
"342 417 OFFCURVE",
"355 417 CURVE SMOOTH",
"364 417 OFFCURVE",
"368 426 OFFCURVE",
"368 434 CURVE SMOOTH",
"368 438 OFFCURVE",
"367 442 OFFCURVE",
"365 444 CURVE SMOOTH"
);
}
);
width = 468;
}
);
note = asciicircum;
unicode = 005E;
},
{
glyphname = underscore;
layers = (
{
hints = (
{
horizontal = 1;
place = "{-43, 22}";
type = Stem;
},
{
place = "{0, 505}";
type = Stem;
}
);
layerId = "F07FC137-599D-4028-8184-32064863B81C";
paths = (
{
closed = 1;
nodes = (
"0 -43 LINE",
"505 -43 LINE",
"505 -21 LINE",
"0 -21 LINE"
);
}
);
width = 505;
}
);
note = underscore;
unicode = 005F;
},
{
glyphname = grave;
lastChange = "2020-01-24 17:38:55 +0000";
layers = (
{
background = {
hints = (
{
horizontal = 1;
place = "{274, 89}";
type = Stem;
},
{
place = "{50, 142}";
type = Stem;
}
);
paths = (
{
closed = 1;
nodes = (
"150 311 OFFCURVE",
"92 363 OFFCURVE",
"68 363 CURVE SMOOTH",
"55 363 OFFCURVE",
"50 355 OFFCURVE",
"50 351 CURVE SMOOTH",
"50 327 OFFCURVE",
"166 274 OFFCURVE",
"185 274 CURVE SMOOTH",
"190 274 OFFCURVE",
"192 276 OFFCURVE",
"192 278 CURVE SMOOTH",
"192 280 OFFCURVE",
"190 282 OFFCURVE",
"188 283 CURVE SMOOTH"
);
}
);
};
layerId = "F07FC137-599D-4028-8184-32064863B81C";
paths = (
{
closed = 1;
nodes = (
"86 335 OFFCURVE",
"162 282 OFFCURVE",
"175 279 CURVE SMOOTH",
"178 279 OFFCURVE",
"180 279 OFFCURVE",
"181 281 CURVE SMOOTH",
"182 289 OFFCURVE",
"100 373 OFFCURVE",
"96 374 CURVE SMOOTH",
"81 377 OFFCURVE",
"73 368 OFFCURVE",
"72 361 CURVE SMOOTH",
"71 358 OFFCURVE",
"71 354 OFFCURVE",
"73 352 CURVE SMOOTH",
"74 351 LINE SMOOTH"
);
}
);
width = 274;
}
);
note = grave;
unicode = 0060;
},
{
glyphname = a;
layers = (
{
hints = (
{
horizontal = 1;
place = "{-8, 20}";
type = Stem;
},
{
horizontal = 1;
place = "{231, 24}";
type = Stem;
}
);
layerId = "F07FC137-599D-4028-8184-32064863B81C";
paths = (
{
closed = 1;
nodes = (
"136 1 OFFCURVE",
"212 113 OFFCURVE",
"226 119 CURVE",
"215 91 OFFCURVE",
"206 43 OFFCURVE",
"213 22 CURVE SMOOTH",
"229 -26 OFFCURVE",
"288 -7 OFFCURVE",
"314 12 CURVE SMOOTH",
"354 41 OFFCURVE",
"401 92 OFFCURVE",
"418 121 CURVE SMOOTH",
"422 128 OFFCURVE",
"412 134 OFFCURVE",
"408 128 CURVE SMOOTH",
"375 82 OFFCURVE",
"315 31 OFFCURVE",
"289 17 CURVE SMOOTH",
"263 3 OFFCURVE",
"247 22 OFFCURVE",
"252 56 CURVE SMOOTH",
"255 82 OFFCURVE",
"271 131 OFFCURVE",
"300 172 CURVE",
"307 185 OFFCURVE",
"276 191 OFFCURVE",
"268 191 CURVE SMOOTH",
"261 191 OFFCURVE",
"200 124 OFFCURVE",
"189 112 CURVE SMOOTH",
"168 90 OFFCURVE",
"132 59 OFFCURVE",
"111 42 CURVE SMOOTH",
"100 33 OFFCURVE",
"61 4 OFFCURVE",
"50 20 CURVE SMOOTH",
"25 55 OFFCURVE",
"91 131 OFFCURVE",
"114 152 CURVE SMOOTH",
"155 189 OFFCURVE",
"211 221 OFFCURVE",
"253 221 CURVE SMOOTH",
"268 221 OFFCURVE",
"284 219 OFFCURVE",
"293 206 CURVE",
"297 204 OFFCURVE",
"298 204 OFFCURVE",
"298 210 CURVE SMOOTH",
"298 218 OFFCURVE",
"292 226 OFFCURVE",
"284 231 CURVE SMOOTH",
"263 246 OFFCURVE",
"228 244 OFFCURVE",
"204 238 CURVE SMOOTH",
"144 223 OFFCURVE",
"-38 103 OFFCURVE",
"21 28 CURVE SMOOTH",
"33 12 OFFCURVE",
"55 1 OFFCURVE",
"72 1 CURVE SMOOTH"
);
}
);
width = 366;
}
);
note = a;
unicode = 0061;
},
{
glyphname = b;
layers = (
{
hints = (
{
horizontal = 1;
place = "{-83, 15}";
type = Stem;
},
{
place = "{187, 44}";
type = Stem;
}
);
layerId = "F07FC137-599D-4028-8184-32064863B81C";
paths = (
{
closed = 1;
nodes = (
"60 167 OFFCURVE",
"20 65 OFFCURVE",
"22 29 CURVE",
"26 12 OFFCURVE",
"57 30 OFFCURVE",
"55 39 CURVE SMOOTH",
"52 54 OFFCURVE",
"58 74 OFFCURVE",
"62 83 CURVE SMOOTH",
"75 110 OFFCURVE",
"101 134 OFFCURVE",
"131 159 CURVE SMOOTH",
"154 179 OFFCURVE",
"192 210 OFFCURVE",
"225 210 CURVE SMOOTH",
"249 210 OFFCURVE",
"238 168 OFFCURVE",
"234 155 CURVE SMOOTH",
"219 111 OFFCURVE",
"180 72 OFFCURVE",
"148 49 CURVE SMOOTH",
"117 27 OFFCURVE",
"62 -9 OFFCURVE",
"22 -9 CURVE SMOOTH",
"12 -9 LINE SMOOTH",
"-1 -9 OFFCURVE",
"0 -15 OFFCURVE",
"10 -19 CURVE SMOOTH",
"16 -21 OFFCURVE",
"24 -22 OFFCURVE",
"33 -22 CURVE SMOOTH",
"82 -22 OFFCURVE",
"128 -3 OFFCURVE",
"168 24 CURVE SMOOTH",
"212 53 OFFCURVE",
"290 121 OFFCURVE",
"282 182 CURVE SMOOTH",
"279 202 OFFCURVE",
"244 224 OFFCURVE",
"225 226 CURVE SMOOTH",
"198 229 OFFCURVE",
"163 210 OFFCURVE",
"128 180 CURVE SMOOTH",
"113 167 OFFCURVE",
"91 145 OFFCURVE",
"73 123 CURVE",
"100 209 OFFCURVE",
"145 288 OFFCURVE",
"185 366 CURVE SMOOTH",
"191 378 OFFCURVE",
"196 375 OFFCURVE",
"202 386 CURVE SMOOTH",
"211 402 OFFCURVE",
"218 419 OFFCURVE",
"222 436 CURVE SMOOTH",
"226 451 OFFCURVE",
"194 476 OFFCURVE",
"185 466 CURVE SMOOTH",
"172 450 OFFCURVE",
"131 354 OFFCURVE",
"94 255 CURVE SMOOTH"
);
}
);
width = 283;
}
);
note = b;
unicode = 0062;
},
{
glyphname = c;
layers = (
{
hints = (
{
horizontal = 1;
place = "{-11, 17}";
type = Stem;
},
{
horizontal = 1;
place = "{196, 27}";
type = Stem;
}
);
layerId = "F07FC137-599D-4028-8184-32064863B81C";
paths = (
{
closed = 1;
nodes = (
"302 130 OFFCURVE",
"298 133 OFFCURVE",
"294 128 CURVE SMOOTH",
"248 70 OFFCURVE",
"209 33 OFFCURVE",
"137 12 CURVE SMOOTH",
"91 -1 OFFCURVE",
"45 4 OFFCURVE",
"63 63 CURVE SMOOTH",
"85 136 OFFCURVE",
"184 218 OFFCURVE",
"225 218 CURVE SMOOTH",
"233 218 OFFCURVE",
"237 209 OFFCURVE",
"237 202 CURVE SMOOTH",
"237 197 OFFCURVE",
"234 191 OFFCURVE",
"233 186 CURVE SMOOTH",
"232 183 OFFCURVE",
"233 179 OFFCURVE",
"236 177 CURVE",
"242 170 OFFCURVE",
"255 199 OFFCURVE",
"256 204 CURVE SMOOTH",
"262 225 OFFCURVE",
"250 235 OFFCURVE",
"235 240 CURVE SMOOTH",
"175 260 OFFCURVE",
"51 155 OFFCURVE",
"27 101 CURVE SMOOTH",
"-9 18 OFFCURVE",
"49 -22 OFFCURVE",
"126 -9 CURVE SMOOTH",
"205 5 OFFCURVE",
"258 56 OFFCURVE",
"303 118 CURVE SMOOTH",
"305 121 OFFCURVE",
"307 128 OFFCURVE",
"303 130 CURVE"
);
}
);
width = 252;
}
);
note = c;
unicode = 0063;
},
{
glyphname = d;
layers = (
{
hints = (
{
horizontal = 1;
place = "{-4, 13}";
type = Stem;
},
{
horizontal = 1;
place = "{464, 21}";
type = Stem;
},
{
place = "{623, 38}";
type = Stem;
}
);
layerId = "F07FC137-599D-4028-8184-32064863B81C";
paths = (
{
closed = 1;
nodes = (
"431 129 OFFCURVE",
"422 134 OFFCURVE",
"417 128 CURVE SMOOTH",
"384 82 OFFCURVE",
"324 31 OFFCURVE",
"298 17 CURVE SMOOTH",
"285 10 OFFCURVE",
"272 12 OFFCURVE",
"268 21 CURVE SMOOTH",
"258 42 OFFCURVE",
"268 90 OFFCURVE",
"279 125 CURVE SMOOTH",
"306 208 OFFCURVE",
"350 289 OFFCURVE",
"390 366 CURVE SMOOTH",
"395 376 OFFCURVE",
"402 377 OFFCURVE",
"408 387 CURVE SMOOTH",
"421 410 OFFCURVE",
"427 429 OFFCURVE",
"427 440 CURVE SMOOTH",
"427 455 OFFCURVE",
"398 476 OFFCURVE",
"389 466 CURVE SMOOTH",
"382 457 OFFCURVE",
"366 419 OFFCURVE",
"347 374 CURVE SMOOTH",
"332 339 OFFCURVE",
"316 299 OFFCURVE",
"300 258 CURVE SMOOTH",
"296 249 OFFCURVE",
"292 239 OFFCURVE",
"287 229 CURVE",
"284 231 LINE SMOOTH",
"263 245 OFFCURVE",
"228 244 OFFCURVE",
"204 238 CURVE SMOOTH",
"144 223 OFFCURVE",
"-38 103 OFFCURVE",
"21 28 CURVE SMOOTH",
"33 12 OFFCURVE",
"55 1 OFFCURVE",
"72 1 CURVE SMOOTH",
"120 1 OFFCURVE",
"205 93 OFFCURVE",
"254 150 CURVE",
"257 152 OFFCURVE",
"259 155 OFFCURVE",
"262 158 CURVE",
"258 148 OFFCURVE",
"255 139 OFFCURVE",
"252 130 CURVE SMOOTH",
"243 105 OFFCURVE",
"225 65 OFFCURVE",
"225 33 CURVE SMOOTH",
"225 29 LINE SMOOTH",
"225 7 OFFCURVE",
"234 -9 OFFCURVE",
"258 -10 CURVE SMOOTH",
"281 -11 OFFCURVE",
"308 1 OFFCURVE",
"324 12 CURVE SMOOTH",
"340 24 OFFCURVE",
"359 40 OFFCURVE",
"375 57 CURVE SMOOTH",
"398 81 OFFCURVE",
"419 106 OFFCURVE",
"427 122 CURVE SMOOTH"
);
},
{
closed = 1;
nodes = (
"277 207 OFFCURVE",
"274 198 OFFCURVE",
"270 189 CURVE",
"222 138 OFFCURVE",
"165 86 OFFCURVE",
"111 42 CURVE SMOOTH",
"100 33 OFFCURVE",
"61 4 OFFCURVE",
"50 20 CURVE SMOOTH",
"25 55 OFFCURVE",
"91 131 OFFCURVE",
"114 152 CURVE SMOOTH",
"155 189 OFFCURVE",
"211 221 OFFCURVE",
"253 221 CURVE SMOOTH",
"263 221 OFFCURVE",
"273 220 OFFCURVE",
"281 216 CURVE"
);
}
);
width = 375;
}
);
note = d;
unicode = 0064;
},
{
glyphname = e;
layers = (
{
hints = (
{
horizontal = 1;
place = "{-5, 119}";
type = Stem;
},
{
horizontal = 1;
place = "{223, 20}";
type = Stem;
},
{
place = "{7, 33}";
type = Stem;
}
);
layerId = "F07FC137-599D-4028-8184-32064863B81C";
paths = (
{
closed = 1;
nodes = (
"310 122 OFFCURVE",
"310 127 OFFCURVE",
"306 129 CURVE SMOOTH",
"304 130 OFFCURVE",
"300 130 OFFCURVE",
"297 126 CURVE SMOOTH",
"266 86 OFFCURVE",
"216 40 OFFCURVE",
"157 16 CURVE SMOOTH",
"105 -5 OFFCURVE",
"43 -4 OFFCURVE",
"63 63 CURVE SMOOTH",
"81 122 OFFCURVE",
"150 188 OFFCURVE",
"197 210 CURVE SMOOTH",
"208 215 OFFCURVE",
"237 227 OFFCURVE",
"238 205 CURVE SMOOTH",
"239 187 OFFCURVE",
"215 163 OFFCURVE",
"202 153 CURVE SMOOTH",
"172 129 OFFCURVE",
"127 103 OFFCURVE",
"102 101 CURVE SMOOTH",
"90 100 OFFCURVE",
"95 89 OFFCURVE",
"107 90 CURVE SMOOTH",
"143 93 OFFCURVE",
"219 123 OFFCURVE",
"248 166 CURVE SMOOTH",
"263 188 OFFCURVE",
"268 229 OFFCURVE",
"235 240 CURVE SMOOTH",
"175 260 OFFCURVE",
"51 155 OFFCURVE",
"27 101 CURVE SMOOTH",
"-17 0 OFFCURVE",
"86 -33 OFFCURVE",
"167 0 CURVE SMOOTH",
"223 23 OFFCURVE",
"271 66 OFFCURVE",
"307 118 CURVE SMOOTH"
);
}
);
width = 256;
}
);
note = e;
unicode = 0065;
},
{
glyphname = f;
layers = (
{
hints = (
{
horizontal = 1;
place = "{-278, 21}";
type = Stem;
},
{
place = "{30, 46}";
type = Stem;
},
{
place = "{86, 251}";
type = Stem;
}
);
layerId = "F07FC137-599D-4028-8184-32064863B81C";
paths = (
{
closed = 1;
nodes = (
"384 449 OFFCURVE",
"366 465 OFFCURVE",
"343 473 CURVE SMOOTH",
"252 506 OFFCURVE",
"191 381 OFFCURVE",
"164 316 CURVE SMOOTH",
"140 259 OFFCURVE",
"118 193 OFFCURVE",
"112 177 CURVE",
"110 177 LINE SMOOTH",
"103 177 OFFCURVE",
"100 190 OFFCURVE",
"87 190 CURVE SMOOTH",
"75 190 OFFCURVE",
"39 181 OFFCURVE",
"39 167 CURVE SMOOTH",
"40 156 OFFCURVE",
"52 149 OFFCURVE",
"62 149 CURVE SMOOTH",
"69 149 OFFCURVE",
"85 151 OFFCURVE",
"104 153 CURVE",
"95 126 OFFCURVE",
"71 58 OFFCURVE",
"65 38 CURVE SMOOTH",
"31 -65 OFFCURVE",
"-3 -164 OFFCURVE",
"-49 -261 CURVE SMOOTH",
"-60 -285 OFFCURVE",
"-13 -265 OFFCURVE",
"-1 -258 CURVE SMOOTH",
"11 -251 OFFCURVE",
"12 -238 OFFCURVE",
"29 -189 CURVE SMOOTH",
"37 -167 OFFCURVE",
"23 -176 OFFCURVE",
"45 -108 CURVE SMOOTH",
"65 -45 OFFCURVE",
"116 100 OFFCURVE",
"136 157 CURVE",
"186 163 OFFCURVE",
"242 171 OFFCURVE",
"255 175 CURVE SMOOTH",
"290 185 OFFCURVE",
"268 189 OFFCURVE",
"255 189 CURVE SMOOTH",
"218 189 OFFCURVE",
"182 184 OFFCURVE",
"145 180 CURVE",
"147 186 OFFCURVE",
"149 191 OFFCURVE",
"150 194 CURVE SMOOTH",
"155 206 OFFCURVE",
"170 238 OFFCURVE",
"197 294 CURVE SMOOTH",
"212 325 OFFCURVE",
"229 356 OFFCURVE",
"245 383 CURVE SMOOTH",
"315 497 OFFCURVE",
"380 460 OFFCURVE",
"346 398 CURVE SMOOTH",
"334 376 OFFCURVE",
"334 366 OFFCURVE",
"348 371 CURVE SMOOTH",
"372 379 OFFCURVE",
"384 405 OFFCURVE",
"384 425 CURVE SMOOTH"
);
}
);
width = 238;
}
);
note = f;
unicode = 0066;
},
{
glyphname = g;
layers = (
{
hints = (
{
horizontal = 1;
place = "{-248, 13}";
type = Stem;
},
{
horizontal = 1;
place = "{5, -20}";
target = down;
type = TopGhost;
}
);
layerId = "F07FC137-599D-4028-8184-32064863B81C";
paths = (
{
closed = 1;
nodes = (
"402 136 OFFCURVE",
"398 155 OFFCURVE",
"377 131 CURVE SMOOTH",
"327 74 OFFCURVE",
"266 36 OFFCURVE",
"245 25 CURVE",
"275 88 OFFCURVE",
"295 127 OFFCURVE",
"315 171 CURVE SMOOTH",
"319 180 OFFCURVE",
"269 202 OFFCURVE",
"262 183 CURVE",
"232 147 OFFCURVE",
"180 92 OFFCURVE",
"130 53 CURVE SMOOTH",
"98 28 OFFCURVE",
"60 7 OFFCURVE",
"51 20 CURVE SMOOTH",
"26 55 OFFCURVE",
"91 131 OFFCURVE",
"115 152 CURVE SMOOTH",
"156 189 OFFCURVE",
"212 221 OFFCURVE",
"254 221 CURVE SMOOTH",
"269 221 OFFCURVE",
"285 219 OFFCURVE",
"293 206 CURVE",
"297 204 OFFCURVE",
"299 204 OFFCURVE",
"299 210 CURVE SMOOTH",
"299 218 OFFCURVE",
"293 226 OFFCURVE",
"285 231 CURVE SMOOTH",
"264 246 OFFCURVE",
"228 244 OFFCURVE",
"205 238 CURVE SMOOTH",
"145 223 OFFCURVE",
"-37 103 OFFCURVE",
"22 28 CURVE SMOOTH",
"34 12 OFFCURVE",
"56 1 OFFCURVE",
"73 1 CURVE SMOOTH",
"113 1 OFFCURVE",
"159 48 OFFCURVE",
"189 81 CURVE SMOOTH",
"201 94 OFFCURVE",
"231 130 OFFCURVE",
"253 156 CURVE",
"234 97 OFFCURVE",
"207 40 OFFCURVE",
"180 -15 CURVE",
"99 -52 OFFCURVE",
"12 -79 OFFCURVE",
"-61 -132 CURVE SMOOTH",
"-101 -161 OFFCURVE",
"-126 -199 OFFCURVE",
"-127 -231 CURVE SMOOTH",
"-130 -315 OFFCURVE",
"-17 -314 OFFCURVE",
"37 -285 CURVE SMOOTH",
"75 -265 OFFCURVE",
"112 -232 OFFCURVE",
"129 -206 CURVE SMOOTH",
"155 -168 OFFCURVE",
"195 -81 OFFCURVE",
"229 -10 CURVE",
"260 7 OFFCURVE",
"346 72 OFFCURVE",
"381 112 CURVE SMOOTH"
);
},
{
closed = 1;
nodes = (
"138 -105 OFFCURVE",
"91 -208 OFFCURVE",
"28 -259 CURVE SMOOTH",
"-78 -345 OFFCURVE",
"-149 -225 OFFCURVE",
"-22 -133 CURVE SMOOTH",
"37 -90 OFFCURVE",
"105 -66 OFFCURVE",
"171 -37 CURVE"
);
}
);
width = 333;
}
);
note = g;
unicode = 0067;
},
{
glyphname = h;
layers = (
{
hints = (
{
horizontal = 1;
place = "{-25, 11}";
type = Stem;
},
{
horizontal = 1;
place = "{181, 12}";
type = Stem;
},
{
horizontal = 1;
place = "{515, 20}";
type = Stem;
},
{
place = "{-18, 21}";
type = Stem;
},
{
place = "{137, 46}";
type = Stem;
},
{
place = "{303, 36}";
type = Stem;
}
);
layerId = "F07FC137-599D-4028-8184-32064863B81C";
paths = (
{
closed = 1;
nodes = (
"391 129 OFFCURVE",
"382 134 OFFCURVE",
"377 128 CURVE SMOOTH",
"344 82 OFFCURVE",
"284 31 OFFCURVE",
"258 17 CURVE SMOOTH",
"232 3 OFFCURVE",
"216 22 OFFCURVE",
"221 56 CURVE SMOOTH",
"223 74 OFFCURVE",
"232 104 OFFCURVE",
"247 135 CURVE SMOOTH",
"259 158 OFFCURVE",
"285 194 OFFCURVE",
"283 220 CURVE SMOOTH",
"281 245 OFFCURVE",
"252 243 OFFCURVE",
"215 215 CURVE SMOOTH",
"171 181 OFFCURVE",
"95 99 OFFCURVE",
"61 56 CURVE",
"86 163 OFFCURVE",
"139 268 OFFCURVE",
"190 366 CURVE SMOOTH",
"197 380 OFFCURVE",
"207 380 OFFCURVE",
"213 393 CURVE SMOOTH",
"218 404 OFFCURVE",
"228 426 OFFCURVE",
"229 440 CURVE SMOOTH",
"229 448 OFFCURVE",
"206 477 OFFCURVE",
"191 468 CURVE SMOOTH",
"176 458 OFFCURVE",
"77 193 OFFCURVE",
"57 139 CURVE SMOOTH",
"35 80 OFFCURVE",
"9 5 OFFCURVE",
"5 -5 CURVE SMOOTH",
"-3 -20 OFFCURVE",
"40 -1 OFFCURVE",
"48 3 CURVE SMOOTH",
"63 12 OFFCURVE",
"130 118 OFFCURVE",
"176 159 CURVE SMOOTH",
"234 210 OFFCURVE",
"238 191 OFFCURVE",
"224 165 CURVE SMOOTH",
"208 135 OFFCURVE",
"185 94 OFFCURVE",
"181 60 CURVE SMOOTH",
"179 45 OFFCURVE",
"179 31 OFFCURVE",
"182 22 CURVE SMOOTH",
"198 -26 OFFCURVE",
"258 -7 OFFCURVE",
"284 12 CURVE SMOOTH",
"300 24 OFFCURVE",
"318 40 OFFCURVE",
"335 57 CURVE SMOOTH",
"358 81 OFFCURVE",
"378 106 OFFCURVE",
"387 122 CURVE SMOOTH"
);
}
);
width = 335;
}
);
note = h;
unicode = 0068;
},
{
glyphname = i;
layers = (
{
hints = (
{
horizontal = 1;
place = "{-13, 19}";
type = Stem;
},
{
place = "{8, 34}";
type = Stem;
}
);
layerId = "F07FC137-599D-4028-8184-32064863B81C";
paths = (
{
closed = 1;
nodes = (
"191 377 OFFCURVE",
"211 405 OFFCURVE",
"178 379 CURVE SMOOTH",
"173 375 OFFCURVE",
"130 343 OFFCURVE",
"130 339 CURVE SMOOTH",
"130 322 OFFCURVE",
"150 322 OFFCURVE",
"164 322 CURVE SMOOTH",
"172 322 OFFCURVE",
"191 352 OFFCURVE",
"191 361 CURVE SMOOTH"
);
},
{
closed = 1;
nodes = (
"55 155 OFFCURVE",
"37 110 OFFCURVE",
"31 93 CURVE SMOOTH",
"20 64 OFFCURVE",
"13 36 OFFCURVE",
"18 22 CURVE SMOOTH",
"34 -26 OFFCURVE",
"93 -7 OFFCURVE",
"119 12 CURVE SMOOTH",
"136 25 OFFCURVE",
"155 42 OFFCURVE",
"172 59 CURVE SMOOTH",
"195 82 OFFCURVE",
"214 106 OFFCURVE",
"223 122 CURVE SMOOTH",
"227 129 OFFCURVE",
"217 134 OFFCURVE",
"213 128 CURVE SMOOTH",
"180 82 OFFCURVE",
"120 31 OFFCURVE",
"94 17 CURVE SMOOTH",
"68 3 OFFCURVE",
"52 22 OFFCURVE",
"57 56 CURVE SMOOTH",
"60 82 OFFCURVE",
"81 124 OFFCURVE",
"105 172 CURVE SMOOTH",
"117 197 OFFCURVE",
"126 212 OFFCURVE",
"121 222 CURVE SMOOTH",
"117 230 OFFCURVE",
"104 232 OFFCURVE",
"93 231 CURVE SMOOTH",
"82 229 OFFCURVE",
"68 201 OFFCURVE",
"63 183 CURVE SMOOTH",
"62 178 OFFCURVE",
"60 169 OFFCURVE",
"61 167 CURVE"
);
}
);
width = 172;
}
);
note = i;
unicode = 0069;
},
{
glyphname = j;
layers = (
{
hints = (
{
horizontal = 1;
place = "{-267, 20}";
type = Stem;
},
{
place = "{191, 55}";
type = Stem;
}
);
layerId = "F07FC137-599D-4028-8184-32064863B81C";
paths = (
{
closed = 1;
nodes = (
"216 377 OFFCURVE",
"236 405 OFFCURVE",
"203 379 CURVE SMOOTH",
"198 375 OFFCURVE",
"155 343 OFFCURVE",
"155 339 CURVE SMOOTH",
"155 322 OFFCURVE",
"175 322 OFFCURVE",
"189 322 CURVE SMOOTH",
"197 322 OFFCURVE",
"216 352 OFFCURVE",
"216 361 CURVE SMOOTH"
);
},
{
closed = 1;
nodes = (
"88 41 LINE SMOOTH",
"113 98 OFFCURVE",
"132 141 OFFCURVE",
"158 200 CURVE SMOOTH",
"162 209 OFFCURVE",
"123 233 OFFCURVE",
"109 215 CURVE SMOOTH",
"94 196 OFFCURVE",
"63 154 OFFCURVE",
"37 121 CURVE SMOOTH",
"29 112 OFFCURVE",
"38 101 OFFCURVE",
"46 112 CURVE SMOOTH",
"60 130 OFFCURVE",
"86 159 OFFCURVE",
"97 174 CURVE",
"74 102 OFFCURVE",
"52 52 OFFCURVE",
"19 -15 CURVE",
"-62 -52 OFFCURVE",
"-149 -79 OFFCURVE",
"-222 -132 CURVE SMOOTH",
"-262 -161 OFFCURVE",
"-287 -199 OFFCURVE",
"-288 -231 CURVE SMOOTH",
"-291 -315 OFFCURVE",
"-179 -315 OFFCURVE",
"-126 -286 CURVE SMOOTH",
"-29 -234 OFFCURVE",
"10 -128 OFFCURVE",
"55 -32 CURVE SMOOTH",
"59 -23 LINE",
"73 -19 OFFCURVE",
"92 -16 OFFCURVE",
"107 -16 CURVE SMOOTH",
"126 -16 OFFCURVE",
"143 -23 OFFCURVE",
"149 -34 CURVE SMOOTH",
"154 -43 OFFCURVE",
"163 -34 OFFCURVE",
"158 -25 CURVE SMOOTH",
"143 0 OFFCURVE",
"100 2 OFFCURVE",
"68 -3 CURVE"
);
},
{
closed = 1;
nodes = (
"-23 -105 OFFCURVE",
"-72 -208 OFFCURVE",
"-137 -259 CURVE SMOOTH",
"-246 -346 OFFCURVE",
"-319 -225 OFFCURVE",
"-189 -132 CURVE SMOOTH",
"-128 -88 OFFCURVE",
"-56 -66 OFFCURVE",
"10 -37 CURVE"
);
}
);
width = 172;
}
);
note = j;
unicode = 006A;
},
{
glyphname = k;
layers = (
{
hints = (
{
horizontal = 1;
place = "{-238, 20}";
type = Stem;
},
{
place = "{194, 24}";
type = Stem;
},
{
place = "{298, 11}";
type = Stem;
}
);
layerId = "F07FC137-599D-4028-8184-32064863B81C";
paths = (
{
closed = 1;
nodes = (
"304 228 OFFCURVE",
"272 259 OFFCURVE",
"235 241 CURVE SMOOTH",
"208 228 OFFCURVE",
"179 200 OFFCURVE",
"151 168 CURVE",
"158 193 OFFCURVE",
"138 179 OFFCURVE",
"136 169 CURVE",
"133 161 OFFCURVE",
"130 151 OFFCURVE",
"127 139 CURVE",
"104 109 OFFCURVE",
"83 78 OFFCURVE",
"68 56 CURVE",
"94 169 OFFCURVE",
"146 268 OFFCURVE",
"197 366 CURVE SMOOTH",
"204 380 OFFCURVE",
"214 380 OFFCURVE",
"220 393 CURVE SMOOTH",
"225 404 OFFCURVE",
"235 426 OFFCURVE",
"236 440 CURVE SMOOTH",
"236 448 OFFCURVE",
"213 477 OFFCURVE",
"198 468 CURVE SMOOTH",
"190 463 OFFCURVE",
"132 319 OFFCURVE",
"106 255 CURVE SMOOTH",
"91 217 OFFCURVE",
"78 178 OFFCURVE",
"64 140 CURVE SMOOTH",
"55 118 OFFCURVE",
"14 3 OFFCURVE",
"10 -5 CURVE SMOOTH",
"3 -20 OFFCURVE",
"46 -1 OFFCURVE",
"54 3 CURVE SMOOTH",
"58 5 OFFCURVE",
"62 12 OFFCURVE",
"67 21 CURVE SMOOTH",
"85 53 OFFCURVE",
"102 82 OFFCURVE",
"122 108 CURVE",
"114 56 OFFCURVE",
"120 -5 OFFCURVE",
"176 -8 CURVE SMOOTH",
"198 -9 OFFCURVE",
"217 8 OFFCURVE",
"232 19 CURVE SMOOTH",
"254 35 OFFCURVE",
"276 58 OFFCURVE",
"295 80 CURVE SMOOTH",
"310 97 OFFCURVE",
"323 113 OFFCURVE",
"332 125 CURVE SMOOTH",
"339 133 OFFCURVE",
"323 136 OFFCURVE",
"317 128 CURVE SMOOTH",
"284 82 OFFCURVE",
"232 37 OFFCURVE",
"206 24 CURVE SMOOTH",
"180 10 OFFCURVE",
"158 32 OFFCURVE",
"150 63 CURVE SMOOTH",
"144 88 OFFCURVE",
"143 115 OFFCURVE",
"145 136 CURVE",
"155 147 OFFCURVE",
"166 157 OFFCURVE",
"178 167 CURVE SMOOTH",
"211 194 OFFCURVE",
"244 199 OFFCURVE",
"266 210 CURVE SMOOTH"
);
}
);
width = 275;
}
);
note = k;
unicode = 006B;
},
{
glyphname = l;
layers = (
{
hints = (
{
horizontal = 1;
place = "{-16, 15}";
type = Stem;
},
{
horizontal = 1;
place = "{437, 20}";
type = Stem;
},
{
place = "{-242, 31}";
type = Stem;
},
{
place = "{48, 29}";
type = Stem;
}
);
layerId = "F07FC137-599D-4028-8184-32064863B81C";
paths = (
{
closed = 1;
nodes = (
"225 129 OFFCURVE",
"215 134 OFFCURVE",
"211 128 CURVE SMOOTH",
"178 82 OFFCURVE",
"117 31 OFFCURVE",
"92 17 CURVE SMOOTH",
"78 10 OFFCURVE",
"65 12 OFFCURVE",
"61 21 CURVE SMOOTH",
"51 42 OFFCURVE",
"61 90 OFFCURVE",
"72 125 CURVE SMOOTH",
"99 208 OFFCURVE",
"143 289 OFFCURVE",
"183 366 CURVE SMOOTH",
"188 376 OFFCURVE",
"196 377 OFFCURVE",
"201 387 CURVE SMOOTH",
"214 410 OFFCURVE",
"220 429 OFFCURVE",
"220 440 CURVE SMOOTH",
"220 455 OFFCURVE",
"191 476 OFFCURVE",
"182 466 CURVE SMOOTH",
"175 457 OFFCURVE",
"159 419 OFFCURVE",
"140 374 CURVE SMOOTH",
"109 302 OFFCURVE",
"71 204 OFFCURVE",
"45 130 CURVE SMOOTH",
"36 105 OFFCURVE",
"18 65 OFFCURVE",
"18 33 CURVE SMOOTH",
"18 29 LINE SMOOTH",
"18 7 OFFCURVE",
"27 -9 OFFCURVE",
"51 -10 CURVE SMOOTH",
"74 -11 OFFCURVE",
"102 1 OFFCURVE",
"117 12 CURVE SMOOTH",
"134 24 OFFCURVE",
"152 40 OFFCURVE",
"169 57 CURVE SMOOTH",
"192 81 OFFCURVE",
"212 106 OFFCURVE",
"221 122 CURVE SMOOTH"
);
}
);
width = 169;
}
);
note = l;
unicode = 006C;
},
{
glyphname = m;
layers = (
{
hints = (
{
place = "{200, 58}";
type = Stem;
},
{
place = "{295, 38}";
type = Stem;
}
);
layerId = "F07FC137-599D-4028-8184-32064863B81C";
paths = (
{
closed = 1;
nodes = (
"502 129 OFFCURVE",
"492 134 OFFCURVE",
"488 128 CURVE SMOOTH",
"455 82 OFFCURVE",
"395 31 OFFCURVE",
"369 17 CURVE SMOOTH",
"343 3 OFFCURVE",
"327 22 OFFCURVE",
"332 56 CURVE SMOOTH",
"335 82 OFFCURVE",
"354 137 OFFCURVE",
"382 179 CURVE SMOOTH",
"404 212 OFFCURVE",
"348 193 OFFCURVE",
"339 190 CURVE SMOOTH",
"303 176 OFFCURVE",
"257 138 OFFCURVE",
"229 112 CURVE",
"236 125 OFFCURVE",
"251 160 OFFCURVE",
"259 175 CURVE SMOOTH",
"293 242 OFFCURVE",
"256 255 OFFCURVE",
"204 215 CURVE SMOOTH",
"160 181 OFFCURVE",
"90 106 OFFCURVE",
"57 64 CURVE",
"66 90 OFFCURVE",
"92 161 OFFCURVE",
"112 205 CURVE SMOOTH",
"118 218 OFFCURVE",
"119 225 OFFCURVE",
"106 228 CURVE SMOOTH",
"70 238 OFFCURVE",
"67 210 OFFCURVE",
"65 196 CURVE",
"59 177 OFFCURVE",
"22 55 OFFCURVE",
"-6 -5 CURVE SMOOTH",
"-13 -20 OFFCURVE",
"29 -1 OFFCURVE",
"37 3 CURVE SMOOTH",
"52 12 OFFCURVE",
"119 118 OFFCURVE",
"165 159 CURVE SMOOTH",
"223 210 OFFCURVE",
"230 193 OFFCURVE",
"216 167 CURVE SMOOTH",
"209 154 OFFCURVE",
"184 106 OFFCURVE",
"168 67 CURVE SMOOTH",
"156 37 OFFCURVE",
"198 44 OFFCURVE",
"208 67 CURVE",
"232 92 OFFCURVE",
"280 148 OFFCURVE",
"329 167 CURVE",
"321 155 OFFCURVE",
"312 134 OFFCURVE",
"306 119 CURVE SMOOTH",
"295 91 OFFCURVE",
"286 43 OFFCURVE",
"293 22 CURVE SMOOTH",
"309 -26 OFFCURVE",
"368 -7 OFFCURVE",
"394 12 CURVE SMOOTH",
"411 24 OFFCURVE",
"429 41 OFFCURVE",
"446 58 CURVE SMOOTH",
"469 81 OFFCURVE",
"489 106 OFFCURVE",
"498 122 CURVE SMOOTH"
);
}
);
width = 446;
}
);
note = m;
unicode = 006D;
},
{
glyphname = n;
layers = (
{
hints = (
{
place = "{1, 25}";
type = Stem;
},
{
place = "{158, 39}";
type = Stem;
}
);
layerId = "F07FC137-599D-4028-8184-32064863B81C";
paths = (
{
closed = 1;
nodes = (
"383 129 OFFCURVE",
"373 134 OFFCURVE",
"369 128 CURVE SMOOTH",
"336 82 OFFCURVE",
"275 31 OFFCURVE",
"250 17 CURVE SMOOTH",
"224 3 OFFCURVE",
"208 22 OFFCURVE",
"213 56 CURVE SMOOTH",
"215 71 OFFCURVE",
"221 93 OFFCURVE",
"231 117 CURVE SMOOTH",
"242 144 OFFCURVE",
"260 169 OFFCURVE",
"269 196 CURVE SMOOTH",
"285 244 OFFCURVE",
"251 250 OFFCURVE",
"205 215 CURVE SMOOTH",
"161 181 OFFCURVE",
"91 106 OFFCURVE",
"58 64 CURVE",
"67 90 OFFCURVE",
"93 161 OFFCURVE",
"113 205 CURVE SMOOTH",
"119 218 OFFCURVE",
"120 225 OFFCURVE",
"107 228 CURVE SMOOTH",
"66 239 OFFCURVE",
"69 202 OFFCURVE",
"65 192 CURVE SMOOTH",
"49 148 OFFCURVE",
"3 11 OFFCURVE",
"-5 -5 CURVE SMOOTH",
"-12 -20 OFFCURVE",
"30 -1 OFFCURVE",
"38 3 CURVE SMOOTH",
"53 12 OFFCURVE",
"120 118 OFFCURVE",
"166 159 CURVE SMOOTH",
"224 210 OFFCURVE",
"227 190 OFFCURVE",
"213 164 CURVE SMOOTH",
"193 127 OFFCURVE",
"127 0 OFFCURVE",
"211 -8 CURVE SMOOTH",
"234 -10 OFFCURVE",
"260 1 OFFCURVE",
"275 12 CURVE SMOOTH",
"315 41 OFFCURVE",
"364 94 OFFCURVE",
"379 122 CURVE SMOOTH"
);
}
);
width = 327;
}
);
note = n;
unicode = 006E;
},
{
glyphname = o;
layers = (
{
hints = (
{
horizontal = 1;
place = "{-23, 20}";
type = Stem;
},
{
horizontal = 1;
place = "{159, 18}";
type = Stem;
},
{
horizontal = 1;
place = "{238, 15}";
type = Stem;
},
{
place = "{12, 32}";
type = Stem;
}
);
layerId = "F07FC137-599D-4028-8184-32064863B81C";
paths = (
{
closed = 1;
nodes = (
"222 194 OFFCURVE",
"202 185 OFFCURVE",
"209 167 CURVE SMOOTH",
"212 158 OFFCURVE",
"218 143 OFFCURVE",
"202 106 CURVE SMOOTH",
"185 68 OFFCURVE",
"141 5 OFFCURVE",
"97 5 CURVE SMOOTH",
"67 5 OFFCURVE",
"58 32 OFFCURVE",
"63 63 CURVE SMOOTH",
"76 136 OFFCURVE",
"153 218 OFFCURVE",
"188 218 CURVE SMOOTH",
"203 218 OFFCURVE",
"205 205 OFFCURVE",
"203 196 CURVE",
"203 190 OFFCURVE",
"215 189 OFFCURVE",
"217 202 CURVE SMOOTH",
"220 222 OFFCURVE",
"208 235 OFFCURVE",
"194 240 CURVE SMOOTH",
"170 249 OFFCURVE",
"134 236 OFFCURVE",
"104 210 CURVE SMOOTH",
"68 178 OFFCURVE",
"43 135 OFFCURVE",
"34 105 CURVE SMOOTH",
"20 55 OFFCURVE",
"29 18 OFFCURVE",
"55 2 CURVE SMOOTH",
"82 -15 OFFCURVE",
"125 -13 OFFCURVE",
"161 18 CURVE SMOOTH",
"184 38 OFFCURVE",
"197 55 OFFCURVE",
"214 81 CURVE SMOOTH",
"229 104 OFFCURVE",
"246 137 OFFCURVE",
"244 164 CURVE",
"266 164 OFFCURVE",
"295 161 OFFCURVE",
"333 179 CURVE SMOOTH",
"342 183 OFFCURVE",
"338 190 OFFCURVE",
"328 187 CURVE SMOOTH",
"301 181 OFFCURVE",
"252 181 OFFCURVE",
"234 186 CURVE"
);
}
);
width = 281;
}
);
note = o;
unicode = 006F;
},
{
glyphname = p;
layers = (
{
hints = (
{
horizontal = 1;
place = "{-255, 20}";
type = Stem;
},
{
horizontal = 1;
place = "{207, 69}";
type = Stem;
},
{
place = "{-45, 38}";
type = Stem;
},
{
place = "{9, 32}";
type = Stem;
},
{
place = "{97, 27}";
type = Stem;
},
{
place = "{257, 25}";
type = Stem;
}
);
layerId = "F07FC137-599D-4028-8184-32064863B81C";
paths = (
{
closed = 1;
nodes = (
"279 206 OFFCURVE",
"265 218 OFFCURVE",
"247 224 CURVE SMOOTH",
"207 238 OFFCURVE",
"175 223 OFFCURVE",
"144 198 CURVE SMOOTH",
"115 175 OFFCURVE",
"94 140 OFFCURVE",
"69 106 CURVE",
"83 140 OFFCURVE",
"95 172 OFFCURVE",
"115 203 CURVE SMOOTH",
"136 236 OFFCURVE",
"139 259 OFFCURVE",
"104 259 CURVE SMOOTH",
"93 259 OFFCURVE",
"79 258 OFFCURVE",
"79 250 CURVE SMOOTH",
"78 207 OFFCURVE",
"37 108 OFFCURVE",
"-1 9 CURVE SMOOTH",
"-44 -103 OFFCURVE",
"-90 -216 OFFCURVE",
"-110 -257 CURVE SMOOTH",
"-126 -291 OFFCURVE",
"-59 -263 OFFCURVE",
"-54 -252 CURVE SMOOTH",
"-45 -234 OFFCURVE",
"-38 -214 OFFCURVE",
"-31 -193 CURVE SMOOTH",
"-24 -172 OFFCURVE",
"-30 -162 OFFCURVE",
"-23 -141 CURVE SMOOTH",
"-7 -92 OFFCURVE",
"12 -36 OFFCURVE",
"26 -4 CURVE",
"73 -18 OFFCURVE",
"148 16 OFFCURVE",
"186 41 CURVE SMOOTH",
"226 67 OFFCURVE",
"290 127 OFFCURVE",
"282 188 CURVE SMOOTH"
);
},
{
closed = 1;
nodes = (
"191 82 OFFCURVE",
"101 9 OFFCURVE",
"33 9 CURVE",
"74 91 OFFCURVE",
"103 160 OFFCURVE",
"189 205 CURVE SMOOTH",
"248 236 OFFCURVE",
"254 189 OFFCURVE",
"227 143 CURVE SMOOTH"
);
}
);
width = 281;
}
);
note = p;
unicode = 0070;
},
{
glyphname = q;
layers = (
{
hints = (
{
horizontal = 1;
place = "{-266, 13}";
type = Stem;
},
{
horizontal = 1;
place = "{-7, 13}";
type = Stem;
},
{
horizontal = 1;
place = "{237, -20}";
target = down;
type = TopGhost;
},
{
place = "{3, 35}";
type = Stem;
},
{
place = "{54, 39}";
type = Stem;
},
{
place = "{257, 13}";
type = Stem;
}
);
layerId = "F07FC137-599D-4028-8184-32064863B81C";
paths = (
{
closed = 1;
nodes = (
"406 129 OFFCURVE",
"397 134 OFFCURVE",
"393 128 CURVE SMOOTH",
"360 82 OFFCURVE",
"299 31 OFFCURVE",
"274 17 CURVE SMOOTH",
"260 9 OFFCURVE",
"235 -8 OFFCURVE",
"218 -17 CURVE",
"250 67 OFFCURVE",
"306 214 OFFCURVE",
"339 240 CURVE SMOOTH",
"409 296 OFFCURVE",
"325 295 OFFCURVE",
"308 276 CURVE",
"301 260 OFFCURVE",
"294 244 OFFCURVE",
"287 229 CURVE",
"284 231 LINE SMOOTH",
"263 245 OFFCURVE",
"217 245 OFFCURVE",
"194 239 CURVE SMOOTH",
"134 223 OFFCURVE",
"-42 94 OFFCURVE",
"16 19 CURVE SMOOTH",
"29 3 OFFCURVE",
"50 -8 OFFCURVE",
"67 -8 CURVE SMOOTH",
"115 -8 OFFCURVE",
"200 84 OFFCURVE",
"250 141 CURVE",
"232 97 OFFCURVE",
"212 48 OFFCURVE",
"195 2 CURVE",
"187 5 OFFCURVE",
"174 -2 OFFCURVE",
"180 -24 CURVE SMOOTH",
"181 -27 OFFCURVE",
"182 -29 OFFCURVE",
"183 -31 CURVE",
"161 -92 OFFCURVE",
"132 -181 OFFCURVE",
"118 -228 CURVE SMOOTH",
"111 -253 OFFCURVE",
"114 -265 OFFCURVE",
"129 -276 CURVE SMOOTH",
"146 -288 OFFCURVE",
"156 -263 OFFCURVE",
"163 -249 CURVE SMOOTH",
"188 -196 OFFCURVE",
"200 -103 OFFCURVE",
"199 -67 CURVE",
"202 -61 OFFCURVE",
"205 -52 OFFCURVE",
"209 -41 CURVE",
"239 -36 OFFCURVE",
"281 -1 OFFCURVE",
"299 12 CURVE SMOOTH",
"339 41 OFFCURVE",
"388 94 OFFCURVE",
"403 122 CURVE SMOOTH"
);
},
{
closed = 1;
nodes = (
"265 180 LINE",
"218 129 OFFCURVE",
"160 77 OFFCURVE",
"107 34 CURVE SMOOTH",
"95 24 OFFCURVE",
"56 -5 OFFCURVE",
"45 11 CURVE SMOOTH",
"20 45 OFFCURVE",
"86 122 OFFCURVE",
"110 143 CURVE SMOOTH",
"151 180 OFFCURVE",
"211 221 OFFCURVE",
"253 221 CURVE SMOOTH",
"263 221 OFFCURVE",
"273 220 OFFCURVE",
"281 216 CURVE"
);
}
);
width = 351;
}
);
note = q;
unicode = 0071;
},
{
glyphname = r;
layers = (
{
hints = (
{
horizontal = 1;
place = "{-19, 20}";
type = Stem;
},
{
horizontal = 1;
place = "{224, 26}";
type = Stem;
},
{
place = "{999, 43}";
type = Stem;
}
);
layerId = "F07FC137-599D-4028-8184-32064863B81C";
paths = (
{
closed = 1;
nodes = (
"293 255 OFFCURVE",
"246 272 OFFCURVE",
"198 232 CURVE SMOOTH",
"183 220 OFFCURVE",
"147 194 OFFCURVE",
"117 161 CURVE SMOOTH",
"96 137 OFFCURVE",
"75 108 OFFCURVE",
"61 88 CURVE",
"84 141 OFFCURVE",
"105 185 OFFCURVE",
"126 229 CURVE SMOOTH",
"130 238 OFFCURVE",
"133 248 OFFCURVE",
"120 252 CURVE SMOOTH",
"96 258 OFFCURVE",
"85 245 OFFCURVE",
"79 235 CURVE SMOOTH",
"75 227 OFFCURVE",
"68 211 OFFCURVE",
"65 203 CURVE",
"73 199 OFFCURVE",
"59 166 OFFCURVE",
"50 141 CURVE SMOOTH",
"29 87 OFFCURVE",
"-6 5 OFFCURVE",
"-10 -5 CURVE SMOOTH",
"-18 -20 OFFCURVE",
"25 -1 OFFCURVE",
"33 3 CURVE SMOOTH",
"37 5 OFFCURVE",
"40 17 OFFCURVE",
"48 33 CURVE SMOOTH",
"65 65 OFFCURVE",
"102 120 OFFCURVE",
"128 152 CURVE SMOOTH",
"147 176 OFFCURVE",
"187 206 OFFCURVE",
"219 206 CURVE SMOOTH",
"237 206 OFFCURVE",
"244 191 OFFCURVE",
"238 177 CURVE SMOOTH",
"229 158 OFFCURVE",
"252 162 OFFCURVE",
"264 188 CURVE SMOOTH"
);
}
);
width = 224;
}
);
note = r;
unicode = 0072;
},
{
glyphname = s;
layers = (
{
hints = (
{
horizontal = 1;
place = "{289, 25}";
type = Stem;
},
{
place = "{58, 23}";
type = Stem;
},
{
place = "{162, 34}";
type = Stem;
},
{
place = "{279, 17}";
type = Stem;
}
);
layerId = "F07FC137-599D-4028-8184-32064863B81C";
paths = (
{
closed = 1;
nodes = (
"278 248 OFFCURVE",
"250 263 OFFCURVE",
"218 263 CURVE SMOOTH",
"166 263 OFFCURVE",
"59 220 OFFCURVE",
"59 161 CURVE SMOOTH",
"59 142 OFFCURVE",
"78 122 OFFCURVE",
"95 112 CURVE SMOOTH",
"109 103 OFFCURVE",
"148 88 OFFCURVE",
"148 68 CURVE SMOOTH",
"148 14 OFFCURVE",
"60 -10 OFFCURVE",
"30 13 CURVE SMOOTH",
"24 18 OFFCURVE",
"19 7 OFFCURVE",
"22 0 CURVE SMOOTH",
"36 -26 OFFCURVE",
"125 -3 OFFCURVE",
"144 4 CURVE SMOOTH",
"183 20 OFFCURVE",
"212 48 OFFCURVE",
"181 78 CURVE SMOOTH",
"165 94 OFFCURVE",
"137 104 OFFCURVE",
"112 119 CURVE SMOOTH",
"58 151 OFFCURVE",
"128 201 OFFCURVE",
"160 217 CURVE SMOOTH",
"177 225 OFFCURVE",
"216 241 OFFCURVE",
"238 239 CURVE SMOOTH",
"257 237 OFFCURVE",
"249 213 OFFCURVE",
"237 201 CURVE SMOOTH",
"228 193 OFFCURVE",
"237 188 OFFCURVE",
"241 191 CURVE SMOOTH",
"250 197 OFFCURVE",
"258 205 OFFCURVE",
"262 214 CURVE SMOOTH"
);
}
);
width = 228;
}
);
note = s;
unicode = 0073;
},
{
glyphname = t;
layers = (
{
hints = (
{
place = "{35, 25}";
type = Stem;
}
);
layerId = "F07FC137-599D-4028-8184-32064863B81C";
paths = (
{
closed = 1;
nodes = (
"189 231 OFFCURVE",
"171 231 OFFCURVE",
"147 231 CURVE SMOOTH",
"134 231 LINE",
"146 252 OFFCURVE",
"158 273 OFFCURVE",
"170 294 CURVE SMOOTH",
"175 304 OFFCURVE",
"190 309 OFFCURVE",
"194 317 CURVE SMOOTH",
"199 324 OFFCURVE",
"208 340 OFFCURVE",
"201 350 CURVE SMOOTH",
"196 357 OFFCURVE",
"181 359 OFFCURVE",
"169 358 CURVE SMOOTH",
"158 356 OFFCURVE",
"156 348 OFFCURVE",
"136 314 CURVE SMOOTH",
"135 312 OFFCURVE",
"112 270 OFFCURVE",
"93 235 CURVE",
"80 235 OFFCURVE",
"57 236 OFFCURVE",
"51 223 CURVE SMOOTH",
"46 213 OFFCURVE",
"54 206 OFFCURVE",
"62 206 CURVE SMOOTH",
"66 206 OFFCURVE",
"72 206 OFFCURVE",
"80 207 CURVE",
"74 196 OFFCURVE",
"69 184 OFFCURVE",
"64 173 CURVE SMOOTH",
"56 154 OFFCURVE",
"37 116 OFFCURVE",
"25 81 CURVE SMOOTH",
"13 46 OFFCURVE",
"4 -8 OFFCURVE",
"60 -8 CURVE SMOOTH",
"81 -8 OFFCURVE",
"104 2 OFFCURVE",
"118 12 CURVE SMOOTH",
"135 24 OFFCURVE",
"153 41 OFFCURVE",
"170 58 CURVE SMOOTH",
"193 81 OFFCURVE",
"213 106 OFFCURVE",
"222 122 CURVE SMOOTH",
"225 129 OFFCURVE",
"216 134 OFFCURVE",
"212 128 CURVE SMOOTH",
"179 82 OFFCURVE",
"119 31 OFFCURVE",
"93 17 CURVE SMOOTH",
"67 3 OFFCURVE",
"51 22 OFFCURVE",
"56 56 CURVE SMOOTH",
"60 90 OFFCURVE",
"104 177 OFFCURVE",
"126 213 CURVE",
"163 214 OFFCURVE",
"197 215 OFFCURVE",
"209 218 CURVE SMOOTH",
"226 222 OFFCURVE",
"220 231 OFFCURVE",
"215 231 CURVE SMOOTH"
);
}
);
width = 170;
}
);
note = t;
unicode = 0074;
},
{
glyphname = u;
layers = (
{
hints = (
{
horizontal = 1;
place = "{4, 14}";
type = Stem;
},
{
horizontal = 1;
place = "{205, 20}";
type = Stem;
},
{
place = "{196, 45}";
type = Stem;
}
);
layerId = "F07FC137-599D-4028-8184-32064863B81C";
paths = (
{
closed = 1;
nodes = (
"412 129 OFFCURVE",
"402 134 OFFCURVE",
"398 128 CURVE SMOOTH",
"365 82 OFFCURVE",
"305 31 OFFCURVE",
"279 17 CURVE SMOOTH",
"253 3 OFFCURVE",
"237 22 OFFCURVE",
"242 56 CURVE SMOOTH",
"246 85 OFFCURVE",
"255 112 OFFCURVE",
"267 135 CURVE SMOOTH",
"278 156 OFFCURVE",
"307 206 OFFCURVE",
"317 222 CURVE SMOOTH",
"325 236 OFFCURVE",
"286 243 OFFCURVE",
"275 243 CURVE",
"265 227 OFFCURVE",
"238 176 OFFCURVE",
"223 155 CURVE SMOOTH",
"194 112 OFFCURVE",
"159 66 OFFCURVE",
"130 42 CURVE SMOOTH",
"74 -3 OFFCURVE",
"38 15 OFFCURVE",
"63 83 CURVE SMOOTH",
"83 137 OFFCURVE",
"124 179 OFFCURVE",
"142 195 CURVE SMOOTH",
"147 199 OFFCURVE",
"153 207 OFFCURVE",
"143 211 CURVE SMOOTH",
"132 215 OFFCURVE",
"114 215 OFFCURVE",
"100 211 CURVE SMOOTH",
"93 209 OFFCURVE",
"73 179 OFFCURVE",
"62 162 CURVE SMOOTH",
"33 118 OFFCURVE",
"15 58 OFFCURVE",
"34 28 CURVE SMOOTH",
"44 11 OFFCURVE",
"74 1 OFFCURVE",
"90 1 CURVE SMOOTH",
"155 1 OFFCURVE",
"205 117 OFFCURVE",
"217 125 CURVE",
"206 97 OFFCURVE",
"196 43 OFFCURVE",
"203 22 CURVE SMOOTH",
"219 -26 OFFCURVE",
"278 -7 OFFCURVE",
"304 12 CURVE SMOOTH",
"344 41 OFFCURVE",
"393 94 OFFCURVE",
"408 122 CURVE SMOOTH"
);
}
);
width = 356;
}
);
note = u;
unicode = 0075;
},
{
glyphname = v;
layers = (
{
hints = (
{
horizontal = 1;
place = "{-22, 20}";
type = Stem;
},
{
horizontal = 1;
place = "{215, 16}";
type = Stem;
}
);
layerId = "F07FC137-599D-4028-8184-32064863B81C";
paths = (
{
closed = 1;
nodes = (
"306 252 OFFCURVE",
"280 261 OFFCURVE",
"258 251 CURVE SMOOTH",
"229 238 OFFCURVE",
"209 216 OFFCURVE",
"188 192 CURVE SMOOTH",
"139 134 OFFCURVE",
"87 55 OFFCURVE",
"72 35 CURVE",
"70 54 OFFCURVE",
"84 97 OFFCURVE",
"94 126 CURVE SMOOTH",
"97 136 OFFCURVE",
"123 196 OFFCURVE",
"124 207 CURVE SMOOTH",
"125 216 OFFCURVE",
"122 225 OFFCURVE",
"116 231 CURVE SMOOTH",
"106 243 OFFCURVE",
"89 242 OFFCURVE",
"74 242 CURVE SMOOTH",
"64 241 OFFCURVE",
"46 239 OFFCURVE",
"41 235 CURVE SMOOTH",
"36 230 OFFCURVE",
"34 223 OFFCURVE",
"41 225 CURVE SMOOTH",
"67 232 OFFCURVE",
"75 214 OFFCURVE",
"74 189 CURVE",
"68 173 OFFCURVE",
"54 146 OFFCURVE",
"30 112 CURVE SMOOTH",
"24 103 OFFCURVE",
"34 96 OFFCURVE",
"41 105 CURVE SMOOTH",
"51 119 OFFCURVE",
"60 132 OFFCURVE",
"67 143 CURVE",
"64 129 OFFCURVE",
"60 116 OFFCURVE",
"58 109 CURVE SMOOTH",
"49 77 OFFCURVE",
"37 44 OFFCURVE",
"32 13 CURVE SMOOTH",
"30 -4 OFFCURVE",
"37 -25 OFFCURVE",
"57 -25 CURVE SMOOTH",
"60 -25 OFFCURVE",
"67 -24 OFFCURVE",
"67 -18 CURVE",
"79 18 OFFCURVE",
"159 122 OFFCURVE",
"174 141 CURVE SMOOTH",
"195 168 OFFCURVE",
"248 228 OFFCURVE",
"281 228 CURVE",
"290 229 OFFCURVE",
"301 231 OFFCURVE",
"308 225 CURVE SMOOTH",
"323 215 OFFCURVE",
"322 233 OFFCURVE",
"316 240 CURVE SMOOTH"
);
}
);
width = 244;
}
);
note = v;
unicode = 0076;
},
{
glyphname = w;
layers = (
{
hints = (
{
horizontal = 1;
place = "{-12, 20}";
type = Stem;
},
{
horizontal = 1;
place = "{252, 12}";
type = Stem;
},
{
place = "{6, 35}";
type = Stem;
},
{
place = "{175, 41}";
type = Stem;
},
{
place = "{365, 44}";
type = Stem;
}
);
layerId = "F07FC137-599D-4028-8184-32064863B81C";
paths = (
{
closed = 1;
nodes = (
"452 288 OFFCURVE",
"409 285 OFFCURVE",
"389 281 CURVE SMOOTH",
"383 279 OFFCURVE",
"385 269 OFFCURVE",
"391 271 CURVE",
"399 272 OFFCURVE",
"407 272 OFFCURVE",
"413 270 CURVE SMOOTH",
"439 260 OFFCURVE",
"440 219 OFFCURVE",
"435 196 CURVE SMOOTH",
"429 168 OFFCURVE",
"412 135 OFFCURVE",
"390 107 CURVE SMOOTH",
"361 70 OFFCURVE",
"327 40 OFFCURVE",
"294 23 CURVE SMOOTH",
"227 -13 OFFCURVE",
"242 67 OFFCURVE",
"251 100 CURVE SMOOTH",
"259 128 OFFCURVE",
"270 155 OFFCURVE",
"286 181 CURVE SMOOTH",
"296 196 OFFCURVE",
"244 207 OFFCURVE",
"238 196 CURVE SMOOTH",
"209 145 OFFCURVE",
"168 77 OFFCURVE",
"124 42 CURVE SMOOTH",
"68 -4 OFFCURVE",
"43 16 OFFCURVE",
"68 84 CURVE SMOOTH",
"88 138 OFFCURVE",
"144 201 OFFCURVE",
"162 216 CURVE SMOOTH",
"168 221 OFFCURVE",
"168 228 OFFCURVE",
"159 231 CURVE SMOOTH",
"148 236 OFFCURVE",
"130 236 OFFCURVE",
"116 232 CURVE SMOOTH",
"108 229 OFFCURVE",
"73 179 OFFCURVE",
"62 162 CURVE SMOOTH",
"32 118 OFFCURVE",
"-8 1 OFFCURVE",
"84 1 CURVE SMOOTH",
"149 1 OFFCURVE",
"199 107 OFFCURVE",
"211 125 CURVE",
"200 97 OFFCURVE",
"202 49 OFFCURVE",
"209 28 CURVE SMOOTH",
"225 -20 OFFCURVE",
"293 -1 OFFCURVE",
"319 18 CURVE SMOOTH",
"343 35 OFFCURVE",
"381 67 OFFCURVE",
"410 102 CURVE SMOOTH",
"454 155 OFFCURVE",
"484 218 OFFCURVE",
"464 261 CURVE SMOOTH"
);
}
);
width = 440;
}
);
note = w;
unicode = 0077;
},
{
glyphname = x;
layers = (
{
hints = (
{
horizontal = 1;
place = "{0, 11}";
type = Stem;
},
{
horizontal = 1;
place = "{177, 37}";
type = Stem;
},
{
place = "{-59, 38}";
type = Stem;
},
{
place = "{88, 44}";
type = Stem;
}
);
layerId = "F07FC137-599D-4028-8184-32064863B81C";
paths = (
{
closed = 1;
nodes = (
"342 129 OFFCURVE",
"332 134 OFFCURVE",
"327 128 CURVE SMOOTH",
"315 113 OFFCURVE",
"287 75 OFFCURVE",
"261 47 CURVE SMOOTH",
"231 16 OFFCURVE",
"200 -1 OFFCURVE",
"176 44 CURVE SMOOTH",
"160 73 OFFCURVE",
"144 106 OFFCURVE",
"144 118 CURVE",
"204 166 LINE SMOOTH",
"221 180 OFFCURVE",
"241 196 OFFCURVE",
"280 211 CURVE SMOOTH",
"286 213 OFFCURVE",
"299 210 OFFCURVE",
"299 221 CURVE SMOOTH",
"299 236 OFFCURVE",
"279 246 OFFCURVE",
"263 238 CURVE",
"217 209 OFFCURVE",
"177 176 OFFCURVE",
"138 138 CURVE",
"134 149 OFFCURVE",
"124 197 OFFCURVE",
"117 226 CURVE SMOOTH",
"105 276 OFFCURVE",
"69 255 OFFCURVE",
"66 238 CURVE SMOOTH",
"63 220 OFFCURVE",
"93 134 OFFCURVE",
"103 113 CURVE",
"103 102 OFFCURVE",
"-67 -47 OFFCURVE",
"-67 -145 CURVE SMOOTH",
"-67 -155 OFFCURVE",
"-55 -160 OFFCURVE",
"-54 -145 CURVE SMOOTH",
"-51 -80 OFFCURVE",
"64 40 OFFCURVE",
"112 89 CURVE",
"122 60 OFFCURVE",
"145 4 OFFCURVE",
"180 -4 CURVE SMOOTH",
"203 -9 OFFCURVE",
"226 -5 OFFCURVE",
"263 29 CURVE SMOOTH",
"270 36 OFFCURVE",
"278 44 OFFCURVE",
"285 52 CURVE SMOOTH",
"308 79 OFFCURVE",
"329 109 OFFCURVE",
"336 120 CURVE SMOOTH"
);
}
);
width = 285;
}
);
note = x;
unicode = 0078;
},
{
glyphname = y;
layers = (
{
hints = (
{
horizontal = 1;
place = "{30, 24}";
type = Stem;
},
{
horizontal = 1;
place = "{61, 14}";
type = Stem;
},
{
horizontal = 1;
place = "{234, -20}";
target = down;
type = TopGhost;
},
{
place = "{-118, 33}";
type = Stem;
},
{
place = "{22, 33}";
type = Stem;
}
);
layerId = "F07FC137-599D-4028-8184-32064863B81C";
paths = (
{
closed = 1;
nodes = (
"391 126 OFFCURVE",
"384 139 OFFCURVE",
"374 126 CURVE SMOOTH",
"335 74 OFFCURVE",
"285 44 OFFCURVE",
"235 16 CURVE",
"244 36 OFFCURVE",
"256 63 OFFCURVE",
"264 80 CURVE SMOOTH",
"282 117 OFFCURVE",
"302 164 OFFCURVE",
"325 219 CURVE SMOOTH",
"329 228 OFFCURVE",
"291 245 OFFCURVE",
"280 231 CURVE SMOOTH",
"227 169 OFFCURVE",
"185 104 OFFCURVE",
"125 47 CURVE SMOOTH",
"102 25 OFFCURVE",
"74 14 OFFCURVE",
"59 25 CURVE SMOOTH",
"38 40 OFFCURVE",
"69 105 OFFCURVE",
"82 122 CURVE SMOOTH",
"106 153 OFFCURVE",
"133 178 OFFCURVE",
"151 190 CURVE SMOOTH",
"162 197 OFFCURVE",
"132 235 OFFCURVE",
"97 202 CURVE SMOOTH",
"71 179 OFFCURVE",
"50 153 OFFCURVE",
"32 118 CURVE SMOOTH",
"9 73 OFFCURVE",
"2 1 OFFCURVE",
"73 1 CURVE SMOOTH",
"140 1 OFFCURVE",
"213 114 OFFCURVE",
"257 172 CURVE",
"235 101 OFFCURVE",
"213 51 OFFCURVE",
"180 -15 CURVE",
"99 -52 OFFCURVE",
"12 -79 OFFCURVE",
"-61 -132 CURVE SMOOTH",
"-101 -161 OFFCURVE",
"-126 -199 OFFCURVE",
"-127 -231 CURVE SMOOTH",
"-130 -315 OFFCURVE",
"-15 -314 OFFCURVE",
"38 -285 CURVE SMOOTH",
"140 -229 OFFCURVE",
"175 -114 OFFCURVE",
"222 -13 CURVE",
"251 3 OFFCURVE",
"283 17 OFFCURVE",
"314 44 CURVE SMOOTH",
"339 65 OFFCURVE",
"362 89 OFFCURVE",
"382 114 CURVE SMOOTH"
);
},
{
closed = 1;
nodes = (
"138 -105 OFFCURVE",
"91 -208 OFFCURVE",
"28 -259 CURVE SMOOTH",
"-78 -345 OFFCURVE",
"-161 -228 OFFCURVE",
"-34 -136 CURVE SMOOTH",
"25 -93 OFFCURVE",
"105 -66 OFFCURVE",
"171 -37 CURVE"
);
}
);
width = 333;
}
);
note = y;
unicode = 0079;
},
{
glyphname = z;
layers = (
{
hints = (
{
horizontal = 1;
place = "{67, 14}";
type = Stem;
},
{
horizontal = 1;
place = "{202, 16}";
type = Stem;
},
{
place = "{219, 38}";
type = Stem;
}
);
layerId = "F07FC137-599D-4028-8184-32064863B81C";
paths = (
{
closed = 1;
nodes = (
"390 132 OFFCURVE",
"376 134 OFFCURVE",
"372 128 CURVE SMOOTH",
"342 86 OFFCURVE",
"274 23 OFFCURVE",
"241 4 CURVE SMOOTH",
"201 -18 OFFCURVE",
"164 -1 OFFCURVE",
"120 26 CURVE SMOOTH",
"113 30 OFFCURVE",
"105 34 OFFCURVE",
"96 38 CURVE",
"105 45 OFFCURVE",
"112 52 OFFCURVE",
"117 56 CURVE SMOOTH",
"161 95 OFFCURVE",
"218 143 OFFCURVE",
"255 174 CURVE",
"277 169 OFFCURVE",
"326 191 OFFCURVE",
"324 219 CURVE SMOOTH",
"322 243 OFFCURVE",
"273 215 OFFCURVE",
"262 205 CURVE",
"243 209 OFFCURVE",
"220 214 OFFCURVE",
"200 219 CURVE SMOOTH",
"164 228 OFFCURVE",
"130 243 OFFCURVE",
"97 212 CURVE SMOOTH",
"92 207 OFFCURVE",
"86 201 OFFCURVE",
"81 193 CURVE SMOOTH",
"72 180 OFFCURVE",
"77 167 OFFCURVE",
"84 176 CURVE SMOOTH",
"93 189 OFFCURVE",
"121 202 OFFCURVE",
"155 198 CURVE SMOOTH",
"178 195 OFFCURVE",
"207 187 OFFCURVE",
"234 179 CURVE",
"201 147 OFFCURVE",
"153 100 OFFCURVE",
"110 63 CURVE SMOOTH",
"108 61 OFFCURVE",
"98 52 OFFCURVE",
"85 42 CURVE",
"67 47 OFFCURVE",
"49 49 OFFCURVE",
"34 44 CURVE SMOOTH",
"0 33 OFFCURVE",
"-6 -4 OFFCURVE",
"5 -10 CURVE SMOOTH",
"18 -17 OFFCURVE",
"44 -3 OFFCURVE",
"68 15 CURVE",
"80 11 OFFCURVE",
"91 5 OFFCURVE",
"99 0 CURVE SMOOTH",
"141 -26 OFFCURVE",
"178 -41 OFFCURVE",
"220 -26 CURVE SMOOTH",
"227 -24 OFFCURVE",
"239 -20 OFFCURVE",
"258 -6 CURVE SMOOTH",
"278 8 OFFCURVE",
"305 34 OFFCURVE",
"330 59 CURVE SMOOTH",
"355 85 OFFCURVE",
"377 110 OFFCURVE",
"386 125 CURVE SMOOTH"
);
}
);
width = 330;
}
);
note = z;
unicode = 007A;
},
{
glyphname = braceleft;
layers = (
{
hints = (
{
horizontal = 1;
place = "{-37, 14}";
type = Stem;
},
{
horizontal = 1;
place = "{228, -20}";
target = down;
type = TopGhost;
},
{
horizontal = 1;
place = "{432, 15}";
type = Stem;
},
{
place = "{37, 33}";
type = Stem;
},
{
place = "{106, 24}";
type = Stem;
}
);
layerId = "F07FC137-599D-4028-8184-32064863B81C";
paths = (
{
closed = 1;
nodes = (
"351 449 OFFCURVE",
"353 453 OFFCURVE",
"353 457 CURVE SMOOTH",
"353 470 OFFCURVE",
"332 466 OFFCURVE",
"319 466 CURVE SMOOTH",
"151 466 OFFCURVE",
"156 349 OFFCURVE",
"149 287 CURVE SMOOTH",
"142 223 OFFCURVE",
"81 219 OFFCURVE",
"28 219 CURVE SMOOTH",
"22 219 OFFCURVE",
"18 215 OFFCURVE",
"18 210 CURVE SMOOTH",
"18 206 OFFCURVE",
"21 202 OFFCURVE",
"26 200 CURVE",
"69 193 OFFCURVE",
"89 181 OFFCURVE",
"89 160 CURVE SMOOTH",
"89 121 OFFCURVE",
"6 48 OFFCURVE",
"6 -27 CURVE SMOOTH",
"6 -93 OFFCURVE",
"69 -111 OFFCURVE",
"116 -111 CURVE SMOOTH",
"133 -111 OFFCURVE",
"150 -110 OFFCURVE",
"150 -98 CURVE SMOOTH",
"150 -94 OFFCURVE",
"149 -92 OFFCURVE",
"145 -92 CURVE SMOOTH",
"139 -92 OFFCURVE",
"133 -94 OFFCURVE",
"127 -94 CURVE SMOOTH",
"93 -94 OFFCURVE",
"45 -74 OFFCURVE",
"45 -21 CURVE SMOOTH",
"45 45 OFFCURVE",
"118 96 OFFCURVE",
"118 147 CURVE SMOOTH",
"118 168 OFFCURVE",
"106 191 OFFCURVE",
"76 206 CURVE",
"131 216 OFFCURVE",
"155 223 OFFCURVE",
"175 282 CURVE SMOOTH",
"189 326 OFFCURVE",
"193 358 OFFCURVE",
"219 398 CURVE SMOOTH",
"253 451 OFFCURVE",
"289 449 OFFCURVE",
"345 449 CURVE SMOOTH"
);
}
);
width = 331;
}
);
note = braceleft;
unicode = 007B;
},
{
glyphname = bar;
layers = (
{
hints = (
{
horizontal = 1;
place = "{467, -20}";
target = down;
type = TopGhost;
},
{
place = "{103, 27}";
type = Stem;
}
);
layerId = "F07FC137-599D-4028-8184-32064863B81C";
paths = (
{
closed = 1;
nodes = (
"130 -39 LINE",
"130 467 LINE",
"103 467 LINE",
"103 -39 LINE"
);
}
);
width = 206;
}
);
note = bar;
unicode = 007C;
},
{
glyphname = braceright;
layers = (
{
hints = (
{
horizontal = 1;
place = "{228, -20}";
target = down;
type = TopGhost;
},
{
horizontal = 1;
place = "{432, 15}";
type = Stem;
},
{
place = "{264, 24}";
type = Stem;
},
{
place = "{322, 42}";
type = Stem;
}
);
layerId = "F07FC137-599D-4028-8184-32064863B81C";
paths = (
{
closed = 1;
nodes = (
"56 -93 OFFCURVE",
"54 -97 OFFCURVE",
"54 -101 CURVE SMOOTH",
"54 -114 OFFCURVE",
"75 -110 OFFCURVE",
"88 -110 CURVE SMOOTH",
"256 -110 OFFCURVE",
"251 7 OFFCURVE",
"258 69 CURVE SMOOTH",
"265 133 OFFCURVE",
"326 137 OFFCURVE",
"379 137 CURVE SMOOTH",
"385 137 OFFCURVE",
"389 141 OFFCURVE",
"389 146 CURVE SMOOTH",
"389 150 OFFCURVE",
"386 154 OFFCURVE",
"381 156 CURVE",
"338 163 OFFCURVE",
"318 175 OFFCURVE",
"318 196 CURVE SMOOTH",
"318 235 OFFCURVE",
"401 308 OFFCURVE",
"401 383 CURVE SMOOTH",
"401 449 OFFCURVE",
"338 467 OFFCURVE",
"291 467 CURVE SMOOTH",
"274 467 OFFCURVE",
"257 466 OFFCURVE",
"257 454 CURVE SMOOTH",
"257 450 OFFCURVE",
"258 448 OFFCURVE",
"262 448 CURVE SMOOTH",
"268 448 OFFCURVE",
"274 450 OFFCURVE",
"280 450 CURVE SMOOTH",
"314 450 OFFCURVE",
"362 430 OFFCURVE",
"362 377 CURVE SMOOTH",
"362 311 OFFCURVE",
"289 260 OFFCURVE",
"289 209 CURVE SMOOTH",
"289 188 OFFCURVE",
"301 165 OFFCURVE",
"331 150 CURVE",
"276 140 OFFCURVE",
"252 133 OFFCURVE",
"232 74 CURVE SMOOTH",
"218 30 OFFCURVE",
"214 -2 OFFCURVE",
"188 -42 CURVE SMOOTH",
"154 -95 OFFCURVE",
"118 -93 OFFCURVE",
"62 -93 CURVE SMOOTH"
);
}
);
width = 373;
}
);
note = braceright;
unicode = 007D;
},
{
glyphname = asciitilde;
layers = (
{
hints = (
{
horizontal = 1;
place = "{309, 36}";
type = Stem;
},
{
place = "{107, 215}";
type = Stem;
}
);
layerId = "F07FC137-599D-4028-8184-32064863B81C";
paths = (
{
closed = 1;
nodes = (
"322 334 OFFCURVE",
"322 334 OFFCURVE",
"322 335 CURVE SMOOTH",
"322 337 OFFCURVE",
"318 338 OFFCURVE",
"314 338 CURVE SMOOTH",
"303 338 OFFCURVE",
"296 309 OFFCURVE",
"276 309 CURVE SMOOTH",
"245 309 OFFCURVE",
"199 345 OFFCURVE",
"180 345 CURVE SMOOTH",
"150 345 OFFCURVE",
"128 313 OFFCURVE",
"107 284 CURVE",
"107 284 OFFCURVE",
"107 283 OFFCURVE",
"107 283 CURVE",
"107 281 OFFCURVE",
"111 279 OFFCURVE",
"115 279 CURVE SMOOTH",
"120 279 OFFCURVE",
"151 310 OFFCURVE",
"171 310 CURVE SMOOTH",
"201 310 OFFCURVE",
"231 284 OFFCURVE",
"261 284 CURVE SMOOTH",
"286 284 OFFCURVE",
"310 307 OFFCURVE",
"322 334 CURVE"
);
}
);
width = 327;
}
);
note = asciitilde;
unicode = 007E;
},
{
glyphname = exclamdown;
layers = (
{
hints = (
{
horizontal = 1;
place = "{221, -20}";
target = down;
type = TopGhost;
},
{
horizontal = 1;
place = "{287, 50}";
type = Stem;
},
{
place = "{-12, 220}";
type = Stem;
}
);
layerId = "F07FC137-599D-4028-8184-32064863B81C";
paths = (
{
closed = 1;
nodes = (
"164 210 OFFCURVE",
"164 212 OFFCURVE",
"164 214 CURVE SMOOTH",
"164 220 OFFCURVE",
"161 221 OFFCURVE",
"156 221 CURVE SMOOTH",
"148 221 OFFCURVE",
"138 216 OFFCURVE",
"136 212 CURVE",
"106 119 OFFCURVE",
"56 33 OFFCURVE",
"7 -50 CURVE SMOOTH",
"-7 -73 OFFCURVE",
"-12 -92 OFFCURVE",
"-12 -103 CURVE SMOOTH",
"-12 -115 OFFCURVE",
"7 -132 OFFCURVE",
"19 -132 CURVE SMOOTH",
"34 -132 OFFCURVE",
"117 76 OFFCURVE",
"163 207 CURVE SMOOTH"
);
},
{
closed = 1;
nodes = (
"160 303 OFFCURVE",
"160 300 OFFCURVE",
"160 297 CURVE SMOOTH",
"160 291 OFFCURVE",
"160 287 OFFCURVE",
"164 287 CURVE SMOOTH",
"168 287 OFFCURVE",
"173 290 OFFCURVE",
"182 297 CURVE SMOOTH",
"186 300 OFFCURVE",
"208 320 OFFCURVE",
"208 323 CURVE SMOOTH",
"208 337 OFFCURVE",
"192 337 OFFCURVE",
"181 337 CURVE SMOOTH",
"175 337 OFFCURVE",
"160 313 OFFCURVE",
"160 306 CURVE SMOOTH"
);
}
);
width = 229;
}
);
note = exclamdown;
unicode = 00A1;
},
{
glyphname = cent;
layers = (
{
hints = (
{
horizontal = 1;
place = "{60, 20}";
type = Stem;
},
{
horizontal = 1;
place = "{371, 24}";
type = Stem;
},
{
place = "{48, 37}";
type = Stem;
},
{
place = "{346, 21}";
type = Stem;
}
);
layerId = "F07FC137-599D-4028-8184-32064863B81C";
paths = (
{
closed = 1;
nodes = (
"345 419 LINE SMOOTH",
"347 422 OFFCURVE",
"348 424 OFFCURVE",
"348 427 CURVE SMOOTH",
"348 433 OFFCURVE",
"343 438 OFFCURVE",
"337 438 CURVE SMOOTH",
"329 438 OFFCURVE",
"321 427 OFFCURVE",
"303 398 CURVE",
"204 390 OFFCURVE",
"48 260 OFFCURVE",
"48 159 CURVE SMOOTH",
"48 111 OFFCURVE",
"72 80 OFFCURVE",
"110 67 CURVE",
"92 32 OFFCURVE",
"79 5 OFFCURVE",
"79 -3 CURVE SMOOTH",
"79 -8 OFFCURVE",
"83 -10 OFFCURVE",
"89 -10 CURVE SMOOTH",
"117 -10 OFFCURVE",
"127 30 OFFCURVE",
"140 60 CURVE",
"144 60 OFFCURVE",
"148 59 OFFCURVE",
"153 59 CURVE SMOOTH",
"230 59 OFFCURVE",
"295 93 OFFCURVE",
"345 136 CURVE SMOOTH",
"352 142 OFFCURVE",
"356 151 OFFCURVE",
"356 155 CURVE SMOOTH",
"356 157 OFFCURVE",
"356 159 OFFCURVE",
"354 159 CURVE SMOOTH",
"351 159 OFFCURVE",
"347 157 OFFCURVE",
"341 152 CURVE SMOOTH",
"301 118 OFFCURVE",
"233 79 OFFCURVE",
"163 79 CURVE SMOOTH",
"159 79 OFFCURVE",
"154 79 OFFCURVE",
"150 80 CURVE",
"199 184 OFFCURVE",
"267 300 OFFCURVE",
"312 370 CURVE",
"317 370 OFFCURVE",
"322 371 OFFCURVE",
"327 371 CURVE SMOOTH",
"340 371 OFFCURVE",
"346 364 OFFCURVE",
"346 355 CURVE SMOOTH",
"346 346 OFFCURVE",
"337 334 OFFCURVE",
"337 322 CURVE SMOOTH",
"337 317 OFFCURVE",
"339 311 OFFCURVE",
"343 311 CURVE SMOOTH",
"367 311 OFFCURVE",
"369 371 OFFCURVE",
"369 360 CURVE SMOOTH",
"369 379 OFFCURVE",
"355 389 OFFCURVE",
"339 395 CURVE",
"330 397 LINE"
);
},
{
closed = 1;
nodes = (
"99 95 OFFCURVE",
"84 110 OFFCURVE",
"84 135 CURVE SMOOTH",
"84 143 OFFCURVE",
"86 151 OFFCURVE",
"89 161 CURVE SMOOTH",
"126 276 OFFCURVE",
"215 339 OFFCURVE",
"280 362 CURVE",
"233 286 OFFCURVE",
"164 168 OFFCURVE",
"121 87 CURVE"
);
}
);
width = 369;
}
);
note = cent;
unicode = 00A2;
},
{
glyphname = sterling;
layers = (
{
hints = (
{
horizontal = 1;
place = "{-12, 34}";
type = Stem;
},
{
horizontal = 1;
place = "{216, 14}";
type = Stem;
},
{
horizontal = 1;
place = "{455, 23}";
type = Stem;
},
{
place = "{13, 27}";
type = Stem;
},
{
place = "{410, 21}";
type = Stem;
}
);
layerId = "F07FC137-599D-4028-8184-32064863B81C";
paths = (
{
closed = 1;
nodes = (
"218 230 OFFCURVE",
"190 227 OFFCURVE",
"162 224 CURVE",
"228 356 OFFCURVE",
"292 455 OFFCURVE",
"363 455 CURVE SMOOTH",
"386 455 OFFCURVE",
"410 442 OFFCURVE",
"410 405 CURVE SMOOTH",
"410 390 OFFCURVE",
"398 368 OFFCURVE",
"398 360 CURVE SMOOTH",
"398 355 OFFCURVE",
"401 353 OFFCURVE",
"404 353 CURVE SMOOTH",
"420 353 OFFCURVE",
"431 395 OFFCURVE",
"431 408 CURVE SMOOTH",
"431 452 OFFCURVE",
"388 477 OFFCURVE",
"347 477 CURVE SMOOTH",
"245 477 OFFCURVE",
"177 340 OFFCURVE",
"125 220 CURVE",
"117 219 OFFCURVE",
"107 218 OFFCURVE",
"99 218 CURVE SMOOTH",
"93 218 OFFCURVE",
"89 231 OFFCURVE",
"77 231 CURVE SMOOTH",
"65 231 OFFCURVE",
"29 222 OFFCURVE",
"29 208 CURVE SMOOTH",
"29 197 OFFCURVE",
"41 189 OFFCURVE",
"51 189 CURVE SMOOTH",
"60 189 OFFCURVE",
"85 192 OFFCURVE",
"115 196 CURVE",
"101 162 OFFCURVE",
"70 69 OFFCURVE",
"62 69 CURVE",
"36 60 OFFCURVE",
"14 33 OFFCURVE",
"13 3 CURVE SMOOTH",
"13 -2 OFFCURVE",
"15 -4 OFFCURVE",
"18 -4 CURVE SMOOTH",
"21 -4 OFFCURVE",
"36 1 OFFCURVE",
"40 5 CURVE",
"40 5 OFFCURVE",
"40 4 OFFCURVE",
"41 4 CURVE SMOOTH",
"44 4 OFFCURVE",
"53 11 OFFCURVE",
"62 23 CURVE",
"81 41 LINE",
"158 9 OFFCURVE",
"301 -12 OFFCURVE",
"310 -12 CURVE SMOOTH",
"381 -12 OFFCURVE",
"463 71 OFFCURVE",
"491 122 CURVE",
"492 123 OFFCURVE",
"492 124 OFFCURVE",
"492 125 CURVE SMOOTH",
"492 128 OFFCURVE",
"489 131 OFFCURVE",
"486 131 CURVE SMOOTH",
"481 131 OFFCURVE",
"429 67 OFFCURVE",
"409 51 CURVE SMOOTH",
"381 29 OFFCURVE",
"349 22 OFFCURVE",
"316 22 CURVE SMOOTH",
"250 22 OFFCURVE",
"140 61 OFFCURVE",
"89 71 CURVE",
"108 112 OFFCURVE",
"131 159 OFFCURVE",
"151 200 CURVE",
"244 213 OFFCURVE",
"264 220 OFFCURVE",
"264 226 CURVE SMOOTH",
"264 229 OFFCURVE",
"253 230 OFFCURVE",
"245 230 CURVE SMOOTH"
);
}
);
width = 439;
}
);
note = sterling;
unicode = 00A3;
},
{
glyphname = currency;
layers = (
{
hints = (
{
horizontal = 1;
place = "{152, 21}";
target = up;
type = BottomGhost;
},
{
horizontal = 1;
place = "{228, 24}";
type = Stem;
},
{
horizontal = 1;
place = "{463, 25}";
type = Stem;
},
{
horizontal = 1;
place = "{564, -20}";
target = down;
type = TopGhost;
},
{
place = "{141, 38}";
type = Stem;
},
{
place = "{367, 38}";
type = Stem;
}
);
layerId = "F07FC137-599D-4028-8184-32064863B81C";
paths = (
{
closed = 1;
nodes = (
"142 351 OFFCURVE",
"141 343 OFFCURVE",
"141 336 CURVE SMOOTH",
"141 316 OFFCURVE",
"146 298 OFFCURVE",
"155 282 CURVE",
"36 152 LINE",
"181 252 LINE",
"200 237 OFFCURVE",
"225 228 OFFCURVE",
"253 228 CURVE SMOOTH",
"281 228 OFFCURVE",
"307 237 OFFCURVE",
"332 252 CURVE",
"447 152 LINE",
"367 282 LINE",
"388 308 OFFCURVE",
"405 341 OFFCURVE",
"405 376 CURVE SMOOTH",
"405 397 OFFCURVE",
"399 416 OFFCURVE",
"390 432 CURVE",
"512 564 LINE",
"365 463 LINE",
"346 479 OFFCURVE",
"322 488 OFFCURVE",
"293 488 CURVE SMOOTH",
"265 488 OFFCURVE",
"237 479 OFFCURVE",
"214 464 CURVE",
"101 564 LINE",
"179 433 LINE",
"159 412 OFFCURVE",
"147 386 OFFCURVE",
"143 358 CURVE SMOOTH"
);
},
{
closed = 1;
nodes = (
"179 416 OFFCURVE",
"221 463 OFFCURVE",
"272 463 CURVE SMOOTH",
"323 463 OFFCURVE",
"367 416 OFFCURVE",
"367 358 CURVE SMOOTH",
"367 299 OFFCURVE",
"323 252 OFFCURVE",
"272 252 CURVE SMOOTH",
"221 252 OFFCURVE",
"179 299 OFFCURVE",
"179 358 CURVE SMOOTH"
);
}
);
width = 552;
}
);
note = currency;
unicode = 00A4;
},
{
glyphname = yen;
layers = (
{
hints = (
{
horizontal = 1;
place = "{-30, 472}";
type = Stem;
},
{
place = "{142, 18}";
type = Stem;
},
{
horizontal = 1;
place = "{156, 30}";
type = Stem;
},
{
place = "{67, 188}";
type = Stem;
}
);
layerId = "F07FC137-599D-4028-8184-32064863B81C";
paths = (
{
closed = 1;
nodes = (
"179 91 LINE SMOOTH",
"186 92 OFFCURVE",
"222 94 OFFCURVE",
"222 104 CURVE SMOOTH",
"222 109 OFFCURVE",
"204 114 OFFCURVE",
"178 114 CURVE SMOOTH",
"151 114 LINE",
"183 161 LINE",
"184 161 OFFCURVE",
"255 161 OFFCURVE",
"255 176 CURVE SMOOTH",
"255 181 OFFCURVE",
"237 186 OFFCURVE",
"211 186 CURVE SMOOTH",
"201 186 LINE",
"257 263 OFFCURVE",
"320 342 OFFCURVE",
"376 413 CURVE",
"377 415 OFFCURVE",
"378 417 OFFCURVE",
"378 419 CURVE SMOOTH",
"378 430 OFFCURVE",
"363 443 OFFCURVE",
"351 443 CURVE SMOOTH",
"340 443 OFFCURVE",
"251 317 OFFCURVE",
"165 186 CURVE",
"154 186 LINE",
"135 292 OFFCURVE",
"83 437 OFFCURVE",
"40 437 CURVE",
"34 436 OFFCURVE",
"13 421 OFFCURVE",
"13 414 CURVE SMOOTH",
"13 413 OFFCURVE",
"13 412 OFFCURVE",
"14 412 CURVE",
"66 361 OFFCURVE",
"108 267 OFFCURVE",
"130 185 CURVE",
"93 185 LINE SMOOTH",
"82 185 OFFCURVE",
"67 172 OFFCURVE",
"67 164 CURVE SMOOTH",
"67 158 OFFCURVE",
"72 156 OFFCURVE",
"85 156 CURVE SMOOTH",
"97 156 OFFCURVE",
"115 157 OFFCURVE",
"136 158 CURVE",
"139 145 LINE",
"119 114 LINE",
"62 112 OFFCURVE",
"34 117 OFFCURVE",
"34 92 CURVE SMOOTH",
"34 86 OFFCURVE",
"39 84 OFFCURVE",
"52 84 CURVE SMOOTH",
"63 84 OFFCURVE",
"82 85 OFFCURVE",
"102 86 CURVE",
"69 33 OFFCURVE",
"46 -8 OFFCURVE",
"43 -23 CURVE",
"43 -28 OFFCURVE",
"47 -30 OFFCURVE",
"52 -30 CURVE SMOOTH",
"76 -30 OFFCURVE",
"105 46 OFFCURVE",
"133 87 CURVE"
);
}
);
width = 248;
}
);
note = yen;
unicode = 00A5;
},
{
glyphname = brokenbar;
layers = (
{
hints = (
{
horizontal = 1;
place = "{467, -20}";
target = down;
type = TopGhost;
},
{
place = "{103, 27}";
type = Stem;
}
);
layerId = "F07FC137-599D-4028-8184-32064863B81C";
paths = (
{
closed = 1;
nodes = (
"130 241 LINE",
"130 467 LINE",
"103 467 LINE",
"103 241 LINE"
);
},
{
closed = 1;
nodes = (
"130 -39 LINE",
"130 183 LINE",
"103 183 LINE",
"103 -39 LINE"
);
}
);
width = 206;
}
);
note = brokenbar;
unicode = 00A6;
},
{
glyphname = section;
layers = (
{
hints = (
{
horizontal = 1;
place = "{-153, 27}";
type = Stem;
},
{
horizontal = 1;
place = "{420, 32}";
type = Stem;
},
{
place = "{-20, 18}";
type = Stem;
},
{
place = "{64, 36}";
type = Stem;
},
{
place = "{131, 36}";
type = Stem;
},
{
place = "{309, 37}";
type = Stem;
},
{
place = "{377, 35}";
type = Stem;
},
{
place = "{445, 18}";
type = Stem;
}
);
layerId = "F07FC137-599D-4028-8184-32064863B81C";
paths = (
{
closed = 1;
nodes = (
"205 226 OFFCURVE",
"256 221 OFFCURVE",
"292 211 CURVE SMOOTH",
"353 193 OFFCURVE",
"377 165 OFFCURVE",
"377 136 CURVE SMOOTH",
"377 106 OFFCURVE",
"358 86 OFFCURVE",
"320 56 CURVE",
"269 102 OFFCURVE",
"100 104 OFFCURVE",
"100 171 CURVE SMOOTH",
"100 201 OFFCURVE",
"132 231 OFFCURVE",
"170 247 CURVE"
);
},
{
closed = 1;
nodes = (
"369 68 OFFCURVE",
"412 117 OFFCURVE",
"412 160 CURVE SMOOTH",
"412 285 OFFCURVE",
"167 240 OFFCURVE",
"167 330 CURVE SMOOTH",
"167 397 OFFCURVE",
"300 420 OFFCURVE",
"369 420 CURVE SMOOTH",
"408 420 OFFCURVE",
"445 414 OFFCURVE",
"445 387 CURVE SMOOTH",
"445 380 OFFCURVE",
"449 373 OFFCURVE",
"453 373 CURVE SMOOTH",
"460 373 OFFCURVE",
"463 391 OFFCURVE",
"463 401 CURVE SMOOTH",
"463 442 OFFCURVE",
"407 452 OFFCURVE",
"358 452 CURVE SMOOTH",
"331 452 OFFCURVE",
"306 449 OFFCURVE",
"293 446 CURVE SMOOTH",
"234 431 OFFCURVE",
"131 386 OFFCURVE",
"131 312 CURVE SMOOTH",
"131 286 OFFCURVE",
"142 268 OFFCURVE",
"157 256 CURVE",
"110 233 OFFCURVE",
"64 202 OFFCURVE",
"64 156 CURVE SMOOTH",
"64 29 OFFCURVE",
"309 78 OFFCURVE",
"309 -13 CURVE SMOOTH",
"309 -72 OFFCURVE",
"209 -126 OFFCURVE",
"88 -126 CURVE SMOOTH",
"40 -126 OFFCURVE",
"-3 -116 OFFCURVE",
"-3 -79 CURVE SMOOTH",
"-3 -71 OFFCURVE",
"3 -60 OFFCURVE",
"3 -50 CURVE SMOOTH",
"3 -46 OFFCURVE",
"1 -44 OFFCURVE",
"-1 -44 CURVE SMOOTH",
"-11 -44 OFFCURVE",
"-20 -80 OFFCURVE",
"-20 -97 CURVE SMOOTH",
"-20 -140 OFFCURVE",
"26 -153 OFFCURVE",
"78 -153 CURVE SMOOTH",
"210 -153 OFFCURVE",
"346 -85 OFFCURVE",
"346 1 CURVE SMOOTH",
"346 18 OFFCURVE",
"340 32 OFFCURVE",
"331 45 CURVE"
);
}
);
width = 426;
}
);
note = section;
unicode = 00A7;
},
{
glyphname = dieresis;
layers = (
{
hints = (
{
horizontal = 1;
place = "{278, 53}";
type = Stem;
},
{
place = "{144, 53}";
type = Stem;
},
{
place = "{271, 53}";
type = Stem;
}
);
layerId = "F07FC137-599D-4028-8184-32064863B81C";
paths = (
{
closed = 1;
nodes = (
"192 315 OFFCURVE",
"197 326 OFFCURVE",
"197 330 CURVE SMOOTH",
"197 331 OFFCURVE",
"196 331 OFFCURVE",
"195 331 CURVE SMOOTH",
"194 331 OFFCURVE",
"189 329 OFFCURVE",
"182 323 CURVE SMOOTH",
"178 320 OFFCURVE",
"144 295 OFFCURVE",
"144 291 CURVE SMOOTH",
"144 278 OFFCURVE",
"160 278 OFFCURVE",
"171 278 CURVE SMOOTH",
"178 278 OFFCURVE",
"192 301 OFFCURVE",
"192 309 CURVE SMOOTH"
);
},
{
closed = 1;
nodes = (
"319 315 OFFCURVE",
"324 326 OFFCURVE",
"324 330 CURVE SMOOTH",
"324 331 OFFCURVE",
"323 331 OFFCURVE",
"322 331 CURVE SMOOTH",
"321 331 OFFCURVE",
"316 329 OFFCURVE",
"309 323 CURVE SMOOTH",
"305 320 OFFCURVE",
"271 295 OFFCURVE",
"271 291 CURVE SMOOTH",
"271 278 OFFCURVE",
"286 278 OFFCURVE",
"298 278 CURVE SMOOTH",
"304 278 OFFCURVE",
"319 301 OFFCURVE",
"319 309 CURVE SMOOTH"
);
}
);
width = 314;
}
);
note = dieresis;
unicode = 00A8;
},
{
glyphname = copyright;
layers = (
{
hints = (
{
horizontal = 1;
place = "{38, 21}";
type = Stem;
},
{
horizontal = 1;
place = "{378, 22}";
type = Stem;
},
{
place = "{116, 43}";
type = Stem;
},
{
place = "{399, 32}";
type = Stem;
}
);
layerId = "F07FC137-599D-4028-8184-32064863B81C";
paths = (
{
closed = 1;
nodes = (
"514 70 OFFCURVE",
"400 -16 OFFCURVE",
"276 -16 CURVE SMOOTH",
"142 -16 OFFCURVE",
"45 82 OFFCURVE",
"45 201 CURVE SMOOTH",
"45 343 OFFCURVE",
"173 452 OFFCURVE",
"312 452 CURVE SMOOTH",
"447 452 OFFCURVE",
"544 353 OFFCURVE",
"544 234 CURVE SMOOTH",
"544 219 OFFCURVE",
"542 204 OFFCURVE",
"539 188 CURVE SMOOTH"
);
},
{
closed = 1;
nodes = (
"576 229 OFFCURVE",
"577 240 OFFCURVE",
"577 250 CURVE SMOOTH",
"577 380 OFFCURVE",
"472 480 OFFCURVE",
"329 480 CURVE SMOOTH",
"161 480 OFFCURVE",
"11 344 OFFCURVE",
"11 184 CURVE SMOOTH",
"11 55 OFFCURVE",
"115 -44 OFFCURVE",
"259 -44 CURVE SMOOTH",
"414 -44 OFFCURVE",
"555 73 OFFCURVE",
"575 218 CURVE SMOOTH"
);
},
{
closed = 1;
nodes = (
"313 38 OFFCURVE",
"394 87 OFFCURVE",
"441 149 CURVE",
"444 152 OFFCURVE",
"445 156 OFFCURVE",
"445 160 CURVE SMOOTH",
"445 167 OFFCURVE",
"441 171 OFFCURVE",
"438 171 CURVE SMOOTH",
"433 171 OFFCURVE",
"366 104 OFFCURVE",
"334 87 CURVE SMOOTH",
"298 67 OFFCURVE",
"265 59 OFFCURVE",
"238 59 CURVE SMOOTH",
"189 59 OFFCURVE",
"158 88 OFFCURVE",
"158 138 CURVE SMOOTH",
"158 232 OFFCURVE",
"275 378 OFFCURVE",
"358 378 CURVE SMOOTH",
"378 378 OFFCURVE",
"399 367 OFFCURVE",
"399 347 CURVE SMOOTH",
"399 322 OFFCURVE",
"369 303 OFFCURVE",
"369 295 CURVE SMOOTH",
"369 292 OFFCURVE",
"372 291 OFFCURVE",
"376 291 CURVE SMOOTH",
"375 291 OFFCURVE",
"431 297 OFFCURVE",
"431 349 CURVE SMOOTH",
"431 394 OFFCURVE",
"387 400 OFFCURVE",
"362 400 CURVE SMOOTH",
"244 400 OFFCURVE",
"116 248 OFFCURVE",
"116 144 CURVE SMOOTH",
"116 72 OFFCURVE",
"178 38 OFFCURVE",
"233 38 CURVE SMOOTH"
);
}
);
width = 589;
}
);
note = copyright;
unicode = 00A9;
},
{
glyphname = ordfeminine;
layers = (
{
hints = (
{
horizontal = 1;
place = "{374, 20}";
type = Stem;
},
{
horizontal = 1;
place = "{613, 24}";
type = Stem;
}
);
layerId = "F07FC137-599D-4028-8184-32064863B81C";
paths = (
{
closed = 1;
nodes = (
"244 383 OFFCURVE",
"320 495 OFFCURVE",
"334 501 CURVE",
"326 480 OFFCURVE",
"318 447 OFFCURVE",
"318 423 CURVE SMOOTH",
"318 386 OFFCURVE",
"342 374 OFFCURVE",
"364 374 CURVE SMOOTH",
"422 374 OFFCURVE",
"503 460 OFFCURVE",
"526 504 CURVE",
"527 505 OFFCURVE",
"527 506 OFFCURVE",
"527 507 CURVE SMOOTH",
"527 510 OFFCURVE",
"524 513 OFFCURVE",
"521 513 CURVE SMOOTH",
"519 513 OFFCURVE",
"517 512 OFFCURVE",
"516 510 CURVE SMOOTH",
"472 449 OFFCURVE",
"398 394 OFFCURVE",
"381 394 CURVE SMOOTH",
"367 394 OFFCURVE",
"359 407 OFFCURVE",
"359 426 CURVE SMOOTH",
"359 448 OFFCURVE",
"373 505 OFFCURVE",
"408 554 CURVE SMOOTH",
"409 555 OFFCURVE",
"409 556 OFFCURVE",
"409 558 CURVE SMOOTH",
"409 568 OFFCURVE",
"383 573 OFFCURVE",
"376 573 CURVE SMOOTH",
"369 573 OFFCURVE",
"308 506 OFFCURVE",
"297 494 CURVE SMOOTH",
"258 454 OFFCURVE",
"203 397 OFFCURVE",
"168 397 CURVE SMOOTH",
"156 397 OFFCURVE",
"152 411 OFFCURVE",
"152 421 CURVE SMOOTH",
"152 459 OFFCURVE",
"202 516 OFFCURVE",
"222 534 CURVE SMOOTH",
"263 571 OFFCURVE",
"319 603 OFFCURVE",
"361 603 CURVE SMOOTH",
"378 603 OFFCURVE",
"397 587 OFFCURVE",
"404 587 CURVE SMOOTH",
"405 587 OFFCURVE",
"406 588 OFFCURVE",
"406 592 CURVE SMOOTH",
"406 613 OFFCURVE",
"374 624 OFFCURVE",
"348 624 CURVE SMOOTH",
"335 624 OFFCURVE",
"322 623 OFFCURVE",
"312 620 CURVE SMOOTH",
"260 607 OFFCURVE",
"117 516 OFFCURVE",
"117 443 CURVE SMOOTH",
"117 411 OFFCURVE",
"151 383 OFFCURVE",
"180 383 CURVE SMOOTH"
);
}
);
width = 520;
}
);
note = ordfeminine;
unicode = 00AA;
},
{
glyphname = guillemotleft;
layers = (
{
hints = (
{
horizontal = 1;
place = "{66, 222}";
type = Stem;
},
{
place = "{67, 40}";
type = Stem;
},
{
place = "{171, 40}";
type = Stem;
}
);
layerId = "F07FC137-599D-4028-8184-32064863B81C";
paths = (
{
closed = 1;
nodes = (
"177 175 OFFCURVE",
"171 171 OFFCURVE",
"171 166 CURVE SMOOTH",
"171 163 OFFCURVE",
"251 66 OFFCURVE",
"254 66 CURVE SMOOTH",
"257 66 OFFCURVE",
"260 69 OFFCURVE",
"260 75 CURVE SMOOTH",
"260 87 OFFCURVE",
"242 121 OFFCURVE",
"211 179 CURVE",
"295 259 OFFCURVE",
"304 274 OFFCURVE",
"304 284 CURVE SMOOTH",
"304 287 OFFCURVE",
"302 288 OFFCURVE",
"300 288 CURVE SMOOTH",
"299 288 OFFCURVE",
"297 287 OFFCURVE",
"295 286 CURVE",
"245 244 OFFCURVE",
"233 227 OFFCURVE",
"185 183 CURVE SMOOTH"
);
},
{
closed = 1;
nodes = (
"72 175 OFFCURVE",
"66 171 OFFCURVE",
"66 166 CURVE SMOOTH",
"66 161 OFFCURVE",
"148 66 OFFCURVE",
"149 66 CURVE SMOOTH",
"153 66 OFFCURVE",
"155 69 OFFCURVE",
"155 75 CURVE SMOOTH",
"155 87 OFFCURVE",
"137 120 OFFCURVE",
"107 179 CURVE",
"193 260 OFFCURVE",
"199 275 OFFCURVE",
"199 284 CURVE SMOOTH",
"199 287 OFFCURVE",
"198 288 OFFCURVE",
"196 288 CURVE SMOOTH",
"194 288 OFFCURVE",
"193 287 OFFCURVE",
"191 286 CURVE",
"141 244 OFFCURVE",
"128 228 OFFCURVE",
"80 183 CURVE SMOOTH"
);
}
);
width = 303;
}
);
note = guillemotleft;
unicode = 00AB;
},
{
glyphname = logicalnot;
layers = (
{
hints = (
{
horizontal = 1;
place = "{176, 25}";
type = Stem;
},
{
horizontal = 1;
place = "{226, -20}";
target = down;
type = TopGhost;
}
);
layerId = "F07FC137-599D-4028-8184-32064863B81C";
paths = (
{
closed = 1;
nodes = (
"572 228 OFFCURVE",
"559 230 OFFCURVE",
"545 230 CURVE SMOOTH",
"381 226 OFFCURVE",
"216 206 OFFCURVE",
"52 199 CURVE SMOOTH",
"35 198 OFFCURVE",
"29 193 OFFCURVE",
"29 188 CURVE SMOOTH",
"29 181 OFFCURVE",
"37 176 OFFCURVE",
"46 176 CURVE SMOOTH",
"209 185 OFFCURVE",
"371 197 OFFCURVE",
"534 209 CURVE",
"520 155 OFFCURVE",
"518 97 OFFCURVE",
"516 41 CURVE",
"517 34 OFFCURVE",
"521 31 OFFCURVE",
"526 31 CURVE SMOOTH",
"536 31 OFFCURVE",
"558 142 OFFCURVE",
"564 176 CURVE SMOOTH",
"566 189 OFFCURVE",
"572 204 OFFCURVE",
"572 217 CURVE SMOOTH"
);
}
);
width = 596;
}
);
note = logicalnot;
unicode = 00AC;
},
{
glyphname = registered;
layers = (
{
hints = (
{
horizontal = 1;
place = "{188, 17}";
type = Stem;
},
{
horizontal = 1;
place = "{389, 15}";
type = Stem;
},
{
place = "{148, 24}";
type = Stem;
},
{
place = "{428, 24}";
type = Stem;
}
);
layerId = "F07FC137-599D-4028-8184-32064863B81C";
paths = (
{
closed = 1;
nodes = (
"11 206 OFFCURVE",
"11 195 OFFCURVE",
"11 184 CURVE SMOOTH",
"11 55 OFFCURVE",
"115 -44 OFFCURVE",
"259 -44 CURVE SMOOTH",
"424 -44 OFFCURVE",
"577 91 OFFCURVE",
"577 250 CURVE SMOOTH",
"577 380 OFFCURVE",
"472 480 OFFCURVE",
"329 480 CURVE SMOOTH",
"173 480 OFFCURVE",
"32 363 OFFCURVE",
"13 218 CURVE SMOOTH"
);
},
{
closed = 1;
nodes = (
"75 366 OFFCURVE",
"188 452 OFFCURVE",
"312 452 CURVE SMOOTH",
"447 452 OFFCURVE",
"544 353 OFFCURVE",
"544 234 CURVE SMOOTH",
"544 93 OFFCURVE",
"415 -16 OFFCURVE",
"276 -16 CURVE SMOOTH",
"142 -16 OFFCURVE",
"45 82 OFFCURVE",
"45 201 CURVE SMOOTH",
"45 217 OFFCURVE",
"47 232 OFFCURVE",
"50 248 CURVE SMOOTH"
);
},
{
closed = 1;
nodes = (
"293 342 OFFCURVE",
"293 343 OFFCURVE",
"293 344 CURVE SMOOTH",
"293 350 OFFCURVE",
"276 358 OFFCURVE",
"266 358 CURVE SMOOTH",
"253 358 OFFCURVE",
"148 110 OFFCURVE",
"148 63 CURVE",
"149 59 OFFCURVE",
"153 58 OFFCURVE",
"157 58 CURVE SMOOTH",
"163 58 OFFCURVE",
"170 60 OFFCURVE",
"172 62 CURVE",
"180 110 OFFCURVE",
"196 152 OFFCURVE",
"214 191 CURVE",
"220 188 LINE",
"221 187 OFFCURVE",
"223 187 OFFCURVE",
"225 187 CURVE SMOOTH",
"232 187 OFFCURVE",
"241 189 OFFCURVE",
"245 190 CURVE",
"263 163 OFFCURVE",
"358 51 OFFCURVE",
"391 51 CURVE",
"397 52 OFFCURVE",
"402 55 OFFCURVE",
"402 59 CURVE SMOOTH",
"402 61 OFFCURVE",
"401 63 OFFCURVE",
"399 65 CURVE SMOOTH",
"355 104 OFFCURVE",
"309 141 OFFCURVE",
"282 195 CURVE",
"347 209 OFFCURVE",
"452 247 OFFCURVE",
"452 331 CURVE SMOOTH",
"452 374 OFFCURVE",
"403 404 OFFCURVE",
"328 404 CURVE SMOOTH",
"249 404 OFFCURVE",
"201 386 OFFCURVE",
"201 373 CURVE SMOOTH",
"201 363 OFFCURVE",
"211 357 OFFCURVE",
"215 357 CURVE",
"230 361 OFFCURVE",
"297 389 OFFCURVE",
"350 389 CURVE SMOOTH",
"405 389 OFFCURVE",
"428 360 OFFCURVE",
"428 335 CURVE SMOOTH",
"428 253 OFFCURVE",
"286 207 OFFCURVE",
"220 205 CURVE",
"242 250 OFFCURVE",
"268 293 OFFCURVE",
"293 342 CURVE"
);
}
);
width = 589;
}
);
note = registered;
unicode = 00AE;
},
{
glyphname = macron;
layers = (
{
hints = (
{
horizontal = 1;
place = "{291, 30}";
type = Stem;
},
{
place = "{106, 188}";
type = Stem;
}
);
layerId = "F07FC137-599D-4028-8184-32064863B81C";
paths = (
{
closed = 1;
nodes = (
"257 299 OFFCURVE",
"294 301 OFFCURVE",
"294 311 CURVE",
"293 316 OFFCURVE",
"276 321 OFFCURVE",
"250 321 CURVE SMOOTH",
"179 321 OFFCURVE",
"106 329 OFFCURVE",
"106 299 CURVE SMOOTH",
"106 293 OFFCURVE",
"110 291 OFFCURVE",
"124 291 CURVE SMOOTH",
"151 291 OFFCURVE",
"213 296 OFFCURVE",
"251 298 CURVE SMOOTH"
);
}
);
width = 302;
}
);
note = macron;
unicode = 00AF;
},
{
glyphname = degree;
layers = (
{
hints = (
{
horizontal = 1;
place = "{430, 76}";
type = Stem;
},
{
place = "{132, 82}";
type = Stem;
}
);
layerId = "F07FC137-599D-4028-8184-32064863B81C";
paths = (
{
closed = 1;
nodes = (
"209 436 OFFCURVE",
"198 430 OFFCURVE",
"184 430 CURVE SMOOTH",
"161 430 OFFCURVE",
"131 447 OFFCURVE",
"131 474 CURVE SMOOTH",
"131 488 OFFCURVE",
"142 507 OFFCURVE",
"158 507 CURVE SMOOTH",
"189 507 OFFCURVE",
"214 492 OFFCURVE",
"214 462 CURVE SMOOTH",
"214 458 OFFCURVE",
"213 453 OFFCURVE",
"212 448 CURVE SMOOTH"
);
},
{
closed = 1;
nodes = (
"241 458 OFFCURVE",
"241 461 OFFCURVE",
"241 464 CURVE SMOOTH",
"241 515 OFFCURVE",
"206 537 OFFCURVE",
"167 537 CURVE SMOOTH",
"131 537 OFFCURVE",
"97 513 OFFCURVE",
"97 476 CURVE SMOOTH",
"97 433 OFFCURVE",
"143 404 OFFCURVE",
"184 404 CURVE SMOOTH",
"213 404 OFFCURVE",
"238 419 OFFCURVE",
"241 455 CURVE SMOOTH"
);
}
);
width = 283;
}
);
note = degree;
unicode = 00B0;
},
{
glyphname = plusminus;
layers = (
{
hints = (
{
horizontal = 1;
place = "{155, 19}";
type = Stem;
}
);
layerId = "F07FC137-599D-4028-8184-32064863B81C";
paths = (
{
closed = 1;
nodes = (
"363 -22 OFFCURVE",
"372 -15 OFFCURVE",
"372 -10 CURVE SMOOTH",
"372 -5 OFFCURVE",
"364 0 OFFCURVE",
"348 0 CURVE SMOOTH",
"315 0 OFFCURVE",
"88 -1 OFFCURVE",
"71 -1 CURVE SMOOTH",
"60 -1 OFFCURVE",
"45 -14 OFFCURVE",
"45 -22 CURVE SMOOTH",
"45 -28 OFFCURVE",
"50 -30 OFFCURVE",
"64 -30 CURVE SMOOTH",
"91 -30 OFFCURVE",
"312 -25 OFFCURVE",
"349 -23 CURVE SMOOTH"
);
},
{
closed = 1;
nodes = (
"309 306 OFFCURVE",
"287 258 OFFCURVE",
"263 206 CURVE",
"133 206 LINE SMOOTH",
"122 206 OFFCURVE",
"107 193 OFFCURVE",
"107 184 CURVE SMOOTH",
"107 178 OFFCURVE",
"112 176 OFFCURVE",
"126 176 CURVE SMOOTH",
"138 177 OFFCURVE",
"183 178 OFFCURVE",
"251 179 CURVE",
"207 80 OFFCURVE",
"187 35 OFFCURVE",
"187 34 CURVE SMOOTH",
"187 28 OFFCURVE",
"190 26 OFFCURVE",
"195 26 CURVE SMOOTH",
"204 26 OFFCURVE",
"217 33 OFFCURVE",
"221 42 CURVE SMOOTH",
"280 180 LINE",
"413 182 OFFCURVE",
"433 182 OFFCURVE",
"433 196 CURVE SMOOTH",
"433 201 OFFCURVE",
"426 206 OFFCURVE",
"410 206 CURVE SMOOTH",
"292 206 LINE",
"337 311 LINE SMOOTH",
"340 318 OFFCURVE",
"341 323 OFFCURVE",
"341 327 CURVE SMOOTH",
"341 333 OFFCURVE",
"338 336 OFFCURVE",
"335 336 CURVE SMOOTH",
"330 336 OFFCURVE",
"323 331 OFFCURVE",
"317 320 CURVE SMOOTH"
);
}
);
width = 492;
}
);
note = plusminus;
unicode = 00B1;
},
{
glyphname = twosuperior;
layers = (
{
hints = (
{
horizontal = 1;
place = "{303, 22}";
type = Stem;
},
{
horizontal = 1;
place = "{595, -20}";
target = down;
type = TopGhost;
},
{
place = "{114, 222}";
type = Stem;
},
{
place = "{301, 35}";
type = Stem;
}
);
layerId = "F07FC137-599D-4028-8184-32064863B81C";
paths = (
{
closed = 1;
nodes = (
"107 353 OFFCURVE",
"105 353 OFFCURVE",
"103 353 CURVE SMOOTH",
"77 353 OFFCURVE",
"56 343 OFFCURVE",
"56 312 CURVE SMOOTH",
"56 309 OFFCURVE",
"57 308 OFFCURVE",
"59 308 CURVE SMOOTH",
"69 308 OFFCURVE",
"96 333 OFFCURVE",
"98 336 CURVE",
"148 315 OFFCURVE",
"238 303 OFFCURVE",
"243 303 CURVE SMOOTH",
"267 303 OFFCURVE",
"317 319 OFFCURVE",
"317 345 CURVE SMOOTH",
"317 347 OFFCURVE",
"316 349 OFFCURVE",
"314 349 CURVE SMOOTH",
"311 349 OFFCURVE",
"308 347 OFFCURVE",
"307 343 CURVE SMOOTH",
"303 330 OFFCURVE",
"276 325 OFFCURVE",
"249 325 CURVE SMOOTH",
"221 325 OFFCURVE",
"182 342 OFFCURVE",
"125 351 CURVE",
"199 390 OFFCURVE",
"336 470 OFFCURVE",
"336 538 CURVE SMOOTH",
"336 574 OFFCURVE",
"298 595 OFFCURVE",
"245 595 CURVE SMOOTH",
"232 595 OFFCURVE",
"218 593 OFFCURVE",
"203 590 CURVE SMOOTH",
"181 587 OFFCURVE",
"114 561 OFFCURVE",
"114 529 CURVE SMOOTH",
"114 520 OFFCURVE",
"122 506 OFFCURVE",
"128 506 CURVE SMOOTH",
"130 506 OFFCURVE",
"132 508 OFFCURVE",
"132 510 CURVE SMOOTH",
"132 514 OFFCURVE",
"128 519 OFFCURVE",
"128 523 CURVE SMOOTH",
"128 548 OFFCURVE",
"187 568 OFFCURVE",
"202 572 CURVE SMOOTH",
"215 575 OFFCURVE",
"228 577 OFFCURVE",
"239 577 CURVE SMOOTH",
"276 577 OFFCURVE",
"301 561 OFFCURVE",
"301 533 CURVE SMOOTH",
"301 470 OFFCURVE",
"169 388 OFFCURVE",
"109 353 CURVE"
);
}
);
width = 467;
}
);
note = twosuperior;
unicode = 00B2;
},
{
glyphname = threesuperior;
layers = (
{
hints = (
{
horizontal = 1;
place = "{462, 134}";
type = Stem;
},
{
place = "{14, 21}";
type = Stem;
},
{
place = "{215, 31}";
type = Stem;
},
{
horizontal = 1;
place = "{300, 180}";
type = Stem;
},
{
place = "{87, 171}";
type = Stem;
},
{
place = "{229, 29}";
type = Stem;
}
);
layerId = "F07FC137-599D-4028-8184-32064863B81C";
paths = (
{
closed = 1;
nodes = (
"124 462 OFFCURVE",
"124 462 OFFCURVE",
"126 462 CURVE SMOOTH",
"138 462 OFFCURVE",
"154 467 OFFCURVE",
"171 467 CURVE",
"201 460 OFFCURVE",
"215 443 OFFCURVE",
"215 423 CURVE SMOOTH",
"215 362 OFFCURVE",
"146 310 OFFCURVE",
"90 310 CURVE SMOOTH",
"69 310 OFFCURVE",
"37 321 OFFCURVE",
"35 350 CURVE SMOOTH",
"35 357 OFFCURVE",
"37 363 OFFCURVE",
"37 369 CURVE SMOOTH",
"37 373 OFFCURVE",
"33 376 OFFCURVE",
"28 376 CURVE SMOOTH",
"19 376 OFFCURVE",
"14 362 OFFCURVE",
"14 350 CURVE SMOOTH",
"14 306 OFFCURVE",
"60 300 OFFCURVE",
"90 300 CURVE SMOOTH",
"157 300 OFFCURVE",
"246 347 OFFCURVE",
"246 421 CURVE SMOOTH",
"246 451 OFFCURVE",
"225 470 OFFCURVE",
"198 471 CURVE",
"239 484 OFFCURVE",
"258 514 OFFCURVE",
"258 541 CURVE SMOOTH",
"258 579 OFFCURVE",
"222 596 OFFCURVE",
"184 596 CURVE SMOOTH",
"130 596 OFFCURVE",
"87 572 OFFCURVE",
"87 529 CURVE SMOOTH",
"87 526 OFFCURVE",
"89 525 OFFCURVE",
"90 525 CURVE SMOOTH",
"94 525 OFFCURVE",
"98 528 OFFCURVE",
"98 532 CURVE SMOOTH",
"98 565 OFFCURVE",
"148 579 OFFCURVE",
"175 579 CURVE SMOOTH",
"208 579 OFFCURVE",
"229 558 OFFCURVE",
"229 537 CURVE SMOOTH",
"229 507 OFFCURVE",
"191 480 OFFCURVE",
"149 480 CURVE SMOOTH",
"139 480 OFFCURVE",
"129 482 OFFCURVE",
"122 482 CURVE SMOOTH",
"114 482 OFFCURVE",
"110 478 OFFCURVE",
"110 473 CURVE SMOOTH",
"110 467 OFFCURVE",
"114 462 OFFCURVE",
"122 462 CURVE SMOOTH"
);
}
);
width = 314;
}
);
note = threesuperior;
unicode = 00B3;
},
{
glyphname = acute;
lastChange = "2020-01-24 17:37:38 +0000";
layers = (
{
hints = (
{
horizontal = 1;
place = "{-52, 22}";
type = Stem;
},
{
horizontal = 1;
place = "{226, -20}";
target = down;
type = TopGhost;
},
{
place = "{-2, 29}";
type = Stem;
},
{
place = "{162, 28}";
type = Stem;
}
);
layerId = "F07FC137-599D-4028-8184-32064863B81C";
paths = (
{
closed = 1;
nodes = (
"249 301 LINE SMOOTH",
"251 302 OFFCURVE",
"252 306 OFFCURVE",
"252 310 CURVE SMOOTH",
"252 317 OFFCURVE",
"246 327 OFFCURVE",
"230 327 CURVE SMOOTH",
"226 327 OFFCURVE",
"131 258 OFFCURVE",
"131 250 CURVE SMOOTH",
"131 248 OFFCURVE",
"133 247 OFFCURVE",
"136 247 CURVE SMOOTH",
"149 248 OFFCURVE",
"233 287 OFFCURVE",
"248 300 CURVE SMOOTH"
);
}
);
width = 352;
}
);
note = acute;
unicode = 00B4;
},
{
glyphname = mu;
layers = (
{
hints = (
{
horizontal = 1;
place = "{4, 14}";
type = Stem;
},
{
horizontal = 1;
place = "{225, -20}";
target = down;
type = TopGhost;
},
{
place = "{196, 45}";
type = Stem;
}
);
layerId = "F07FC137-599D-4028-8184-32064863B81C";
paths = (
{
closed = 1;
nodes = (
"49 9 OFFCURVE",
"75 1 OFFCURVE",
"90 1 CURVE SMOOTH",
"155 1 OFFCURVE",
"205 117 OFFCURVE",
"217 125 CURVE",
"208 103 OFFCURVE",
"201 66 OFFCURVE",
"201 41 CURVE SMOOTH",
"201 3 OFFCURVE",
"224 -8 OFFCURVE",
"246 -8 CURVE SMOOTH",
"304 -8 OFFCURVE",
"385 78 OFFCURVE",
"408 122 CURVE",
"409 123 OFFCURVE",
"409 124 OFFCURVE",
"409 125 CURVE SMOOTH",
"409 128 OFFCURVE",
"406 131 OFFCURVE",
"403 131 CURVE SMOOTH",
"401 131 OFFCURVE",
"399 130 OFFCURVE",
"398 128 CURVE SMOOTH",
"354 67 OFFCURVE",
"280 12 OFFCURVE",
"263 12 CURVE SMOOTH",
"249 12 OFFCURVE",
"241 25 OFFCURVE",
"241 44 CURVE SMOOTH",
"241 108 OFFCURVE",
"285 171 OFFCURVE",
"317 222 CURVE",
"318 223 OFFCURVE",
"318 224 OFFCURVE",
"318 226 CURVE SMOOTH",
"318 237 OFFCURVE",
"285 243 OFFCURVE",
"275 243 CURVE",
"217 150 OFFCURVE",
"142 17 OFFCURVE",
"78 17 CURVE SMOOTH",
"63 17 OFFCURVE",
"55 27 OFFCURVE",
"55 45 CURVE SMOOTH",
"55 122 OFFCURVE",
"138 204 OFFCURVE",
"138 204 CURVE",
"138 211 OFFCURVE",
"124 214 OFFCURVE",
"111 214 CURVE SMOOTH",
"79 214 OFFCURVE",
"67 187 OFFCURVE",
"36 109 CURVE SMOOTH",
"33 102 LINE SMOOTH",
"-10 1 OFFCURVE",
"-62 -164 OFFCURVE",
"-111 -261 CURVE",
"-112 -264 OFFCURVE",
"-113 -266 OFFCURVE",
"-113 -268 CURVE SMOOTH",
"-113 -271 OFFCURVE",
"-110 -273 OFFCURVE",
"-106 -273 CURVE SMOOTH",
"-94 -273 OFFCURVE",
"-71 -263 OFFCURVE",
"-63 -258 CURVE SMOOTH",
"-51 -251 OFFCURVE",
"-49 -238 OFFCURVE",
"-30 -189 CURVE SMOOTH",
"-27 -183 OFFCURVE",
"-27 -179 OFFCURVE",
"-27 -175 CURVE SMOOTH",
"-27 -173 OFFCURVE",
"-27 -171 OFFCURVE",
"-27 -168 CURVE SMOOTH",
"-27 -155 OFFCURVE",
"4 -64 OFFCURVE",
"37 24 CURVE"
);
}
);
width = 356;
}
);
note = mu;
unicode = 00B5;
},
{
glyphname = paragraph;
layers = (
{
hints = (
{
horizontal = 1;
place = "{189, 26}";
type = Stem;
},
{
horizontal = 1;
place = "{448, 19}";
type = Stem;
},
{
place = "{41, 31}";
type = Stem;
}
);
layerId = "F07FC137-599D-4028-8184-32064863B81C";
paths = (
{
closed = 1;
nodes = (
"339 441 OFFCURVE",
"339 442 OFFCURVE",
"339 443 CURVE SMOOTH",
"339 445 OFFCURVE",
"338 447 OFFCURVE",
"337 448 CURVE",
"352 448 OFFCURVE",
"367 446 OFFCURVE",
"383 444 CURVE",
"366 413 OFFCURVE",
"326 315 OFFCURVE",
"289 215 CURVE",
"269 211 OFFCURVE",
"248 209 OFFCURVE",
"227 208 CURVE",
"263 290 OFFCURVE",
"303 370 OFFCURVE",
"338 440 CURVE"
);
},
{
closed = 1;
nodes = (
"230 188 OFFCURVE",
"242 187 OFFCURVE",
"254 187 CURVE SMOOTH",
"262 187 OFFCURVE",
"271 187 OFFCURVE",
"279 188 CURVE",
"241 84 OFFCURVE",
"211 -13 OFFCURVE",
"211 -38 CURVE",
"213 -45 OFFCURVE",
"218 -48 OFFCURVE",
"223 -48 CURVE SMOOTH",
"226 -48 OFFCURVE",
"229 -47 OFFCURVE",
"231 -45 CURVE",
"260 115 OFFCURVE",
"355 298 OFFCURVE",
"426 440 CURVE",
"426 441 OFFCURVE",
"427 442 OFFCURVE",
"427 443 CURVE SMOOTH",
"427 457 OFFCURVE",
"358 467 OFFCURVE",
"313 467 CURVE SMOOTH",
"158 467 OFFCURVE",
"41 401 OFFCURVE",
"41 311 CURVE SMOOTH",
"41 253 OFFCURVE",
"91 203 OFFCURVE",
"192 192 CURVE",
"153 86 OFFCURVE",
"123 -13 OFFCURVE",
"123 -38 CURVE",
"125 -45 OFFCURVE",
"130 -48 OFFCURVE",
"135 -48 CURVE SMOOTH",
"138 -48 OFFCURVE",
"141 -47 OFFCURVE",
"143 -45 CURVE",
"157 30 OFFCURVE",
"185 110 OFFCURVE",
"218 189 CURVE"
);
},
{
closed = 1;
nodes = (
"109 217 OFFCURVE",
"71 250 OFFCURVE",
"71 291 CURVE SMOOTH",
"71 356 OFFCURVE",
"167 436 OFFCURVE",
"297 447 CURVE",
"281 419 OFFCURVE",
"238 315 OFFCURVE",
"199 209 CURVE"
);
}
);
width = 423;
}
);
note = paragraph;
unicode = 00B6;
},
{
glyphname = periodcentered;
layers = (
{
hints = (
{
horizontal = 1;
place = "{126, 49}";
type = Stem;
},
{
place = "{94, 48}";
type = Stem;
}
);
layerId = "F07FC137-599D-4028-8184-32064863B81C";
paths = (
{
closed = 1;
nodes = (
"147 160 OFFCURVE",
"147 164 OFFCURVE",
"147 168 CURVE SMOOTH",
"147 174 OFFCURVE",
"146 179 OFFCURVE",
"141 179 CURVE SMOOTH",
"137 179 OFFCURVE",
"131 176 OFFCURVE",
"120 168 CURVE",
"115 163 OFFCURVE",
"87 140 OFFCURVE",
"87 135 CURVE SMOOTH",
"87 118 OFFCURVE",
"107 118 OFFCURVE",
"121 118 CURVE SMOOTH",
"130 118 OFFCURVE",
"147 147 OFFCURVE",
"147 157 CURVE SMOOTH"
);
}
);
width = 166;
}
);
note = periodcentered;
unicode = 00B7;
},
{
glyphname = cedilla;
lastChange = "2020-01-06 19:13:34 +0000";
layers = (
{
hints = (
{
horizontal = 1;
place = "{-227, 19}";
type = Stem;
},
{
horizontal = 1;
place = "{-79, 19}";
type = Stem;
},
{
place = "{6, 24}";
type = Stem;
},
{
place = "{223, 28}";
type = Stem;
}
);
layerId = "F07FC137-599D-4028-8184-32064863B81C";
paths = (
{
closed = 1;
nodes = (
"83 -153 OFFCURVE",
"106 -159 OFFCURVE",
"130 -159 CURVE SMOOTH",
"182 -159 OFFCURVE",
"247 -125 OFFCURVE",
"247 -85 CURVE SMOOTH",
"247 -62 OFFCURVE",
"227 -43 OFFCURVE",
"191 -43 CURVE SMOOTH",
"184 -43 OFFCURVE",
"176 -44 OFFCURVE",
"167 -46 CURVE",
"173 -37 OFFCURVE",
"203 -1 OFFCURVE",
"203 2 CURVE SMOOTH",
"203 5 OFFCURVE",
"199 6 OFFCURVE",
"195 6 CURVE SMOOTH",
"183 6 OFFCURVE",
"145 -52 OFFCURVE",
"145 -59 CURVE SMOOTH",
"145 -61 OFFCURVE",
"147 -62 OFFCURVE",
"151 -62 CURVE SMOOTH",
"158 -62 OFFCURVE",
"174 -57 OFFCURVE",
"187 -57 CURVE SMOOTH",
"206 -57 OFFCURVE",
"218 -69 OFFCURVE",
"218 -85 CURVE SMOOTH",
"218 -118 OFFCURVE",
"166 -149 OFFCURVE",
"125 -149 CURVE SMOOTH",
"98 -149 OFFCURVE",
"79 -124 OFFCURVE",
"73 -124 CURVE SMOOTH",
"72 -124 OFFCURVE",
"71 -125 OFFCURVE",
"71 -127 CURVE SMOOTH",
"71 -129 OFFCURVE",
"72 -131 OFFCURVE",
"74 -135 CURVE SMOOTH"
);
}
);
width = 374;
}
);
note = cedilla;
unicode = 00B8;
},
{
glyphname = onesuperior;
layers = (
{
hints = (
{
horizontal = 1;
place = "{306, 21}";
target = up;
type = BottomGhost;
},
{
horizontal = 1;
place = "{601, -20}";
target = down;
type = TopGhost;
}
);
layerId = "F07FC137-599D-4028-8184-32064863B81C";
paths = (
{
closed = 1;
nodes = (
"148 332 OFFCURVE",
"134 332 OFFCURVE",
"120 332 CURVE SMOOTH",
"113 332 OFFCURVE",
"105 332 OFFCURVE",
"98 332 CURVE",
"114 390 OFFCURVE",
"168 504 OFFCURVE",
"211 589 CURVE",
"211 589 OFFCURVE",
"211 589 OFFCURVE",
"211 590 CURVE SMOOTH",
"211 594 OFFCURVE",
"198 601 OFFCURVE",
"189 601 CURVE SMOOTH",
"178 601 OFFCURVE",
"155 566 OFFCURVE",
"142 551 CURVE SMOOTH",
"125 532 OFFCURVE",
"89 501 OFFCURVE",
"89 497 CURVE SMOOTH",
"89 496 OFFCURVE",
"90 495 OFFCURVE",
"91 495 CURVE SMOOTH",
"103 495 OFFCURVE",
"142 533 OFFCURVE",
"159 549 CURVE",
"129 481 OFFCURVE",
"87 371 OFFCURVE",
"79 331 CURVE",
"44 327 OFFCURVE",
"18 329 OFFCURVE",
"18 309 CURVE SMOOTH",
"18 307 OFFCURVE",
"18 306 OFFCURVE",
"21 306 CURVE SMOOTH",
"38 306 OFFCURVE",
"60 314 OFFCURVE",
"78 317 CURVE",
"79 315 OFFCURVE",
"81 314 OFFCURVE",
"84 314 CURVE SMOOTH",
"88 314 OFFCURVE",
"94 317 OFFCURVE",
"96 319 CURVE",
"96 319 LINE",
"105 320 OFFCURVE",
"114 321 OFFCURVE",
"122 321 CURVE SMOOTH",
"134 321 OFFCURVE",
"146 320 OFFCURVE",
"156 320 CURVE SMOOTH",
"163 320 OFFCURVE",
"166 323 OFFCURVE",
"166 325 CURVE SMOOTH",
"166 327 OFFCURVE",
"164 329 OFFCURVE",
"161 330 CURVE SMOOTH"
);
}
);
width = 250;
}
);
note = onesuperior;
unicode = 00B9;
},
{
glyphname = ordmasculine;
layers = (
{
hints = (
{
horizontal = 1;
place = "{374, 20}";
type = Stem;
},
{
horizontal = 1;
place = "{556, 18}";
type = Stem;
},
{
horizontal = 1;
place = "{635, 15}";
type = Stem;
},
{
place = "{142, 32}";
type = Stem;
}
);
layerId = "F07FC137-599D-4028-8184-32064863B81C";
paths = (
{
closed = 1;
nodes = (
"286 428 OFFCURVE",
"252 402 OFFCURVE",
"227 402 CURVE SMOOTH",
"202 402 OFFCURVE",
"192 420 OFFCURVE",
"192 444 CURVE SMOOTH",
"192 521 OFFCURVE",
"283 615 OFFCURVE",
"318 615 CURVE SMOOTH",
"330 615 OFFCURVE",
"334 607 OFFCURVE",
"334 599 CURVE SMOOTH",
"334 597 OFFCURVE",
"333 595 OFFCURVE",
"333 593 CURVE SMOOTH",
"333 590 OFFCURVE",
"335 589 OFFCURVE",
"338 589 CURVE SMOOTH",
"342 589 OFFCURVE",
"347 593 OFFCURVE",
"347 605 CURVE SMOOTH",
"347 629 OFFCURVE",
"326 640 OFFCURVE",
"307 640 CURVE SMOOTH",
"241 640 OFFCURVE",
"178 550 OFFCURVE",
"164 502 CURVE SMOOTH",
"159 486 OFFCURVE",
"157 471 OFFCURVE",
"157 458 CURVE SMOOTH",
"157 413 OFFCURVE",
"184 388 OFFCURVE",
"224 388 CURVE SMOOTH",
"258 388 OFFCURVE",
"287 407 OFFCURVE",
"322 446 CURVE",
"328 434 OFFCURVE",
"341 426 OFFCURVE",
"355 426 CURVE SMOOTH",
"421 426 OFFCURVE",
"464 533 OFFCURVE",
"464 522 CURVE SMOOTH",
"464 525 OFFCURVE",
"461 528 OFFCURVE",
"458 528 CURVE SMOOTH",
"439 528 OFFCURVE",
"409 444 OFFCURVE",
"357 444 CURVE SMOOTH",
"347 444 OFFCURVE",
"338 451 OFFCURVE",
"337 466 CURVE",
"352 487 OFFCURVE",
"374 525 OFFCURVE",
"374 556 CURVE SMOOTH",
"374 575 OFFCURVE",
"367 586 OFFCURVE",
"354 586 CURVE SMOOTH",
"346 586 OFFCURVE",
"337 580 OFFCURVE",
"337 571 CURVE SMOOTH",
"337 564 OFFCURVE",
"343 559 OFFCURVE",
"343 545 CURVE SMOOTH",
"343 534 OFFCURVE",
"339 519 OFFCURVE",
"328 495 CURVE",
"326 495 OFFCURVE",
"324 496 OFFCURVE",
"323 496 CURVE SMOOTH",
"314 496 OFFCURVE",
"307 488 OFFCURVE",
"307 477 CURVE SMOOTH",
"307 473 OFFCURVE",
"308 468 OFFCURVE",
"310 464 CURVE"
);
}
);
width = 462;
}
);
note = ordmasculine;
unicode = 00BA;
},
{
glyphname = guillemotright;
layers = (
{
hints = (
{
horizontal = 1;
place = "{73, 222}";
type = Stem;
},
{
place = "{160, 40}";
type = Stem;
},
{
place = "{265, 40}";
type = Stem;
}
);
layerId = "F07FC137-599D-4028-8184-32064863B81C";
paths = (
{
closed = 1;
nodes = (
"195 186 OFFCURVE",
"200 190 OFFCURVE",
"200 195 CURVE SMOOTH",
"200 201 OFFCURVE",
"118 295 OFFCURVE",
"117 295 CURVE SMOOTH",
"114 295 OFFCURVE",
"112 292 OFFCURVE",
"112 286 CURVE SMOOTH",
"112 275 OFFCURVE",
"129 243 OFFCURVE",
"160 183 CURVE",
"79 104 OFFCURVE",
"68 87 OFFCURVE",
"68 77 CURVE SMOOTH",
"68 75 OFFCURVE",
"69 73 OFFCURVE",
"71 73 CURVE SMOOTH",
"73 73 OFFCURVE",
"74 74 OFFCURVE",
"76 75 CURVE",
"126 117 OFFCURVE",
"139 134 OFFCURVE",
"187 178 CURVE SMOOTH"
);
},
{
closed = 1;
nodes = (
"299 186 OFFCURVE",
"305 190 OFFCURVE",
"305 195 CURVE SMOOTH",
"305 200 OFFCURVE",
"222 295 OFFCURVE",
"221 295 CURVE SMOOTH",
"218 295 OFFCURVE",
"216 292 OFFCURVE",
"216 286 CURVE SMOOTH",
"216 275 OFFCURVE",
"233 243 OFFCURVE",
"265 183 CURVE",
"183 105 OFFCURVE",
"172 88 OFFCURVE",
"172 78 CURVE SMOOTH",
"172 75 OFFCURVE",
"174 73 OFFCURVE",
"176 73 CURVE SMOOTH",
"178 73 OFFCURVE",
"179 74 OFFCURVE",
"181 75 CURVE",
"230 117 OFFCURVE",
"244 134 OFFCURVE",
"291 178 CURVE SMOOTH"
);
}
);
width = 303;
}
);
note = guillemotright;
unicode = 00BB;
},
{
glyphname = onequarter;
layers = (
{
hints = (
{
horizontal = 1;
place = "{1, 700}";
type = Stem;
},
{
horizontal = 1;
place = "{211, 27}";
type = Stem;
},
{
horizontal = 1;
place = "{255, 40}";
type = Stem;
},
{
horizontal = 1;
place = "{313, 28}";
type = Stem;
},
{
place = "{131, 539}";
type = Stem;
},
{
place = "{1009, 41}";
type = Stem;
}
);
layerId = "F07FC137-599D-4028-8184-32064863B81C";
paths = (
{
closed = 1;
nodes = (
"497 -3 LINE SMOOTH",
"500 11 OFFCURVE",
"519 104 OFFCURVE",
"534 104 CURVE SMOOTH",
"562 104 OFFCURVE",
"630 123 OFFCURVE",
"630 160 CURVE SMOOTH",
"630 163 OFFCURVE",
"629 164 OFFCURVE",
"627 164 CURVE SMOOTH",
"625 164 OFFCURVE",
"622 162 OFFCURVE",
"620 157 CURVE SMOOTH",
"615 139 OFFCURVE",
"571 128 OFFCURVE",
"540 126 CURVE",
"564 181 OFFCURVE",
"594 236 OFFCURVE",
"617 282 CURVE",
"618 282 OFFCURVE",
"618 283 OFFCURVE",
"618 284 CURVE SMOOTH",
"618 291 OFFCURVE",
"604 301 OFFCURVE",
"597 301 CURVE SMOOTH",
"594 301 OFFCURVE",
"541 236 OFFCURVE",
"482 193 CURVE SMOOTH",
"413 143 OFFCURVE",
"370 121 OFFCURVE",
"370 95 CURVE SMOOTH",
"370 93 OFFCURVE",
"371 93 OFFCURVE",
"372 93 CURVE SMOOTH",
"380 93 OFFCURVE",
"393 113 OFFCURVE",
"420 113 CURVE SMOOTH",
"424 113 OFFCURVE",
"428 113 OFFCURVE",
"432 112 CURVE",
"510 104 LINE",
"493 58 OFFCURVE",
"480 14 OFFCURVE",
"480 -3 CURVE SMOOTH",
"480 -7 OFFCURVE",
"482 -9 OFFCURVE",
"486 -9 CURVE SMOOTH",
"490 -9 OFFCURVE",
"495 -6 OFFCURVE",
"497 -4 CURVE"
);
},
{
closed = 1;
nodes = (
"496 128 OFFCURVE",
"465 135 OFFCURVE",
"436 135 CURVE SMOOTH",
"432 135 OFFCURVE",
"427 134 OFFCURVE",
"423 134 CURVE",
"460 158 OFFCURVE",
"544 221 OFFCURVE",
"565 242 CURVE",
"558 227 OFFCURVE",
"538 177 OFFCURVE",
"519 126 CURVE"
);
},
{
closed = 1;
nodes = (
"148 332 OFFCURVE",
"134 332 OFFCURVE",
"120 332 CURVE SMOOTH",
"113 332 OFFCURVE",
"105 332 OFFCURVE",
"98 332 CURVE",
"114 390 OFFCURVE",
"168 504 OFFCURVE",
"211 589 CURVE",
"211 589 OFFCURVE",
"211 589 OFFCURVE",
"211 590 CURVE SMOOTH",
"211 594 OFFCURVE",
"198 601 OFFCURVE",
"189 601 CURVE SMOOTH",
"178 601 OFFCURVE",
"155 566 OFFCURVE",
"142 551 CURVE SMOOTH",
"125 532 OFFCURVE",
"89 501 OFFCURVE",
"89 497 CURVE SMOOTH",
"89 496 OFFCURVE",
"90 495 OFFCURVE",
"91 495 CURVE SMOOTH",
"103 495 OFFCURVE",
"142 533 OFFCURVE",
"159 549 CURVE",
"129 481 OFFCURVE",
"87 371 OFFCURVE",
"79 331 CURVE",
"44 327 OFFCURVE",
"18 329 OFFCURVE",
"18 309 CURVE SMOOTH",
"18 307 OFFCURVE",
"18 306 OFFCURVE",
"21 306 CURVE SMOOTH",
"38 306 OFFCURVE",
"60 314 OFFCURVE",
"78 317 CURVE",
"79 315 OFFCURVE",
"81 314 OFFCURVE",
"84 314 CURVE SMOOTH",
"88 314 OFFCURVE",
"94 317 OFFCURVE",
"96 319 CURVE",
"96 319 LINE",
"105 320 OFFCURVE",
"114 321 OFFCURVE",
"122 321 CURVE SMOOTH",
"134 321 OFFCURVE",
"146 320 OFFCURVE",
"156 320 CURVE SMOOTH",
"163 320 OFFCURVE",
"166 323 OFFCURVE",
"166 325 CURVE SMOOTH",
"166 327 OFFCURVE",
"164 329 OFFCURVE",
"161 330 CURVE SMOOTH"
);
},
{
closed = 1;
nodes = (
"504 547 OFFCURVE",
"489 562 OFFCURVE",
"475 550 CURVE",
"430 505 OFFCURVE",
"85 38 OFFCURVE",
"85 6 CURVE SMOOTH",
"85 -14 OFFCURVE",
"109 3 OFFCURVE",
"115 14 CURVE SMOOTH",
"219 196 OFFCURVE",
"436 468 OFFCURVE",
"504 542 CURVE"
);
}
);
width = 693;
}
);
note = onequarter;
unicode = 00BC;
},
{
glyphname = onehalf;
layers = (
{
hints = (
{
horizontal = 1;
place = "{-39, 38}";
type = Stem;
},
{
horizontal = 1;
place = "{1, 700}";
type = Stem;
},
{
horizontal = 1;
place = "{313, 28}";
type = Stem;
},
{
horizontal = 1;
place = "{497, 47}";
type = Stem;
},
{
place = "{131, 539}";
type = Stem;
},
{
place = "{962, 32}";
type = Stem;
}
);
layerId = "F07FC137-599D-4028-8184-32064863B81C";
paths = (
{
closed = 1;
nodes = (
"148 332 OFFCURVE",
"134 332 OFFCURVE",
"120 332 CURVE SMOOTH",
"113 332 OFFCURVE",
"105 332 OFFCURVE",
"98 332 CURVE",
"114 390 OFFCURVE",
"168 504 OFFCURVE",
"211 589 CURVE",
"211 589 OFFCURVE",
"211 589 OFFCURVE",
"211 590 CURVE SMOOTH",
"211 594 OFFCURVE",
"198 601 OFFCURVE",
"189 601 CURVE SMOOTH",
"178 601 OFFCURVE",
"155 566 OFFCURVE",
"142 551 CURVE SMOOTH",
"125 532 OFFCURVE",
"89 501 OFFCURVE",
"89 497 CURVE SMOOTH",
"89 496 OFFCURVE",
"90 495 OFFCURVE",
"91 495 CURVE SMOOTH",
"103 495 OFFCURVE",
"142 533 OFFCURVE",
"159 549 CURVE",
"129 481 OFFCURVE",
"87 371 OFFCURVE",
"79 331 CURVE",
"44 327 OFFCURVE",
"18 329 OFFCURVE",
"18 309 CURVE SMOOTH",
"18 307 OFFCURVE",
"18 306 OFFCURVE",
"21 306 CURVE SMOOTH",
"38 306 OFFCURVE",
"60 314 OFFCURVE",
"78 317 CURVE",
"79 315 OFFCURVE",
"81 314 OFFCURVE",
"84 314 CURVE SMOOTH",
"88 314 OFFCURVE",
"94 317 OFFCURVE",
"96 319 CURVE",
"96 319 LINE",
"105 320 OFFCURVE",
"114 321 OFFCURVE",
"122 321 CURVE SMOOTH",
"134 321 OFFCURVE",
"146 320 OFFCURVE",
"156 320 CURVE SMOOTH",
"163 320 OFFCURVE",
"166 323 OFFCURVE",
"166 325 CURVE SMOOTH",
"166 327 OFFCURVE",
"164 329 OFFCURVE",
"161 330 CURVE SMOOTH"
);
},
{
closed = 1;
nodes = (
"390 43 OFFCURVE",
"388 43 OFFCURVE",
"386 43 CURVE SMOOTH",
"360 43 OFFCURVE",
"339 33 OFFCURVE",
"339 2 CURVE SMOOTH",
"339 -1 OFFCURVE",
"340 -2 OFFCURVE",
"342 -2 CURVE SMOOTH",
"352 -2 OFFCURVE",
"379 23 OFFCURVE",
"381 26 CURVE",
"431 5 OFFCURVE",
"521 -7 OFFCURVE",
"526 -7 CURVE SMOOTH",
"550 -7 OFFCURVE",
"600 9 OFFCURVE",
"600 35 CURVE SMOOTH",
"600 37 OFFCURVE",
"599 39 OFFCURVE",
"597 39 CURVE SMOOTH",
"594 39 OFFCURVE",
"591 37 OFFCURVE",
"590 33 CURVE SMOOTH",
"586 20 OFFCURVE",
"559 15 OFFCURVE",
"532 15 CURVE SMOOTH",
"504 15 OFFCURVE",
"465 32 OFFCURVE",
"408 41 CURVE",
"482 80 OFFCURVE",
"619 160 OFFCURVE",
"619 228 CURVE SMOOTH",
"619 264 OFFCURVE",
"581 285 OFFCURVE",
"528 285 CURVE SMOOTH",
"515 285 OFFCURVE",
"501 283 OFFCURVE",
"486 280 CURVE SMOOTH",
"464 277 OFFCURVE",
"397 251 OFFCURVE",
"397 219 CURVE SMOOTH",
"397 210 OFFCURVE",
"405 196 OFFCURVE",
"411 196 CURVE SMOOTH",
"413 196 OFFCURVE",
"415 198 OFFCURVE",
"415 200 CURVE SMOOTH",
"415 204 OFFCURVE",
"411 209 OFFCURVE",
"411 213 CURVE SMOOTH",
"411 238 OFFCURVE",
"470 258 OFFCURVE",
"485 262 CURVE SMOOTH",
"498 265 OFFCURVE",
"511 267 OFFCURVE",
"522 267 CURVE SMOOTH",
"559 267 OFFCURVE",
"584 251 OFFCURVE",
"584 223 CURVE SMOOTH",
"584 160 OFFCURVE",
"452 78 OFFCURVE",
"392 43 CURVE"
);
},
{
closed = 1;
nodes = (
"504 547 OFFCURVE",
"489 562 OFFCURVE",
"475 550 CURVE",
"430 505 OFFCURVE",
"85 38 OFFCURVE",
"85 6 CURVE SMOOTH",
"85 -14 OFFCURVE",
"109 3 OFFCURVE",
"115 14 CURVE SMOOTH",
"219 196 OFFCURVE",
"436 468 OFFCURVE",
"504 542 CURVE"
);
}
);
width = 693;
}
);
note = onehalf;
unicode = 00BD;
},
{
glyphname = threequarters;
layers = (
{
hints = (
{
horizontal = 1;
place = "{1, 700}";
type = Stem;
},
{
horizontal = 1;
place = "{211, 27}";
type = Stem;
},
{
horizontal = 1;
place = "{255, 40}";
type = Stem;
},
{
horizontal = 1;
place = "{311, 27}";
type = Stem;
},
{
horizontal = 1;
place = "{552, 21}";
type = Stem;
},
{
horizontal = 1;
place = "{635, 29}";
type = Stem;
},
{
horizontal = 1;
place = "{831, 40}";
type = Stem;
},
{
place = "{-87, 59}";
type = Stem;
},
{
place = "{195, 539}";
type = Stem;
},
{
place = "{404, 52}";
type = Stem;
},
{
place = "{1073, 41}";
type = Stem;
}
);
layerId = "F07FC137-599D-4028-8184-32064863B81C";
paths = (
{
closed = 1;
nodes = (
"124 462 OFFCURVE",
"124 462 OFFCURVE",
"126 462 CURVE SMOOTH",
"138 462 OFFCURVE",
"154 467 OFFCURVE",
"171 467 CURVE",
"201 460 OFFCURVE",
"215 443 OFFCURVE",
"215 423 CURVE SMOOTH",
"215 362 OFFCURVE",
"146 310 OFFCURVE",
"90 310 CURVE SMOOTH",
"69 310 OFFCURVE",
"37 321 OFFCURVE",
"35 350 CURVE SMOOTH",
"35 357 OFFCURVE",
"37 363 OFFCURVE",
"37 369 CURVE SMOOTH",
"37 373 OFFCURVE",
"33 376 OFFCURVE",
"28 376 CURVE SMOOTH",
"19 376 OFFCURVE",
"14 362 OFFCURVE",
"14 350 CURVE SMOOTH",
"14 306 OFFCURVE",
"60 300 OFFCURVE",
"90 300 CURVE SMOOTH",
"157 300 OFFCURVE",
"246 347 OFFCURVE",
"246 421 CURVE SMOOTH",
"246 451 OFFCURVE",
"225 470 OFFCURVE",
"198 471 CURVE",
"239 484 OFFCURVE",
"258 514 OFFCURVE",
"258 541 CURVE SMOOTH",
"258 579 OFFCURVE",
"222 596 OFFCURVE",
"184 596 CURVE SMOOTH",
"130 596 OFFCURVE",
"87 572 OFFCURVE",
"87 529 CURVE SMOOTH",
"87 526 OFFCURVE",
"89 525 OFFCURVE",
"90 525 CURVE SMOOTH",
"94 525 OFFCURVE",
"98 528 OFFCURVE",
"98 532 CURVE SMOOTH",
"98 565 OFFCURVE",
"148 579 OFFCURVE",
"175 579 CURVE SMOOTH",
"208 579 OFFCURVE",
"229 558 OFFCURVE",
"229 537 CURVE SMOOTH",
"229 507 OFFCURVE",
"191 480 OFFCURVE",
"149 480 CURVE SMOOTH",
"139 480 OFFCURVE",
"129 482 OFFCURVE",
"122 482 CURVE SMOOTH",
"114 482 OFFCURVE",
"110 478 OFFCURVE",
"110 473 CURVE SMOOTH",
"110 467 OFFCURVE",
"114 462 OFFCURVE",
"122 462 CURVE SMOOTH"
);
},
{
closed = 1;
nodes = (
"497 -3 LINE SMOOTH",
"500 11 OFFCURVE",
"519 104 OFFCURVE",
"534 104 CURVE SMOOTH",
"562 104 OFFCURVE",
"630 123 OFFCURVE",
"630 160 CURVE SMOOTH",
"630 163 OFFCURVE",
"629 164 OFFCURVE",
"627 164 CURVE SMOOTH",
"625 164 OFFCURVE",
"622 162 OFFCURVE",
"620 157 CURVE SMOOTH",
"615 139 OFFCURVE",
"571 128 OFFCURVE",
"540 126 CURVE",
"564 181 OFFCURVE",
"594 236 OFFCURVE",
"617 282 CURVE",
"618 282 OFFCURVE",
"618 283 OFFCURVE",
"618 284 CURVE SMOOTH",
"618 291 OFFCURVE",
"604 301 OFFCURVE",
"597 301 CURVE SMOOTH",
"594 301 OFFCURVE",
"541 236 OFFCURVE",
"482 193 CURVE SMOOTH",
"413 143 OFFCURVE",
"370 121 OFFCURVE",
"370 95 CURVE SMOOTH",
"370 93 OFFCURVE",
"371 93 OFFCURVE",
"372 93 CURVE SMOOTH",
"380 93 OFFCURVE",
"393 113 OFFCURVE",
"420 113 CURVE SMOOTH",
"424 113 OFFCURVE",
"428 113 OFFCURVE",
"432 112 CURVE",
"510 104 LINE",
"493 58 OFFCURVE",
"480 14 OFFCURVE",
"480 -3 CURVE SMOOTH",
"480 -7 OFFCURVE",
"482 -9 OFFCURVE",
"486 -9 CURVE SMOOTH",
"490 -9 OFFCURVE",
"495 -6 OFFCURVE",
"497 -4 CURVE"
);
},
{
closed = 1;
nodes = (
"496 128 OFFCURVE",
"465 135 OFFCURVE",
"436 135 CURVE SMOOTH",
"432 135 OFFCURVE",
"427 134 OFFCURVE",
"423 134 CURVE",
"460 158 OFFCURVE",
"544 221 OFFCURVE",
"565 242 CURVE",
"558 227 OFFCURVE",
"538 177 OFFCURVE",
"519 126 CURVE"
);
},
{
closed = 1;
nodes = (
"534 547 OFFCURVE",
"519 562 OFFCURVE",
"505 550 CURVE",
"460 505 OFFCURVE",
"115 38 OFFCURVE",
"115 6 CURVE SMOOTH",
"115 -14 OFFCURVE",
"139 3 OFFCURVE",
"145 14 CURVE SMOOTH",
"249 196 OFFCURVE",
"466 468 OFFCURVE",
"534 542 CURVE"
);
}
);
width = 666;
}
);
note = threequarters;
unicode = 00BE;
},
{
glyphname = questiondown;
layers = (
{
hints = (
{
horizontal = 1;
place = "{122, 20}";
type = Stem;
},
{
horizontal = 1;
place = "{657, 49}";
type = Stem;
},
{
place = "{115, 55}";
type = Stem;
},
{
place = "{427, 42}";
type = Stem;
}
);
layerId = "F07FC137-599D-4028-8184-32064863B81C";
paths = (
{
closed = 1;
nodes = (
"261 303 OFFCURVE",
"261 300 OFFCURVE",
"261 297 CURVE SMOOTH",
"261 291 OFFCURVE",
"261 287 OFFCURVE",
"265 287 CURVE SMOOTH",
"269 287 OFFCURVE",
"274 290 OFFCURVE",
"283 297 CURVE SMOOTH",
"287 300 OFFCURVE",
"309 320 OFFCURVE",
"309 323 CURVE SMOOTH",
"309 337 OFFCURVE",
"293 337 OFFCURVE",
"282 337 CURVE SMOOTH",
"275 337 OFFCURVE",
"261 313 OFFCURVE",
"261 306 CURVE SMOOTH"
);
},
{
closed = 1;
nodes = (
"269 -76 OFFCURVE",
"286 -90 OFFCURVE",
"286 -19 CURVE SMOOTH",
"286 -7 OFFCURVE",
"284 -2 OFFCURVE",
"280 -2 CURVE SMOOTH",
"269 -2 OFFCURVE",
"243 -47 OFFCURVE",
"225 -65 CURVE SMOOTH",
"200 -89 OFFCURVE",
"163 -116 OFFCURVE",
"127 -116 CURVE SMOOTH",
"91 -116 OFFCURVE",
"70 -86 OFFCURVE",
"70 -49 CURVE SMOOTH",
"70 33 OFFCURVE",
"107 67 OFFCURVE",
"164 116 CURVE SMOOTH",
"200 147 OFFCURVE",
"243 184 OFFCURVE",
"243 215 CURVE SMOOTH",
"243 220 OFFCURVE",
"240 223 OFFCURVE",
"236 223 CURVE SMOOTH",
"231 223 OFFCURVE",
"227 220 OFFCURVE",
"226 215 CURVE SMOOTH",
"211 139 OFFCURVE",
"18 94 OFFCURVE",
"18 -38 CURVE SMOOTH",
"18 -107 OFFCURVE",
"67 -130 OFFCURVE",
"116 -130 CURVE SMOOTH",
"147 -130 OFFCURVE",
"180 -121 OFFCURVE",
"204 -109 CURVE SMOOTH"
);
}
);
width = 327;
}
);
note = questiondown;
unicode = 00BF;
},
{
glyphname = Agrave;
layers = (
{
hints = (
{
horizontal = 1;
place = "{-57, 21}";
type = Stem;
},
{
horizontal = 1;
place = "{179, 24}";
type = Stem;
},
{
horizontal = 1;
place = "{435, 13}";
type = Stem;
},
{
place = "{1, 20}";
type = Stem;
},
{
place = "{35, 31}";
type = Stem;
},
{
place = "{376, 44}";
type = Stem;
},
{
horizontal = 1;
place = "{497, 89}";
type = Stem;
},
{
place = "{296, 142}";
type = Stem;
}
);
layerId = "F07FC137-599D-4028-8184-32064863B81C";
paths = (
{
closed = 1;
nodes = (
"417 444 OFFCURVE",
"383 449 OFFCURVE",
"372 449 CURVE SMOOTH",
"304 449 OFFCURVE",
"127 273 OFFCURVE",
"85 208 CURVE",
"58 203 OFFCURVE",
"36 206 OFFCURVE",
"36 189 CURVE SMOOTH",
"36 182 OFFCURVE",
"41 177 OFFCURVE",
"52 177 CURVE SMOOTH",
"67 177 LINE",
"42 137 OFFCURVE",
"3 67 OFFCURVE",
"3 16 CURVE SMOOTH",
"3 11 OFFCURVE",
"5 -19 OFFCURVE",
"21 -19 CURVE SMOOTH",
"24 -19 OFFCURVE",
"24 -14 OFFCURVE",
"25 -12 CURVE",
"25 27 OFFCURVE",
"73 161 OFFCURVE",
"104 180 CURVE",
"118 180 OFFCURVE",
"149 180 OFFCURVE",
"176 180 CURVE SMOOTH",
"229 180 OFFCURVE",
"296 181 OFFCURVE",
"332 186 CURVE",
"319 121 OFFCURVE",
"305 57 OFFCURVE",
"295 11 CURVE",
"295 11 OFFCURVE",
"295 10 OFFCURVE",
"295 10 CURVE",
"295 4 OFFCURVE",
"302 -5 OFFCURVE",
"311 -5 CURVE SMOOTH",
"314 -5 OFFCURVE",
"316 -4 OFFCURVE",
"317 0 CURVE SMOOTH",
"342 107 OFFCURVE",
"420 371 OFFCURVE",
"420 423 CURVE SMOOTH",
"420 425 OFFCURVE",
"420 427 OFFCURVE",
"420 428 CURVE SMOOTH"
);
},
{
closed = 1;
nodes = (
"266 204 OFFCURVE",
"146 206 OFFCURVE",
"113 206 CURVE",
"177 299 OFFCURVE",
"283 391 OFFCURVE",
"375 426 CURVE",
"375 400 OFFCURVE",
"356 306 OFFCURVE",
"336 204 CURVE"
);
},
{
closed = 1;
nodes = (
"396 534 OFFCURVE",
"338 586 OFFCURVE",
"314 586 CURVE SMOOTH",
"301 586 OFFCURVE",
"296 578 OFFCURVE",
"296 574 CURVE SMOOTH",
"296 550 OFFCURVE",
"412 497 OFFCURVE",
"431 497 CURVE SMOOTH",
"436 497 OFFCURVE",
"438 499 OFFCURVE",
"438 501 CURVE SMOOTH",
"438 503 OFFCURVE",
"436 505 OFFCURVE",
"434 506 CURVE SMOOTH"
);
}
);
width = 376;
}
);
note = Agrave;
unicode = 00C0;
},
{
glyphname = Aacute;
layers = (
{
hints = (
{
horizontal = 1;
place = "{-57, 21}";
type = Stem;
},
{
horizontal = 1;
place = "{179, 24}";
type = Stem;
},
{
horizontal = 1;
place = "{435, 13}";
type = Stem;
},
{
place = "{1, 20}";
type = Stem;
},
{
place = "{35, 31}";
type = Stem;
},
{
place = "{376, 44}";
type = Stem;
},
{
horizontal = 1;
place = "{210, 22}";
type = Stem;
},
{
horizontal = 1;
place = "{488, -20}";
target = down;
type = TopGhost;
},
{
place = "{250, 29}";
type = Stem;
},
{
place = "{414, 28}";
type = Stem;
}
);
layerId = "F07FC137-599D-4028-8184-32064863B81C";
paths = (
{
closed = 1;
nodes = (
"417 444 OFFCURVE",
"383 449 OFFCURVE",
"372 449 CURVE SMOOTH",
"304 449 OFFCURVE",
"127 273 OFFCURVE",
"85 208 CURVE",
"58 203 OFFCURVE",
"36 206 OFFCURVE",
"36 189 CURVE SMOOTH",
"36 182 OFFCURVE",
"41 177 OFFCURVE",
"52 177 CURVE SMOOTH",
"67 177 LINE",
"42 137 OFFCURVE",
"3 67 OFFCURVE",
"3 16 CURVE SMOOTH",
"3 11 OFFCURVE",
"5 -19 OFFCURVE",
"21 -19 CURVE SMOOTH",
"24 -19 OFFCURVE",
"24 -14 OFFCURVE",
"25 -12 CURVE",
"25 27 OFFCURVE",
"73 161 OFFCURVE",
"104 180 CURVE",
"118 180 OFFCURVE",
"149 180 OFFCURVE",
"176 180 CURVE SMOOTH",
"229 180 OFFCURVE",
"296 181 OFFCURVE",
"332 186 CURVE",
"319 121 OFFCURVE",
"305 57 OFFCURVE",
"295 11 CURVE",
"295 11 OFFCURVE",
"295 10 OFFCURVE",
"295 10 CURVE",
"295 4 OFFCURVE",
"302 -5 OFFCURVE",
"311 -5 CURVE SMOOTH",
"314 -5 OFFCURVE",
"316 -4 OFFCURVE",
"317 0 CURVE SMOOTH",
"342 107 OFFCURVE",
"420 371 OFFCURVE",
"420 423 CURVE SMOOTH",
"420 425 OFFCURVE",
"420 427 OFFCURVE",
"420 428 CURVE SMOOTH"
);
},
{
closed = 1;
nodes = (
"266 204 OFFCURVE",
"146 206 OFFCURVE",
"113 206 CURVE",
"177 299 OFFCURVE",
"283 391 OFFCURVE",
"375 426 CURVE",
"375 400 OFFCURVE",
"356 306 OFFCURVE",
"336 204 CURVE"
);
},
{
closed = 1;
nodes = (
"511 564 LINE SMOOTH",
"513 566 OFFCURVE",
"515 570 OFFCURVE",
"515 574 CURVE SMOOTH",
"515 582 OFFCURVE",
"508 594 OFFCURVE",
"490 594 CURVE SMOOTH",
"484 594 OFFCURVE",
"375 515 OFFCURVE",
"375 505 CURVE SMOOTH",
"375 503 OFFCURVE",
"377 502 OFFCURVE",
"382 502 CURVE SMOOTH",
"396 503 OFFCURVE",
"493 549 OFFCURVE",
"510 563 CURVE SMOOTH"
);
}
);
width = 376;
}
);
note = Aacute;
unicode = 00C1;
},
{
glyphname = Acircumflex;
layers = (
{
hints = (
{
horizontal = 1;
place = "{-57, 21}";
type = Stem;
},
{
horizontal = 1;
place = "{179, 24}";
type = Stem;
},
{
horizontal = 1;
place = "{435, 13}";
type = Stem;
},
{
place = "{1, 20}";
type = Stem;
},
{
place = "{35, 31}";
type = Stem;
},
{
place = "{376, 44}";
type = Stem;
},
{
horizontal = 1;
place = "{482, 90}";
type = Stem;
},
{
place = "{308, 164}";
type = Stem;
}
);
layerId = "F07FC137-599D-4028-8184-32064863B81C";
paths = (
{
closed = 1;
nodes = (
"417 444 OFFCURVE",
"383 449 OFFCURVE",
"372 449 CURVE SMOOTH",
"304 449 OFFCURVE",
"127 273 OFFCURVE",
"85 208 CURVE",
"58 203 OFFCURVE",
"36 206 OFFCURVE",
"36 189 CURVE SMOOTH",
"36 182 OFFCURVE",
"41 177 OFFCURVE",
"52 177 CURVE SMOOTH",
"67 177 LINE",
"42 137 OFFCURVE",
"3 67 OFFCURVE",
"3 16 CURVE SMOOTH",
"3 11 OFFCURVE",
"5 -19 OFFCURVE",
"21 -19 CURVE SMOOTH",
"24 -19 OFFCURVE",
"24 -14 OFFCURVE",
"25 -12 CURVE",
"25 27 OFFCURVE",
"73 161 OFFCURVE",
"104 180 CURVE",
"118 180 OFFCURVE",
"149 180 OFFCURVE",
"176 180 CURVE SMOOTH",
"229 180 OFFCURVE",
"296 181 OFFCURVE",
"332 186 CURVE",
"319 121 OFFCURVE",
"305 57 OFFCURVE",
"295 11 CURVE",
"295 11 OFFCURVE",
"295 10 OFFCURVE",
"295 10 CURVE",
"295 4 OFFCURVE",
"302 -5 OFFCURVE",
"311 -5 CURVE SMOOTH",
"314 -5 OFFCURVE",
"316 -4 OFFCURVE",
"317 0 CURVE SMOOTH",
"342 107 OFFCURVE",
"420 371 OFFCURVE",
"420 423 CURVE SMOOTH",
"420 425 OFFCURVE",
"420 427 OFFCURVE",
"420 428 CURVE SMOOTH"
);
},
{
closed = 1;
nodes = (
"266 204 OFFCURVE",
"146 206 OFFCURVE",
"113 206 CURVE",
"177 299 OFFCURVE",
"283 391 OFFCURVE",
"375 426 CURVE",
"375 400 OFFCURVE",
"356 306 OFFCURVE",
"336 204 CURVE"
);
},
{
closed = 1;
nodes = (
"455 520 OFFCURVE",
"420 566 OFFCURVE",
"405 572 CURVE",
"389 571 OFFCURVE",
"330 513 OFFCURVE",
"316 502 CURVE SMOOTH",
"312 498 OFFCURVE",
"307 491 OFFCURVE",
"307 487 CURVE SMOOTH",
"307 486 OFFCURVE",
"308 484 OFFCURVE",
"310 484 CURVE SMOOTH",
"327 484 OFFCURVE",
"370 528 OFFCURVE",
"395 544 CURVE",
"413 524 OFFCURVE",
"471 482 OFFCURVE",
"468 482 CURVE",
"471 482 OFFCURVE",
"472 485 OFFCURVE",
"472 488 CURVE SMOOTH",
"472 491 OFFCURVE",
"471 495 OFFCURVE",
"469 498 CURVE SMOOTH"
);
}
);
width = 376;
}
);
note = Acircumflex;
unicode = 00C2;
},
{
glyphname = Atilde;
layers = (
{
hints = (
{
horizontal = 1;
place = "{-57, 21}";
type = Stem;
},
{
horizontal = 1;
place = "{179, 24}";
type = Stem;
},
{
horizontal = 1;
place = "{435, 13}";
type = Stem;
},
{
place = "{1, 20}";
type = Stem;
},
{
place = "{35, 31}";
type = Stem;
},
{
place = "{376, 44}";
type = Stem;
},
{
horizontal = 1;
place = "{520, 36}";
type = Stem;
},
{
place = "{293, 215}";
type = Stem;
}
);
layerId = "F07FC137-599D-4028-8184-32064863B81C";
paths = (
{
closed = 1;
nodes = (
"417 444 OFFCURVE",
"383 449 OFFCURVE",
"372 449 CURVE SMOOTH",
"304 449 OFFCURVE",
"127 273 OFFCURVE",
"85 208 CURVE",
"58 203 OFFCURVE",
"36 206 OFFCURVE",
"36 189 CURVE SMOOTH",
"36 182 OFFCURVE",
"41 177 OFFCURVE",
"52 177 CURVE SMOOTH",
"67 177 LINE",
"42 137 OFFCURVE",
"3 67 OFFCURVE",
"3 16 CURVE SMOOTH",
"3 11 OFFCURVE",
"5 -19 OFFCURVE",
"21 -19 CURVE SMOOTH",
"24 -19 OFFCURVE",
"24 -14 OFFCURVE",
"25 -12 CURVE",
"25 27 OFFCURVE",
"73 161 OFFCURVE",
"104 180 CURVE",
"118 180 OFFCURVE",
"149 180 OFFCURVE",
"176 180 CURVE SMOOTH",
"229 180 OFFCURVE",
"296 181 OFFCURVE",
"332 186 CURVE",
"319 121 OFFCURVE",
"305 57 OFFCURVE",
"295 11 CURVE",
"295 11 OFFCURVE",
"295 10 OFFCURVE",
"295 10 CURVE",
"295 4 OFFCURVE",
"302 -5 OFFCURVE",
"311 -5 CURVE SMOOTH",
"314 -5 OFFCURVE",
"316 -4 OFFCURVE",
"317 0 CURVE SMOOTH",
"342 107 OFFCURVE",
"420 371 OFFCURVE",
"420 423 CURVE SMOOTH",
"420 425 OFFCURVE",
"420 427 OFFCURVE",
"420 428 CURVE SMOOTH"
);
},
{
closed = 1;
nodes = (
"266 204 OFFCURVE",
"146 206 OFFCURVE",
"113 206 CURVE",
"177 299 OFFCURVE",
"283 391 OFFCURVE",
"375 426 CURVE",
"375 400 OFFCURVE",
"356 306 OFFCURVE",
"336 204 CURVE"
);
},
{
closed = 1;
nodes = (
"508 545 OFFCURVE",
"508 545 OFFCURVE",
"508 546 CURVE SMOOTH",
"508 548 OFFCURVE",
"504 549 OFFCURVE",
"500 549 CURVE SMOOTH",
"489 549 OFFCURVE",
"482 520 OFFCURVE",
"462 520 CURVE SMOOTH",
"431 520 OFFCURVE",
"385 556 OFFCURVE",
"366 556 CURVE SMOOTH",
"336 556 OFFCURVE",
"314 524 OFFCURVE",
"293 495 CURVE",
"293 495 OFFCURVE",
"293 494 OFFCURVE",
"293 494 CURVE",
"293 492 OFFCURVE",
"297 490 OFFCURVE",
"301 490 CURVE SMOOTH",
"306 490 OFFCURVE",
"337 521 OFFCURVE",
"357 521 CURVE SMOOTH",
"387 521 OFFCURVE",
"417 495 OFFCURVE",
"447 495 CURVE SMOOTH",
"472 495 OFFCURVE",
"496 518 OFFCURVE",
"508 545 CURVE"
);
}
);
width = 376;
}
);
note = Atilde;
unicode = 00C3;
},
{
glyphname = Adieresis;
layers = (
{
hints = (
{
horizontal = 1;
place = "{-57, 21}";
type = Stem;
},
{
horizontal = 1;
place = "{179, 24}";
type = Stem;
},
{
horizontal = 1;
place = "{435, 13}";
type = Stem;
},
{
place = "{1, 20}";
type = Stem;
},
{
place = "{35, 31}";
type = Stem;
},
{
place = "{376, 44}";
type = Stem;
},
{
horizontal = 1;
place = "{510, 53}";
type = Stem;
},
{
place = "{307, 53}";
type = Stem;
},
{
place = "{434, 53}";
type = Stem;
}
);
layerId = "F07FC137-599D-4028-8184-32064863B81C";
paths = (
{
closed = 1;
nodes = (
"417 444 OFFCURVE",
"383 449 OFFCURVE",
"372 449 CURVE SMOOTH",
"304 449 OFFCURVE",
"127 273 OFFCURVE",
"85 208 CURVE",
"58 203 OFFCURVE",
"36 206 OFFCURVE",
"36 189 CURVE SMOOTH",
"36 182 OFFCURVE",
"41 177 OFFCURVE",
"52 177 CURVE SMOOTH",
"67 177 LINE",
"42 137 OFFCURVE",
"3 67 OFFCURVE",
"3 16 CURVE SMOOTH",
"3 11 OFFCURVE",
"5 -19 OFFCURVE",
"21 -19 CURVE SMOOTH",
"24 -19 OFFCURVE",
"24 -14 OFFCURVE",
"25 -12 CURVE",
"25 27 OFFCURVE",
"73 161 OFFCURVE",
"104 180 CURVE",
"118 180 OFFCURVE",
"149 180 OFFCURVE",
"176 180 CURVE SMOOTH",
"229 180 OFFCURVE",
"296 181 OFFCURVE",
"332 186 CURVE",
"319 121 OFFCURVE",
"305 57 OFFCURVE",
"295 11 CURVE",
"295 11 OFFCURVE",
"295 10 OFFCURVE",
"295 10 CURVE",
"295 4 OFFCURVE",
"302 -5 OFFCURVE",
"311 -5 CURVE SMOOTH",
"314 -5 OFFCURVE",
"316 -4 OFFCURVE",
"317 0 CURVE SMOOTH",
"342 107 OFFCURVE",
"420 371 OFFCURVE",
"420 423 CURVE SMOOTH",
"420 425 OFFCURVE",
"420 427 OFFCURVE",
"420 428 CURVE SMOOTH"
);
},
{
closed = 1;
nodes = (
"266 204 OFFCURVE",
"146 206 OFFCURVE",
"113 206 CURVE",
"177 299 OFFCURVE",
"283 391 OFFCURVE",
"375 426 CURVE",
"375 400 OFFCURVE",
"356 306 OFFCURVE",
"336 204 CURVE"
);
},
{
closed = 1;
nodes = (
"355 547 OFFCURVE",
"360 558 OFFCURVE",
"360 562 CURVE SMOOTH",
"360 563 OFFCURVE",
"359 563 OFFCURVE",
"358 563 CURVE SMOOTH",
"357 563 OFFCURVE",
"352 561 OFFCURVE",
"345 555 CURVE SMOOTH",
"341 552 OFFCURVE",
"307 527 OFFCURVE",
"307 523 CURVE SMOOTH",
"307 510 OFFCURVE",
"323 510 OFFCURVE",
"334 510 CURVE SMOOTH",
"341 510 OFFCURVE",
"355 533 OFFCURVE",
"355 541 CURVE SMOOTH"
);
},
{
closed = 1;
nodes = (
"482 547 OFFCURVE",
"487 558 OFFCURVE",
"487 562 CURVE SMOOTH",
"487 563 OFFCURVE",
"486 563 OFFCURVE",
"485 563 CURVE SMOOTH",
"484 563 OFFCURVE",
"479 561 OFFCURVE",
"472 555 CURVE SMOOTH",
"468 552 OFFCURVE",
"434 527 OFFCURVE",
"434 523 CURVE SMOOTH",
"434 510 OFFCURVE",
"449 510 OFFCURVE",
"461 510 CURVE SMOOTH",
"467 510 OFFCURVE",
"482 533 OFFCURVE",
"482 541 CURVE SMOOTH"
);
}
);
width = 376;
}
);
note = Adieresis;
unicode = 00C4;
},
